<?xml version="1.0" encoding="UTF-8"?>
<svg width="382px" height="63px" viewBox="0 0 382 63" version="1.1" xmlns="http://www.w3.org/2000/svg" xmlns:xlink="http://www.w3.org/1999/xlink">
    <!-- Generator: Sketch 63.1 (92452) - https://sketch.com -->
    <title>Group 2</title>
    <desc>Created with Sketch.</desc>
    <g id="Page-1" stroke="none" stroke-width="1" fill="none" fill-rule="evenodd">
        <g id="Group-2" transform="translate(0.578000, 0.956934)">
            <path d="M361.215,47.3240657 C362.672,47.0740657 364.617,46.3010657 365.32,44.8750657 C366.121,43.2460657 365.883,41.5120657 365.293,39.8550657 C365.258,39.7540657 365.207,39.6800657 365.149,39.6170657 C364.895,38.8130657 364.535,38.0470657 364.004,37.3670657 C362.766,35.7930657 361.246,34.3870657 359.719,33.0740657 C359.668,32.9530657 359.574,32.8400657 359.434,32.7460657 C359.285,32.6560657 359.141,32.5630657 358.996,32.4690657 C358.86,32.3830657 358.715,32.3590657 358.574,32.3830657 C358.484,32.3400657 358.399,32.3010657 358.309,32.2620657 C358.5,32.2190657 358.692,32.1560657 358.887,32.0900657 C358.906,32.1410657 358.945,32.1800657 359.008,32.1990657 C359.008,32.1990657 359.008,32.2030657 359.008,32.2070657 C359.098,32.2230657 359.203,32.2380657 359.293,32.1990657 C359.367,32.2460657 359.453,32.2890657 359.559,32.3160657 C359.785,32.3830657 360.016,32.4490657 360.246,32.5160657 C360.344,32.6450657 360.481,32.7460657 360.649,32.8090657 C363.926,33.9840657 367.641,34.8710657 371.082,35.3790657 C372.918,35.6480657 375.227,35.7770657 377.082,35.0470657 C377.664,34.9880657 378.129,34.8240657 378.598,34.5430657 C378.625,34.5350657 378.649,34.5310657 378.676,34.5200657 C380.399,33.9180657 380.711,32.6760657 380.988,31.0200657 C381.035,30.7380657 380.922,30.5160657 380.75,30.3670657 C380.699,29.8010657 380.504,29.2230657 380.141,28.6840657 C378.809,26.7070657 376.039,26.2460657 373.688,26.4060657 C373.625,26.3790657 373.563,26.3520657 373.484,26.3400657 C371.516,25.9730657 369.535,26.6560657 367.649,27.2150657 C367.43,27.2270657 367.219,27.3130657 367.067,27.4690657 C366.594,27.6370657 365.754,27.7340657 365.426,27.8320657 C364.832,28.0120657 364.242,28.2230657 363.66,28.4410657 C362.356,28.6130657 360.875,28.9260657 359.727,29.5780657 C359.641,29.6250657 359.602,29.6990657 359.594,29.7730657 C359.336,29.8520657 359.008,29.9490657 358.676,30.0430657 C358.27,30.0510657 357.86,30.0820657 357.449,30.1250657 C358.121,29.6560657 358.805,29.1950657 359.473,28.7270657 C360.242,28.1880657 360.856,27.5940657 361.43,26.8980657 C361.535,26.9450657 361.668,26.9340657 361.742,26.8050657 C362.172,26.0820657 362.887,25.5780657 363.422,24.9380657 C363.801,24.4810657 364.149,23.9920657 364.445,23.4770657 C365.106,22.3400657 365.606,21.0230657 365.676,19.6990657 C365.742,18.4220657 365.262,17.2420657 364.406,16.3010657 C363.942,15.7810657 363.348,15.4730657 362.707,15.2580657 C362.695,15.2500657 362.684,15.2420657 362.664,15.2380657 C362.633,15.2310657 362.606,15.2230657 362.574,15.2150657 C362.348,15.1450657 362.121,15.0860657 361.891,15.0350657 C361.887,15.0310657 361.887,15.0310657 361.883,15.0310657 C361.867,15.0270657 361.856,15.0270657 361.84,15.0230657 C361.758,15.0000657 361.672,14.9810657 361.59,14.9610657 C361.567,14.9340657 361.535,14.9100657 361.496,14.8950657 C360.824,14.6480657 360.055,14.7580657 359.356,14.8090657 C358.66,14.8550657 357.957,14.9300657 357.309,15.1910657 C356.156,15.6560657 355.399,16.9410657 355.121,18.1210657 C354.856,19.2580657 354.953,20.8750657 355.66,21.8320657 C356.277,22.6640657 357.34,23.9770657 358.484,24.1020657 C358.152,25.1370657 357.469,26.0900657 356.688,26.8280657 C356.348,27.1450657 355.942,27.3980657 355.574,27.6840657 C355.559,27.6840657 355.547,27.6800657 355.535,27.6880657 C355.43,27.7310657 355.332,27.7770657 355.231,27.8240657 C355.203,27.8200657 355.176,27.8240657 355.145,27.8360657 C355.129,27.8440657 355.11,27.8520657 355.098,27.8550657 C355.094,27.8550657 355.094,27.8590657 355.094,27.8590657 C354.684,28.0310657 354.297,28.2540657 353.887,28.4140657 C353.867,28.4180657 353.852,28.4180657 353.828,28.4260657 C353.02,28.7030657 352.172,28.8590657 351.356,29.1410657 C350.981,29.0350657 350.582,29.3090657 350.203,29.3870657 C349.617,29.5040657 348.953,29.5080657 348.36,29.5630657 C348.32,29.5660657 348.289,29.5780657 348.258,29.5980657 C348.117,29.5630657 347.93,29.6560657 347.949,29.8200657 C348.035,30.4920657 348.34,31.2030657 348.059,31.8670657 C348.035,31.9220657 348.031,31.9770657 348.043,32.0270657 C348.016,32.0780657 347.981,32.1330657 347.938,32.1880657 C347.875,32.2660657 347.922,32.3870657 348.008,32.4380657 C348.024,32.4340657 348.043,32.4340657 348.063,32.4340657 C348.063,32.4300657 348.063,32.4300657 348.063,32.4300657 L348.074,32.4300657 C348.172,32.4220657 348.266,32.4300657 348.356,32.4450657 C348.461,32.4380657 348.563,32.4260657 348.664,32.4220657 C348.676,32.4220657 348.684,32.4180657 348.692,32.4140657 C348.707,32.4140657 348.723,32.4180657 348.738,32.4180657 C348.762,32.4180657 348.781,32.4140657 348.801,32.4100657 C348.82,32.4140657 348.84,32.4260657 348.863,32.4300657 C351.332,32.9960657 354.543,33.1910657 356.344,35.1520657 C356.508,35.3280657 356.695,35.3870657 356.871,35.3630657 C357.024,35.5080657 357.168,35.6560657 357.313,35.8130657 C357.344,35.8480657 357.371,35.8710657 357.402,35.8950657 C357.727,36.5080657 357.906,37.2190657 358.231,37.7850657 C357.867,37.9530657 357.531,38.1560657 357.219,38.3870657 C357.172,38.4020657 357.121,38.4220657 357.074,38.4490657 C356.055,39.0660657 355.422,39.8980657 355.125,41.0590657 C355.094,41.1800657 355.094,41.2930657 355.11,41.3950657 C355.031,41.5160657 354.977,41.6600657 354.953,41.8320657 C354.875,42.2270657 354.867,42.6170657 354.934,43.0160657 C354.938,43.1290657 354.961,43.2270657 354.996,43.3160657 C355.09,44.5230657 355.399,45.7620657 356.387,46.4570657 C357.656,47.3550657 359.727,47.5820657 361.215,47.3240657" id="Fill-115" fill="#F79764"></path>
            <path d="M347.977,35.0940657 C348.07,34.5630657 348.031,34.0940657 347.965,33.5780657 C347.965,33.5780657 347.965,33.5780657 347.961,33.5780657 C347.902,33.5700657 347.844,33.5470657 347.817,33.4810657 C347.738,33.3090657 347.613,33.1480657 347.574,32.9650657 C347.539,32.8010657 347.613,32.6210657 347.707,32.4920657 C347.758,32.4260657 347.848,32.3830657 347.93,32.3950657 C347.957,32.0430657 348.016,31.6950657 348.082,31.2890657 C348.231,30.3710657 347.961,29.7270657 347.348,29.1760657 C347.371,29.1560657 347.391,29.1450657 347.41,29.1210657 C349.188,27.0780657 347.57,24.5200657 345.106,24.4450657 C344.012,24.4140657 343.199,24.8200657 342.66,25.4650657 C341.192,26.3050657 341.149,28.6840657 342.195,29.8870657 C342.258,29.9610657 342.332,29.9960657 342.406,30.0160657 C342.074,30.5350657 341.957,31.0740657 342.106,31.7030657 C341.492,32.5230657 341.195,33.4730657 341.234,34.5200657 C341.25,34.9140657 341.309,35.3130657 341.512,35.6600657 C341.684,35.9650657 342.473,36.3160657 342.547,36.5350657 C342.551,36.5310657 342.551,36.5310657 342.555,36.5310657 C342.574,36.6050657 342.61,36.6800657 342.668,36.7500657 C342.672,36.7540657 342.676,36.7580657 342.68,36.7620657 C342.762,36.8630657 342.867,36.9100657 342.977,36.9220657 C344.809,37.6990657 347.567,37.3950657 347.977,35.0940657" id="Fill-116" fill="#F79764"></path>
            <path d="M341.969,32.0780657 C342.426,31.3790657 342.668,30.2850657 342.152,29.5780657 C342.113,29.5270657 342.07,29.4880657 342.027,29.4530657 C342.168,29.2700657 342,28.9260657 341.699,28.9690657 C338.817,29.3980657 335.918,29.7340657 333.043,30.1050657 C331.668,30.2810657 330.168,30.2460657 328.781,30.2580657 C327.145,30.2660657 325.512,29.8590657 323.887,30.0660657 C323.774,30.0820657 323.676,30.1170657 323.598,30.1800657 C323.594,30.1800657 323.594,30.1800657 323.59,30.1800657 C323.5,30.1600657 323.426,30.1880657 323.363,30.2540657 C323.301,30.3200657 323.313,30.4300657 323.391,30.4770657 C323.399,30.4810657 323.402,30.4840657 323.41,30.4880657 C323.41,30.5120657 323.406,30.5350657 323.402,30.5590657 C323.395,30.6170657 323.387,30.6720657 323.383,30.7270657 C323.375,30.7890657 323.367,30.8520657 323.363,30.9020657 C323.352,31.0900657 323.317,31.2770657 323.305,31.4650657 C323.297,31.5900657 323.438,31.6880657 323.551,31.6520657 C323.567,31.6480657 323.582,31.6450657 323.598,31.6410657 C323.621,31.6480657 323.641,31.6600657 323.664,31.6680657 C324.301,31.8360657 324.926,31.9690657 325.574,32.0780657 C325.574,32.0780657 325.574,32.0740657 325.574,32.0740657 C325.598,32.0820657 325.617,32.0900657 325.645,32.0900657 C325.656,32.0940657 325.668,32.0940657 325.684,32.0940657 C325.789,32.0980657 325.871,32.0590657 325.938,32.0000657 C326.383,31.8670657 327.531,31.9840657 327.891,31.9770657 C328.285,31.9650657 328.68,31.9570657 329.078,31.9490657 C330.32,32.0040657 331.563,31.9960657 332.813,31.9260657 C332.82,31.9260657 332.82,31.9260657 332.824,31.9260657 C332.891,31.9880657 332.981,32.0310657 333.098,32.0350657 C333.789,32.0430657 334.477,32.0510657 335.164,32.0590657 C335.969,32.1520657 336.774,32.2420657 337.582,32.3320657 C337.641,32.3400657 337.692,32.3280657 337.738,32.3050657 C338.285,32.3790657 338.832,32.4530657 339.379,32.5270657 C339.453,32.5390657 339.52,32.5270657 339.582,32.5080657 C339.703,32.5200657 339.82,32.5310657 339.942,32.5430657 C340.832,32.7700657 341.352,33.0230657 341.969,32.0780657" id="Fill-117" fill="#F79764"></path>
            <path d="M361.856,23.7730657 C362.465,23.4610657 362.043,22.4650657 361.391,22.6680657 C360.469,22.9530657 358.809,22.0740657 358.164,21.3790657 C357.031,20.1600657 357.149,17.9180657 358.805,17.2770657 C361.27,16.3280657 364.449,17.9920657 364.527,20.6840657 C364.555,21.5270657 365.867,21.5270657 365.836,20.6840657 C365.75,18.5390657 364.781,15.9450657 362.684,15.0630657 C360.746,14.2460657 357.887,14.4100657 356.348,15.9650657 C352.715,19.6370657 357.289,26.1050657 361.856,23.7730657" id="Fill-118" fill="#AF4C54"></path>
            <path d="M361.078,47.7420657 C363.442,47.3830657 365.684,45.4220657 365.945,42.9730657 C365.977,42.6800657 365.856,42.4810657 365.672,42.3710657 C365.852,40.8590657 365.086,39.2380657 364.395,37.8670657 C364.277,37.6290657 363.887,37.7930657 363.969,38.0470657 C364.531,39.8010657 365.379,41.5550657 364.102,43.2110657 C363.957,43.3950657 363.926,43.5900657 363.961,43.7580657 C363.758,44.0350657 363.527,44.2850657 363.266,44.5040657 C361.91,45.5000657 359.707,45.5080657 358.461,44.4100657 C358.098,44.0900657 357.684,44.1560657 357.418,44.3950657 C356.91,43.7770657 356.817,42.9530657 357.078,41.9450657 C357.234,41.3320657 357.512,40.5740657 358.047,40.1760657 C359.067,39.4140657 361.313,39.3200657 361.867,40.8360657 C362.098,41.4530657 363.055,41.2110657 362.867,40.5590657 C362.152,38.0590657 359.524,37.3670657 357.277,38.3440657 C355.024,39.3240657 354.238,42.5860657 354.984,44.8010657 C355.781,47.1680657 358.844,48.0860657 361.078,47.7420657" id="Fill-119" fill="#AF4C54"></path>
            <path d="M364.484,33.7770657 C364.942,33.9380657 365.453,34.0310657 365.977,34.1090657 C366.238,34.1480657 366.5,33.8400657 366.262,33.6210657 C365.113,32.5780657 363.817,31.4180657 365.434,30.0980657 C366.254,29.4300657 367.586,29.0430657 368.551,28.6950657 C369.524,28.3440657 370.496,27.9410657 371.508,27.7270657 C372.492,27.5160657 373.379,27.6560657 374.289,27.2070657 C374.68,27.0120657 374.602,26.3240657 374.164,26.2420657 C372.348,25.9020657 370.649,26.5900657 368.86,26.6880657 C368.231,26.7230657 367.535,26.8980657 366.848,27.1520657 C365.094,27.3750657 363.094,27.8830657 362.086,29.0310657 C360.879,29.2700657 359.652,29.3980657 358.461,29.7110657 C358.328,29.6990657 358.203,29.6880657 358.106,29.6720657 C357.055,29.4770657 356.61,30.5470657 357.016,31.1990657 C357.102,31.4340657 357.289,31.6250657 357.598,31.7070657 C358.149,31.8520657 358.692,31.9960657 359.234,32.1560657 C359.336,32.2730657 359.473,32.3710657 359.641,32.4410657 C360.391,32.7540657 361.078,32.9690657 361.86,33.0660657 C362.426,33.3010657 362.984,33.5590657 363.527,33.8550657 C363.906,34.0630657 364.25,33.9840657 364.484,33.7770657" id="Fill-120" fill="#AF4C54"></path>
            <path d="M359.242,38.6290657 C359.66,38.8440657 360.184,38.5820657 360.188,38.0860657 C360.188,37.9140657 360.145,37.7460657 360.07,37.5980657 C360.074,37.5430657 360.07,37.4810657 360.051,37.4180657 C359.34,34.9810657 357.465,33.1990657 355.203,32.0700657 C354.863,31.5860657 354.504,31.0860657 354.074,30.6640657 C354.051,30.6290657 354.024,30.5860657 354,30.5430657 C354.902,29.8200657 355.692,28.9690657 356.406,28.0430657 C356.606,27.8520657 356.789,27.6520657 356.949,27.4340657 C357.094,27.2340657 356.824,27.0510657 356.649,27.1330657 C356.055,27.3980657 355.379,27.4920657 354.774,27.7380657 C354.207,27.9690657 353.723,28.3160657 353.184,28.5940657 C352.703,28.8400657 352.199,29.0040657 351.68,29.1330657 C351.32,29.1880657 350.969,29.2580657 350.613,29.3400657 C350.106,29.4220657 349.594,29.4880657 349.086,29.5630657 C349.039,29.5630657 348.992,29.5630657 348.942,29.5590657 C348.781,29.5470657 348.641,29.5940657 348.52,29.6720657 C347.981,29.8750657 347.965,30.5230657 348.281,30.9410657 C348.289,31.0550657 348.293,31.1640657 348.301,31.2770657 C348.121,31.8520657 348.606,32.4060657 349.168,32.4220657 C351.926,32.4880657 354.926,33.6290657 357.133,35.5080657 C356.895,36.0230657 357.063,36.7970657 357.824,36.7500657 C357.86,36.7460657 357.918,36.7810657 357.981,36.8280657 C357.984,36.8440657 357.988,36.8550657 357.992,36.8710657 C357.953,36.9490657 357.934,37.0390657 357.938,37.1450657 C357.949,37.3790657 357.957,37.6020657 358.004,37.8280657 C358.004,37.8320657 358.004,37.8400657 358.004,37.8440657 C358.008,37.8550657 358.008,37.8630657 358.012,37.8750657 C358.012,37.8750657 358.012,37.8750657 358.016,37.8710657 C358.063,38.0510657 358.188,38.1720657 358.34,38.2380657 C358.36,38.2730657 358.371,38.3130657 358.391,38.3480657 C358.567,38.6880657 358.895,38.7150657 359.156,38.5740657 C359.184,38.5940657 359.211,38.6130657 359.242,38.6290657" id="Fill-121" fill="#AF4C54"></path>
            <path d="M379.731,33.4960657 C380.844,32.4730657 381.469,30.9960657 380.914,29.4410657 C380.172,27.3870657 377.34,26.5660657 375.434,26.2580657 C374.961,26.1800657 374.574,26.4060657 374.399,26.7460657 C371.863,26.5860657 369.16,27.3520657 366.895,28.1640657 C366.223,28.4060657 366.488,29.3670657 367.192,29.2340657 C369.555,28.7890657 372.051,28.2070657 374.465,28.5160657 C374.957,28.5780657 375.457,28.6800657 375.945,28.8280657 C376.258,29.0350657 376.563,29.2660657 376.813,29.5820657 C377.719,30.7460657 377.82,32.6520657 376.098,33.1370657 C374.984,33.4490657 375.289,34.9770657 376.356,35.0700657 C377.871,35.1990657 379.051,34.5120657 379.731,33.4960657" id="Fill-122" fill="#AF4C54"></path>
            <path d="M344.027,37.1450657 C344.274,37.0660657 344.36,36.7620657 344.176,36.5740657 C343.699,36.0820657 343.313,35.7190657 343.152,35.0160657 C343.031,34.5000657 342.969,33.9060657 343.195,33.4220657 C343.637,33.6640657 344.164,33.7540657 344.75,33.6020657 C345.586,33.3870657 345.5,32.2380657 344.75,31.9840657 C344.215,31.8010657 343.84,31.2380657 343.883,30.6640657 C343.926,30.0080657 344.598,29.6520657 345.184,29.6370657 C345.926,29.6210657 345.887,28.5980657 345.184,28.5120657 C344.695,28.4530657 344.188,28.3590657 343.699,28.4100657 C343.453,27.9770657 343.352,27.3240657 343.559,26.8630657 C343.758,26.4260657 344.426,25.8710657 344.879,25.7770657 C345.34,25.6840657 345.223,24.9730657 344.77,24.9690657 C343.613,24.9530657 342.379,24.8870657 341.75,26.0780657 C341.219,27.0900657 341.34,28.6020657 341.969,29.5310657 C341.992,29.5740657 342.024,29.6020657 342.055,29.6370657 C341.91,29.9490657 341.824,30.2890657 341.801,30.6410657 C341.774,31.0390657 341.828,31.4410657 341.949,31.8200657 C340.969,32.6800657 341.055,34.3360657 341.496,35.4450657 C341.875,36.4060657 342.887,37.5080657 344.027,37.1450657" id="Fill-123" fill="#AF4C54"></path>
            <path d="M329.699,31.8480657 C329.871,31.8750657 330.016,31.8130657 330.113,31.7110657 C331.188,31.9220657 332.215,32.0630657 333.352,32.0200657 C333.578,32.0120657 333.61,31.7030657 333.402,31.6330657 C330.891,30.7580657 328.063,30.0940657 325.34,30.1480657 C325.305,30.1170657 325.262,30.0860657 325.207,30.0660657 C324.52,29.8440657 324.102,29.8830657 323.824,30.1450657 C323.774,30.1480657 323.727,30.1560657 323.68,30.1800657 C323.645,30.1680657 323.61,30.1600657 323.574,30.1520657 C323.516,30.1410657 323.449,30.1480657 323.406,30.1950657 C323.274,30.3480657 323.328,30.5700657 323.348,30.7580657 C323.356,30.8280657 323.387,30.8790657 323.434,30.9100657 C323.406,31.0080657 323.379,31.1050657 323.36,31.2150657 C323.317,31.4300657 323.418,31.7270657 323.668,31.7620657 C324.539,31.8950657 325.418,32.0390657 326.301,32.0310657 C327.453,32.0200657 328.543,31.6640657 329.699,31.8480657" id="Fill-124" fill="#AF4C54"></path>
            <path d="M340.012,61.0900657 C340.879,60.7770657 341.555,60.2110657 342.348,59.7850657 C342.418,59.8790657 342.535,59.9260657 342.66,59.8320657 C344.883,58.1480657 346.258,54.8200657 345.93,52.0590657 C345.961,52.0200657 345.981,51.9730657 345.977,51.9140657 C345.953,51.3550657 345.887,50.8280657 345.707,50.3240657 C345.684,50.1720657 345.656,50.0200657 345.629,49.8630657 C345.602,49.7150657 345.469,49.3790657 345.508,49.2420657 C345.516,49.2070657 345.52,49.1680657 345.512,49.1210657 C345.512,49.1170657 345.512,49.1130657 345.508,49.1090657 C345.492,49.0200657 345.434,48.9690657 345.36,48.9450657 C345.098,47.7700657 344.797,46.6090657 344.188,45.5590657 C344.242,45.4840657 344.262,45.3830657 344.195,45.2700657 C343.793,44.5780657 343.438,43.8520657 343.051,43.1480657 C343.047,43.1290657 343.043,43.1090657 343.035,43.0940657 C342.871,42.8010657 342.695,42.5200657 342.512,42.2460657 C342.422,42.1130657 342.328,41.9810657 342.234,41.8520657 C342.231,41.8090657 342.223,41.7660657 342.192,41.7230657 C341.66,41.0160657 341.063,40.3520657 340.36,39.8160657 C340.371,39.7420657 340.352,39.6600657 340.277,39.5900657 C339.672,39.0120657 338.996,38.3520657 338.219,37.9840657 C338.215,37.9260657 338.195,37.8590657 338.133,37.8050657 C337.793,37.4810657 337.469,37.1450657 337.082,36.8830657 C336.738,36.6480657 336.371,36.4610657 335.992,36.2890657 C335.981,36.2700657 335.969,36.2500657 335.949,36.2310657 C335.305,35.6520657 334.531,35.1330657 333.688,34.9060657 C333.672,34.8950657 333.66,34.8830657 333.641,34.8710657 C333.141,34.6560657 332.703,34.3280657 332.203,34.1090657 C331.863,33.9610657 331.516,33.8670657 331.156,33.8130657 C330.879,33.6050657 330.524,33.5080657 330.203,33.4060657 C330,33.3400657 329.809,33.2460657 329.61,33.1800657 C329.395,33.1050657 329.176,33.1050657 328.961,33.0700657 C328.77,32.8160657 328.547,32.8280657 328.219,32.7380657 C327.914,32.6520657 327.625,32.5940657 327.32,32.5550657 C327.313,32.5310657 327.305,32.5080657 327.289,32.4880657 C327.285,32.4880657 327.285,32.4880657 327.281,32.4880657 C327.223,32.4810657 327.164,32.4690657 327.11,32.4610657 C327.074,32.4690657 327.039,32.4730657 326.996,32.4530657 C326.984,32.4490657 326.973,32.4450657 326.961,32.4410657 C326.887,32.4140657 326.844,32.3550657 326.824,32.2890657 C326.41,32.1990657 326.008,32.1480657 325.574,32.1450657 C325.539,32.1410657 325.508,32.1520657 325.477,32.1600657 C325.445,32.1330657 325.41,32.1050657 325.363,32.0900657 C325.297,32.0660657 325.231,32.0470657 325.164,32.0230657 C324.965,31.9020657 324.902,31.8870657 324.668,31.9060657 C324.336,31.8280657 324.008,31.7460657 323.676,31.6720657 C323.508,31.6330657 323.375,31.7030657 323.277,31.8320657 C322.793,32.4920657 322.238,33.0660657 321.59,33.5630657 C321.524,33.5630657 321.461,33.5900657 321.41,33.6480657 C321.059,34.0660657 321.059,34.7420657 320.942,35.2540657 C320.817,35.7890657 320.805,36.1640657 320.973,36.6370657 C320.984,37.1450657 321.063,37.6680657 321.203,38.1520657 C321.406,38.8360657 321.797,39.4340657 322.25,39.9880657 C322.25,40.0590657 322.27,40.1330657 322.328,40.1950657 C322.723,40.6090657 323.121,41.0230657 323.524,41.4300657 C323.59,41.5000657 323.668,41.5230657 323.738,41.5160657 C324.996,42.7660657 326.692,43.8670657 328.36,44.3590657 C328.945,44.7700657 329.703,45.0430657 330.367,45.3010657 C330.383,45.3980657 330.445,45.4880657 330.57,45.5230657 C331.606,45.8400657 332.594,46.2500657 333.555,46.7540657 C333.664,46.8200657 333.774,46.7970657 333.852,46.7340657 C334.324,46.9810657 334.762,47.1800657 335.328,47.3280657 C336.086,47.5310657 336.899,47.7810657 337.641,48.0940657 C337.606,48.2310657 337.656,48.3950657 337.832,48.4450657 C338.918,48.7540657 339.871,49.4840657 340.711,50.2190657 C341.621,51.0230657 341.879,52.0700657 342.113,53.2110657 C342.059,53.7580657 341.887,54.3050657 341.699,54.7540657 C341.488,55.2500657 341.215,55.8130657 340.84,56.2030657 C340.5,56.5590657 339.973,56.8200657 339.52,57.0590657 C339.445,56.2420657 339.156,55.5510657 338.449,55.0200657 C337.684,54.4450657 336.871,54.4180657 336.008,54.5820657 C335.965,54.5550657 335.91,54.5350657 335.84,54.5350657 C333.871,54.6410657 333.063,56.6560657 333.32,58.3980657 C333.61,60.3710657 334.922,61.5700657 336.84,61.6290657 C336.875,61.7190657 336.957,61.7810657 337.09,61.7700657 C338.086,61.6800657 339.067,61.4300657 340.012,61.0900657" id="Fill-125" fill="#528CB7"></path>
            <path d="M323.586,30.1720657 C324.078,30.0980657 324.578,30.0510657 325.059,29.9410657 C325.481,29.8480657 325.863,29.6480657 326.285,29.5660657 C326.332,29.5590657 326.367,29.5350657 326.391,29.5080657 C326.68,29.4770657 326.965,29.4380657 327.254,29.3950657 C327.266,29.3910657 327.27,29.3870657 327.281,29.3870657 C327.984,29.2770657 328.633,29.0390657 329.313,28.7810657 C330.141,28.4690657 331.051,27.9530657 331.926,27.7970657 C331.992,27.7810657 332.063,27.7730657 332.133,27.7620657 C332.207,27.7460657 332.25,27.7110657 332.281,27.6640657 C333.051,27.3200657 333.781,26.9410657 334.547,26.6210657 C334.688,26.5630657 334.734,26.4300657 334.715,26.3130657 C334.938,26.1880657 335.16,26.0630657 335.383,25.9410657 C335.465,26.0120657 335.582,26.0430657 335.703,25.9840657 C336.227,25.7310657 336.641,25.3950657 337.074,25.0160657 C337.613,24.5430657 338.156,24.1760657 338.742,23.7620657 C339.707,23.0780657 340.313,22.4060657 340.871,21.4180657 C340.938,21.4220657 341.008,21.3950657 341.067,21.3240657 C341.887,20.3320657 342.559,19.1840657 343.223,18.0820657 C343.547,17.5470657 343.867,17.0080657 344.137,16.4450657 C344.438,15.8160657 344.527,15.1290657 344.793,14.4960657 C344.809,14.4770657 344.832,14.4570657 344.848,14.4300657 C345.274,13.6210657 345.422,12.7620657 345.606,11.8750657 C345.789,10.9730657 346.012,10.1210657 345.961,9.19106567 C345.871,7.53906567 345.484,5.80506567 344.461,4.48106567 C344.504,4.41406567 344.516,4.33206567 344.461,4.23806567 C344.047,3.50806567 343.238,2.85906567 342.586,2.34406567 C341.887,1.78506567 341.16,1.46906567 340.371,1.11306567 C340.375,1.00006567 340.324,0.883065665 340.192,0.832065665 C339.234,0.473065665 338.238,0.160065665 337.203,0.191065665 C336.274,0.223065665 335.481,0.586065665 334.676,1.02706567 C334.539,1.10206567 334.524,1.23806567 334.567,1.35206567 C334.195,1.68806567 333.922,2.05506567 333.707,2.53906567 C333.68,2.59806567 333.68,2.65206567 333.684,2.70706567 C333.41,3.32006567 333.258,3.98406567 333.328,4.59806567 C333.438,5.57406567 333.813,6.65606567 334.781,7.05106567 C336.414,7.70706567 339.457,6.84806567 339.125,4.72706567 C341.047,3.71506567 342.313,7.60206567 342.317,8.88706567 C342.317,8.94906567 342.34,8.99606567 342.367,9.03506567 C342.36,9.10206567 342.352,9.16406567 342.34,9.23106567 C342.227,9.80906567 342.055,10.3670657 341.926,10.9410657 C341.899,10.9610657 341.871,10.9840657 341.848,11.0160657 C341.078,12.0630657 340.211,12.8400657 338.992,13.3200657 C338.133,13.6640657 337.32,14.0430657 336.508,14.4810657 C335.809,14.7890657 335.07,14.9810657 334.379,15.3200657 C334.36,15.3200657 334.34,15.3200657 334.32,15.3280657 C333.598,15.5980657 332.891,15.9020657 332.184,16.2110657 C332.137,16.1800657 332.078,16.1640657 332.012,16.1760657 C331.02,16.3320657 330.133,17.0780657 329.215,17.4570657 C328.555,17.7310657 327.961,18.0310657 327.402,18.4450657 C327.352,18.4340657 327.297,18.4410657 327.242,18.4810657 C327.051,18.6130657 326.86,18.7460657 326.664,18.8790657 C326.629,18.8790657 326.59,18.8870657 326.551,18.9060657 C326.102,19.1370657 325.676,19.4410657 325.266,19.7810657 C323.77,20.6990657 322.266,21.6840657 321.754,23.4220657 C321.746,23.4490657 321.75,23.4730657 321.758,23.4920657 C321.106,24.8090657 321.074,26.2970657 321.555,27.8590657 C321.578,27.9380657 321.629,27.9880657 321.688,28.0120657 C321.953,28.8950657 322.922,29.1170657 323.285,30.0000657 C323.34,30.1370657 323.442,30.1950657 323.586,30.1720657" id="Fill-126" fill="#528CB7"></path>
            <path d="M323.063,30.1090657 C323.063,30.1170657 323.067,30.1210657 323.07,30.1290657 C323.086,30.1370657 323.102,30.1450657 323.117,30.1560657 C323.129,30.1600657 323.141,30.1760657 323.149,30.1910657 C323.156,30.1910657 323.16,30.1910657 323.164,30.1910657 C323.309,30.2110657 323.453,30.2230657 323.602,30.2310657 C323.613,30.2230657 323.625,30.2150657 323.637,30.2030657 C323.719,30.1990657 323.801,30.1800657 323.879,30.1410657 C324.047,30.2190657 324.242,30.2190657 324.418,30.0820657 C325.875,28.9610657 327.266,27.9180657 329.031,27.3090657 C329.453,27.1600657 329.285,26.5040657 328.84,26.6250657 C327.844,26.8980657 326.84,27.2380657 325.895,27.6840657 C326.867,26.6170657 327.965,25.7110657 329.356,25.0080657 C329.633,24.8630657 329.438,24.3950657 329.141,24.4960657 C327.801,24.9690657 326.473,25.6720657 325.332,26.5940657 C326.606,24.3160657 328.82,22.6560657 331.586,22.4220657 C331.981,22.3910657 331.984,21.7700657 331.586,21.8010657 C329.199,21.9650657 327.043,22.8670657 325.469,24.3870657 C327.192,22.0120657 329.883,20.4180657 332.992,19.9960657 C333.223,19.9690657 333.164,19.5900657 332.938,19.5940657 C330.961,19.6330657 329.145,20.1760657 327.594,21.1050657 C328.508,20.3870657 329.418,19.7770657 330.149,19.3280657 C333.309,17.3830657 337.238,17.1760657 340.293,14.9960657 C342.531,13.3980657 343.934,10.8980657 343.52,8.09806567 C343.192,5.88306567 341.481,2.80506567 338.879,3.08206567 C338.692,3.10206567 338.555,3.27706567 338.559,3.44106567 C338.379,3.47306567 338.219,3.62506567 338.274,3.86306567 C338.652,5.53506567 336.391,6.82006567 335.277,5.37506567 C334.297,4.10206567 334.981,2.65206567 336.582,2.51606567 C337.699,2.41806567 337.719,0.672065665 336.582,0.750065665 C335.133,0.848065665 333.754,1.53106567 333.254,2.99206567 C332.797,4.32006567 333.356,5.80106567 334.36,6.72706567 C335.356,7.64506567 336.856,7.88706567 337.981,7.05906567 C339.11,6.22706567 339.344,5.10906567 338.992,3.85206567 C341.879,5.62106567 342.746,9.74606567 340.367,12.3400657 C337.945,14.9810657 333.969,15.3050657 330.836,16.6560657 C329.969,17.0310657 329.086,17.5120657 328.227,18.0630657 C327.977,17.9140657 327.68,17.8590657 327.367,17.9650657 C325.082,18.7110657 322.77,20.6910657 321.758,22.8870657 C321.172,24.1520657 321.063,25.3130657 321.293,26.4260657 C321.192,27.2070657 321.238,28.0080657 321.449,28.8130657 C322.195,28.9140657 322.875,29.3790657 323.063,30.1090657" id="Fill-127" fill="#6B527C"></path>
            <path d="M342.668,53.1290657 C342.938,50.1990657 341.149,47.9880657 338.637,46.7270657 C335.445,45.1250657 331.953,44.2500657 328.789,42.5470657 C327.879,42.0590657 326.91,41.5230657 326,40.9060657 C325.516,40.1450657 325.133,39.4300657 324.879,38.7070657 C326.176,40.3980657 328.106,41.6050657 330.234,42.0740657 C330.445,42.1170657 330.61,41.8050657 330.391,41.7070657 C328.356,40.8130657 326.922,39.4380657 325.93,37.7310657 C327.063,38.5550657 328.305,39.0860657 329.695,39.4490657 C329.988,39.5270657 330.199,39.0860657 329.91,38.9410657 C328.238,38.1370657 326.649,36.9810657 325.539,35.4960657 C326.652,36.2930657 328.004,36.7700657 329.34,37.0350657 C329.734,37.1170657 329.902,36.5470657 329.508,36.4300657 C327.945,35.9610657 326.777,34.9060657 325.754,33.7150657 C325.817,33.6800657 325.883,33.6480657 325.949,33.6170657 C326.82,34.0200657 327.738,34.3050657 328.684,34.5550657 C329.051,34.6520657 329.203,34.0980657 328.84,33.9840657 C328.227,33.7930657 327.656,33.5120657 327.11,33.1840657 C327.59,33.2540657 328.067,33.3480657 328.543,33.5080657 C328.918,33.6330657 329.051,33.0660657 328.703,32.9220657 C327.613,32.4770657 326.516,31.9770657 325.34,31.8130657 C325.301,31.8090657 325.262,31.8090657 325.227,31.8090657 C324.996,31.6720657 324.758,31.7030657 324.582,31.8280657 C324.195,31.8050657 323.824,31.8280657 323.524,31.9690657 C323.504,31.9810657 323.484,31.9920657 323.461,32.0040657 C323.445,32.0040657 323.43,32.0080657 323.414,32.0080657 C323.121,32.0310657 322.938,32.2110657 322.871,32.4220657 C322.598,32.6560657 322.34,32.9340657 322.113,33.1880657 C321.817,33.1600657 321.524,33.3050657 321.438,33.6800657 C321.375,33.9060657 321.32,34.1370657 321.274,34.3670657 C320.828,35.4100657 320.906,36.6950657 321.047,37.8090657 C321.047,37.8130657 321.047,37.8160657 321.047,37.8200657 C321.055,37.8790657 321.063,37.9380657 321.07,37.9960657 C321.098,38.1910657 321.203,38.3200657 321.348,38.3950657 C321.438,38.7150657 321.543,39.0270657 321.68,39.3360657 C322.621,41.4300657 324.734,42.5860657 326.625,43.6990657 C326.692,43.7620657 326.754,43.8240657 326.82,43.8910657 C329.68,45.3980657 332.734,46.4570657 335.797,47.4690657 C337.524,48.0390657 339.395,48.6600657 340.543,50.1600657 C341.672,51.6370657 341.883,56.8360657 339.172,56.9340657 C338.852,56.9450657 338.824,57.3550657 339.098,57.4650657 C341.578,58.4530657 342.504,54.9180657 342.668,53.1290657" id="Fill-128" fill="#6B527C"></path>
            <path d="M322.07,32.8480657 C322.617,32.5940657 323.164,32.0940657 323.004,31.5630657 C323.414,30.3910657 322.805,29.1370657 321.586,28.8520657 C321.52,28.8090657 321.449,28.7730657 321.379,28.7420657 C320.707,28.4610657 319.852,28.5200657 319.215,28.8870657 C318.5,29.2930657 318.227,30.2030657 318.223,30.9840657 C318.219,31.2700657 318.274,31.5200657 318.363,31.7420657 C318.367,31.8360657 318.379,31.9340657 318.399,32.0270657 C318.668,33.4490657 320.988,33.6130657 322.07,32.8480657" id="Fill-129" fill="#528CB7"></path>
            <path d="M320.219,33.3280657 C320.625,33.3010657 321.031,33.1640657 321.36,32.9570657 C321.754,32.7030657 321.402,32.0940657 320.988,32.3240657 C320.746,32.4530657 320.539,32.4490657 320.34,32.3590657 C320.285,32.2890657 320.215,32.2230657 320.117,32.1760657 C319.481,31.8590657 319.617,30.9730657 319.969,30.4220657 C320.11,30.4300657 320.258,30.3710657 320.383,30.2190657 C320.457,30.1250657 320.543,30.0120657 320.649,29.9300657 C320.781,29.8830657 320.922,29.8440657 321.067,29.8130657 C321.078,29.8090657 321.086,29.8050657 321.094,29.8050657 C321.098,29.8050657 321.102,29.8050657 321.106,29.8010657 C321.16,29.7850657 321.211,29.7660657 321.258,29.7380657 C321.828,29.7340657 322.363,30.0310657 322.492,30.6840657 C322.567,31.0510657 323.09,30.9380657 323.113,30.6020657 C323.188,29.4570657 322.391,28.8160657 321.449,28.6600657 C321.332,28.5120657 321.16,28.4100657 320.914,28.4020657 C318.36,28.3240657 316.996,32.2540657 319.387,33.3910657 C319.395,33.3950657 319.399,33.3980657 319.406,33.4020657 C319.461,33.4260657 319.516,33.4530657 319.574,33.4770657 C319.832,33.5740657 320.059,33.4920657 320.219,33.3280657" id="Fill-130" fill="#6B527C"></path>
            <path d="M81.66,32.0550657 C81.66,31.9960657 81.649,31.9410657 81.629,31.8910657 C82.192,30.5550657 81.547,28.8910657 80.445,27.9380657 C80.391,27.8910657 80.336,27.8670657 80.277,27.8520657 C80.234,27.7340657 80.18,27.6210657 80.117,27.5160657 C79.707,26.8550657 78.875,26.5510657 78.164,26.4180657 C76.461,26.0980657 74.832,26.9100657 74.477,28.7340657 C74.309,29.5820657 74.602,30.4140657 74.551,31.2190657 C74.492,32.1800657 74.664,32.7070657 75.258,33.5120657 C75.781,34.2190657 76.336,34.6520657 76.926,34.8670657 C77,35.0510657 77.164,35.1990657 77.43,35.2030657 C77.645,35.2110657 77.848,35.1990657 78.039,35.1800657 C79.695,35.0350657 80.36,34.0980657 81.449,32.8050657 C81.484,32.7730657 81.52,32.7460657 81.551,32.6990657 C81.59,32.6450657 81.633,32.5900657 81.672,32.5310657 C81.668,32.5270657 81.664,32.5270657 81.66,32.5230657 C81.742,32.3590657 81.734,32.1950657 81.66,32.0550657" id="Fill-131" fill="#F79764"></path>
            <path d="M74.465,31.7230657 C74.477,31.0200657 74.535,30.3280657 74.625,29.6330657 C74.656,29.4140657 74.426,29.2500657 74.242,29.2380657 C69.524,28.9810657 64.813,28.3280657 60.121,27.7620657 C60.024,27.7500657 59.942,27.7700657 59.879,27.8090657 C59.176,27.4880657 58.473,27.3590657 57.645,27.1950657 C56.379,26.9450657 55.145,26.4300657 53.938,25.9690657 C52.149,25.2810657 50.66,24.5660657 49.301,23.5660657 C48.516,22.7850657 47.715,22.0120657 46.992,21.1760657 C46.117,20.1720657 45.906,18.9100657 45.422,17.7070657 C45.367,17.5740657 45.274,17.4880657 45.168,17.4410657 C45.156,17.3200657 45.137,17.1950657 45.125,17.0700657 C45.106,16.7770657 44.66,16.7730657 44.676,17.0700657 C44.68,17.2030657 44.692,17.3360657 44.699,17.4690657 C44.539,17.5550657 44.445,17.7310657 44.535,17.9570657 C44.633,18.1880657 44.715,18.4260657 44.793,18.6640657 C45.039,21.1130657 45.617,23.3670657 46.695,25.6130657 C44.891,25.0550657 42.688,24.0160657 41.707,22.4220657 C41.57,22.1410657 41.442,21.8590657 41.324,21.5740657 C41.242,21.3790657 41.074,21.3050657 40.914,21.3160657 C40.871,21.1290657 40.789,20.9610657 40.586,20.8520657 C40.492,20.8050657 40.363,20.8130657 40.285,20.8910657 C39.902,21.3010657 40.223,21.7540657 40.559,22.0740657 C40.606,22.1170657 40.656,22.1370657 40.707,22.1450657 C40.805,22.4380657 40.93,22.7270657 41.09,22.9920657 C41.082,23.0780657 41.09,23.1640657 41.141,23.2620657 C42.125,25.0630657 43.129,27.1020657 44.676,28.4880657 C45.754,29.4530657 46.832,30.5510657 48.145,31.1910657 C48.067,31.2540657 47.992,31.3130657 47.918,31.3750657 C47.785,31.2110657 47.559,31.1210657 47.371,31.2620657 C46.789,31.6910657 46.297,32.1640657 45.875,32.7030657 C45.402,33.0590657 44.922,33.3980657 44.52,33.8440657 C44.266,34.1210657 44.051,34.4300657 43.844,34.7380657 C43.738,34.7380657 43.633,34.7770657 43.543,34.8750657 C42.949,35.5390657 42.473,36.1990657 42.039,36.9840657 C41.969,37.1170657 41.961,37.2380657 41.996,37.3440657 C41.496,38.1250657 41,38.9100657 40.524,39.7110657 C40.332,40.0040657 40.781,40.3630657 41.012,40.0940657 C41.36,39.6840657 41.688,39.2660657 42.004,38.8360657 C43.234,37.5200657 44.789,36.6170657 46.516,36.0980657 C45.367,38.4880657 44.914,41.0630657 44.574,43.7150657 C44.516,44.1800657 45.285,44.2770657 45.379,43.8240657 C46.527,38.3980657 52.137,35.9060657 56.891,34.4840657 C56.949,34.5470657 57.027,34.5940657 57.141,34.5740657 C60.004,34.1370657 62.828,33.5040657 65.703,33.1130657 C66.016,33.0740657 66.352,33.0200657 66.703,32.9610657 C67.168,32.9410657 67.633,32.9180657 68.102,32.8950657 C68.156,33.0660657 68.301,33.1950657 68.539,33.1720657 C70.449,32.9810657 72.399,32.6640657 74.317,32.6210657 C74.84,32.6090657 74.926,31.9060657 74.465,31.7230657" id="Fill-132" fill="#AF4C54"></path>
            <path d="M38.817,20.1370657 C38.106,16.6720657 37.891,12.5700657 38.531,9.07006567 C38.879,7.16406567 40.024,5.13706567 41.668,4.09806567 C43.766,2.77706567 47.817,3.12506567 47.41,6.47306567 C47.402,6.48406567 47.391,6.49206567 47.383,6.50806567 C46.508,7.82006567 44.504,7.30906567 44,5.90606567 C43.922,5.69906567 43.567,5.70706567 43.586,5.96506567 C43.602,6.14806567 43.645,6.32006567 43.699,6.48406567 C43.508,6.60906567 43.402,6.84806567 43.574,7.09406567 C45.012,9.12506567 48.297,9.33606567 49.102,6.57006567 C49.91,3.80506567 46.074,1.43006567 43.734,1.62506567 C42.203,1.75406567 40.414,2.83606567 39.285,3.84406567 C37.86,5.11706567 37.383,7.00806567 36.914,8.80506567 C35.996,12.3440657 36.664,17.2270657 38.613,20.2580657 C38.688,20.3670657 38.84,20.2460657 38.817,20.1370657" id="Fill-133" fill="#AF4C54"></path>
            <path d="M48.449,57.5430657 C48.524,57.5000657 48.59,57.4300657 48.625,57.3200657 C48.664,57.1910657 48.707,57.0590657 48.746,56.9300657 C48.785,56.8090657 48.766,56.7030657 48.715,56.6250657 C48.723,56.5230657 48.727,56.4260657 48.727,56.3240657 C48.813,56.2660657 48.871,56.1760657 48.867,56.0510657 C48.848,55.4410657 48.734,55.0350657 48.445,54.5310657 C48.442,54.4530657 48.422,54.3750657 48.363,54.3010657 C47.02,52.5390657 44.192,52.8440657 43.785,55.2310657 C43.746,55.4570657 44.059,55.6370657 44.18,55.3980657 C44.77,54.2030657 45.981,53.6560657 47.012,54.1250657 C47.012,54.1250657 47.012,54.1290657 47.012,54.1290657 C47.492,54.5230657 47.793,55.0310657 47.906,55.6450657 C47.93,55.7340657 47.988,55.8010657 48.059,55.8360657 C48.078,56.1840657 48.039,56.5270657 47.942,56.8670657 C47.133,58.9810657 44.387,59.4960657 42.543,58.6600657 C41.242,58.0700657 40.098,56.7890657 39.309,55.5940657 C38.305,54.0740657 37.875,52.3590657 37.731,50.5940657 C37.715,50.0550657 37.715,49.5080657 37.723,48.9650657 C37.777,48.8980657 37.82,48.8200657 37.828,48.7150657 C37.973,46.5900657 37.942,44.5430657 38.32,42.4380657 C38.34,42.3160657 38.184,42.2340657 38.117,42.3520657 C37.848,42.8320657 37.652,43.3830657 37.508,43.9650657 C36.688,46.0160657 36.531,47.9570657 36.715,50.1720657 C36.613,50.6410657 36.481,51.1130657 36.508,51.6050657 C36.547,52.3130657 36.738,53.0740657 37.149,53.6560657 C37.336,54.2230657 37.555,54.7770657 37.828,55.3280657 C37.848,55.3670657 37.867,55.4020657 37.891,55.4300657 C38.707,57.1950657 39.871,58.8200657 41.664,59.3710657 C41.77,59.4020657 41.867,59.3980657 41.949,59.3670657 C44.277,60.4060657 47.125,59.9060657 48.449,57.5430657" id="Fill-134" fill="#AF4C54"></path>
            <path d="M32.457,38.7890657 C32.641,38.4770657 32.797,38.1480657 32.938,37.8160657 C34.18,36.9610657 34.996,35.6840657 36.199,34.7700657 C36.621,34.4490657 37.055,34.1560657 37.496,33.8910657 C37.598,34.0550657 37.797,34.1450657 38.004,34.0040657 C38.285,33.8240657 38.567,33.6600657 38.856,33.5040657 C40.387,32.6950657 42.035,32.3670657 43.805,32.4140657 C43.93,32.4180657 44.027,32.3710657 44.098,32.3050657 C44.793,32.3160657 45.617,32.4220657 46.262,32.2380657 C46.914,32.0590657 47.559,31.5740657 48.063,31.1290657 C48.317,30.8980657 48.152,30.5120657 47.875,30.4140657 C47.258,30.1910657 46.688,29.9220657 46.121,29.5900657 C46.113,29.5820657 46.106,29.5820657 46.098,29.5740657 C46.004,29.4610657 45.863,29.3790657 45.684,29.4060657 C44.242,29.6050657 42.797,29.2730657 41.363,29.0470657 C41.332,28.9140657 41.238,28.8050657 41.059,28.7770657 C37.25,28.2230657 34.524,25.4380657 32.215,22.5660657 C32.043,22.3550657 31.781,22.6250657 31.871,22.8360657 C31.891,22.8750657 31.91,22.9100657 31.926,22.9490657 C32.375,26.1950657 33.996,28.8520657 36.457,30.7620657 C35.442,31.3130657 34.516,32.3710657 33.957,33.1640657 C32.871,34.7070657 32.254,36.8090657 32.055,38.6800657 C32.031,38.9060657 32.356,38.9650657 32.457,38.7890657" id="Fill-135" fill="#528CB7"></path>
            <path d="M33.11,27.7810657 C27.524,25.6990657 23.117,18.1130657 28.051,13.1480657 C28.438,12.9490657 28.813,12.8010657 29.09,12.7700657 C29.57,12.7190657 30.207,12.8590657 30.762,13.1370657 C31.18,13.6840657 31.418,14.1520657 31.488,14.5430657 C31.512,14.5900657 31.531,14.6450657 31.535,14.7110657 C31.59,15.6720657 30.84,16.3910657 30.004,16.3790657 C29.992,16.3710657 29.981,16.3670657 29.969,16.3590657 C29.824,16.2620657 29.688,16.2540657 29.57,16.3010657 C29.461,16.2620657 29.352,16.2230657 29.246,16.1600657 C29.156,16.1020657 29.102,16.0230657 29.078,15.9410657 C28.883,15.9140657 28.703,16.1880657 28.879,16.3480657 C28.918,16.3870657 28.961,16.4180657 29,16.4490657 C28.953,16.6480657 29.027,16.8710657 29.277,16.9920657 C29.313,17.0820657 29.363,17.1640657 29.457,17.2310657 C30.602,18.0200657 31.734,17.5390657 32.586,16.6720657 C32.727,16.6480657 32.856,16.5550657 32.91,16.3590657 C32.926,16.3200657 32.942,16.2810657 32.957,16.2420657 C33.02,16.1330657 33.024,16.0120657 32.992,15.9020657 C33.02,15.6680657 33.031,15.4340657 33.043,15.1880657 C33.051,14.9730657 32.895,14.8870657 32.738,14.9020657 C32.852,13.0390657 30.586,11.3550657 28.399,11.8160657 C28.285,11.8400657 28.164,11.8750657 28.043,11.9140657 C27.887,11.7380657 27.625,11.6410657 27.383,11.7660657 C24.906,13.0430657 23.172,15.0080657 23.473,17.9690657 C23.656,19.7810657 24.324,21.4530657 25.258,22.9810657 C25.254,23.0630657 25.281,23.1560657 25.348,23.2500657 C25.656,23.6720657 25.973,24.0860657 26.297,24.4920657 C26.719,25.0430657 27.164,25.5700657 27.633,26.0740657 C27.664,26.1050657 27.695,26.1250657 27.727,26.1480657 C28.52,26.9530657 29.543,27.3750657 30.637,27.5230657 C31.356,27.9020657 32.129,28.1990657 32.942,28.4020657 C33.336,28.5310657 33.488,27.9220657 33.11,27.7810657" id="Fill-136" fill="#528CB7"></path>
            <path d="M29.664,44.6990657 C29.199,44.8440657 29.313,45.5040657 29.699,45.5700657 C29.715,45.5630657 29.727,45.5510657 29.742,45.5470657 C30.594,45.3280657 31.445,45.4960657 31.86,46.3590657 C32.086,46.8240657 31.996,47.2420657 31.746,47.5780657 C31.668,47.9300657 31.371,48.2730657 30.84,48.6050657 C30.293,48.9410657 29.695,49.0900657 29.051,49.0390657 C28.774,49.0310657 28.492,48.9880657 28.215,48.9220657 C26.301,47.0940657 25.172,44.9880657 25.68,42.2230657 C26.02,40.3790657 27.012,38.1370657 28.391,36.8200657 C28.449,36.8200657 28.508,36.8050657 28.563,36.7620657 C29.164,36.2930657 29.715,35.7810657 30.258,35.2540657 C30.922,34.9410657 31.594,34.6720657 32.195,34.4340657 C32.695,34.2340657 32.477,33.4180657 31.973,33.6170657 C30.305,34.2850657 28.344,35.1170657 27.141,36.5080657 C27.09,36.5430657 27.043,36.5740657 26.981,36.6370657 C26.914,36.7030657 26.883,36.7770657 26.879,36.8480657 C26.524,37.1640657 26.18,37.5000657 25.887,37.9140657 C24.945,39.2310657 24.27,40.8160657 23.914,42.3980657 C23.262,45.3050657 23.813,47.9610657 26.625,49.3520657 C28.617,50.3360657 31.465,50.2110657 32.567,47.9570657 C33.617,45.8090657 31.75,44.0430657 29.664,44.6990657" id="Fill-137" fill="#528CB7"></path>
            <path d="M34.551,32.5430657 C35.32,32.1520657 35.067,31.5780657 36.27,31.2620657 C36.578,31.1840657 36.625,30.7460657 36.36,30.5860657 C35.125,29.8400657 34.813,28.8750657 33.586,29.1600657 C33.02,29.1520657 32.426,29.1840657 31.844,29.2620657 C31.61,29.2070657 31.363,29.2270657 31.129,29.2270657 C30.906,29.2310657 30.688,29.2310657 30.465,29.2380657 C30.457,29.2340657 30.445,29.2340657 30.438,29.2340657 C28.418,29.2110657 26.02,29.1760657 23.992,29.7620657 C23.938,29.5820657 23.785,29.4450657 23.527,29.4610657 C21.27,29.6090657 18.762,29.4880657 16.512,29.9920657 C16.43,29.8870657 16.305,29.8130657 16.125,29.8200657 C14.227,29.8790657 12.36,29.9690657 10.481,30.0980657 C10.402,30.0270657 10.297,29.9730657 10.164,29.9650657 C9.215,29.8950657 8.297,29.8830657 7.367,29.9490657 C7.305,29.8830657 7.223,29.8240657 7.102,29.8010657 C6.035,29.5780657 4.891,29.3710657 3.797,29.4490657 C2.801,29.5230657 1.863,30.0040657 0.91,30.2770657 C0.438,30.4140657 0.379,31.0550657 0.777,31.3130657 C2.43,32.3870657 4.274,32.6410657 6.012,31.9180657 C6.086,31.9530657 6.168,31.9770657 6.266,31.9770657 C7.715,31.9570657 9.11,31.7770657 10.52,31.7110657 C10.524,31.7150657 10.527,31.7150657 10.531,31.7150657 C10.895,31.7500657 11.289,31.7190657 11.684,31.6910657 C12.121,31.6990657 12.563,31.7150657 13.008,31.7620657 C13.184,31.7810657 13.313,31.7150657 13.395,31.6050657 C15.625,31.9570657 17.848,31.9490657 20.086,31.7110657 C20.551,32.2850657 22.09,32.0740657 22.645,32.1330657 C24.582,32.3240657 26.524,32.1600657 28.461,32.2700657 C28.547,32.2730657 28.617,32.2460657 28.68,32.2110657 C30.199,32.3830657 31.727,32.5200657 33.254,32.5900657 C33.629,32.6050657 34.188,32.7270657 34.551,32.5430657" id="Fill-138" fill="#6B527C"></path>
            <path d="M21.332,29.2030657 C20.16,28.8590657 18.668,28.2070657 17.762,27.3670657 C16.801,26.4690657 16.445,25.2270657 16.418,23.9530657 C17.664,22.0940657 16.852,18.3130657 14.152,18.6410657 C13.024,18.7770657 11.785,19.7850657 11.473,20.8950657 C11.414,21.1130657 11.387,21.3280657 11.379,21.5390657 C11.34,21.5780657 11.313,21.6290657 11.297,21.6910657 C11.27,21.7380657 11.25,21.7970657 11.242,21.8630657 C11.238,21.9300657 11.231,21.9960657 11.223,22.0630657 C11.219,22.1290657 11.231,22.1840657 11.254,22.2310657 C11.301,24.1450657 12.942,25.9840657 14.32,27.1170657 C14.387,27.1720657 14.461,27.1990657 14.531,27.2150657 C16.035,28.5120657 17.906,29.4380657 19.731,29.8240657 C19.934,29.8710657 20.094,29.7850657 20.188,29.6520657 C20.59,29.7190657 20.981,29.7150657 21.332,29.6090657 C21.527,29.5510657 21.527,29.2620657 21.332,29.2030657" id="Fill-139" fill="#528CB7"></path>
            <path d="M19.906,32.3710657 C19.539,32.3750657 19.176,32.4530657 18.82,32.5900657 C18.668,32.3550657 18.379,32.2070657 18.07,32.3830657 C16.035,33.5470657 14.164,34.5980657 12.758,36.3320657 C12.668,36.3590657 12.582,36.4100657 12.512,36.5000657 C12.231,36.8630657 12.047,37.2070657 11.875,37.6130657 C11.867,37.6250657 11.863,37.6330657 11.856,37.6410657 C11.856,37.6410657 11.86,37.6410657 11.86,37.6450657 C11.848,37.6720657 11.832,37.6990657 11.82,37.7310657 C11.809,37.7540657 11.813,37.7730657 11.809,37.7970657 C11.234,38.9450657 10.914,40.1020657 11.606,41.4020657 C11.66,41.5080657 11.75,41.5510657 11.844,41.5590657 C11.934,41.7380657 12.043,41.9060657 12.188,42.0510657 C13.035,42.8950657 14.766,43.2730657 15.801,42.6020657 C16.801,41.9490657 16.789,40.6640657 16.68,39.5860657 C16.555,38.3520657 16.266,37.3320657 16.621,36.1050657 C16.813,35.4570657 17.363,34.5780657 18.039,33.8710657 C18.129,33.8160657 18.211,33.7580657 18.293,33.7030657 C18.391,33.6370657 18.453,33.5470657 18.488,33.4530657 C18.5,33.4450657 18.512,33.4380657 18.52,33.4300657 C18.563,33.4060657 18.606,33.3870657 18.649,33.3670657 C18.758,33.3200657 18.82,33.2460657 18.867,33.1640657 C19.227,32.9140657 19.598,32.7420657 19.949,32.6910657 C20.133,32.6680657 20.086,32.3670657 19.906,32.3710657" id="Fill-140" fill="#528CB7"></path>
            <path d="M60.078,32.6090657 C63.535,31.4880657 67.067,31.4380657 70.621,31.4140657 C68.477,31.5940657 66.336,31.8980657 64.25,32.2890657 C64.074,32.3240657 64.113,32.6210657 64.293,32.6130657 C68.145,32.3910657 71.996,32.2700657 75.84,32.0510657 C76.352,32.0200657 76.36,31.2500657 75.84,31.2380657 C75.754,31.2380657 75.664,31.2380657 75.578,31.2380657 C75.856,31.0550657 75.836,30.5630657 75.516,30.4650657 C75.52,30.2700657 75.399,30.0780657 75.152,30.0900657 C69.969,30.3090657 64.703,29.8200657 59.66,28.5780657 C59.488,28.5390657 59.418,28.7970657 59.586,28.8480657 C62.606,29.7190657 65.625,30.3050657 68.688,30.6170657 C65.688,30.7070657 62.723,31.0080657 59.945,32.2970657 C59.774,32.3790657 59.895,32.6720657 60.078,32.6090657" id="Fill-141" fill="#F79764"></path>
            <path d="M75.711,29.9380657 C76.203,29.9060657 76.215,29.1410657 75.711,29.1480657 C71.93,29.1990657 68.168,29.2380657 64.41,28.6760657 C64.227,28.6480657 64.145,28.9300657 64.332,28.9650657 C68.094,29.6410657 71.883,30.1600657 75.711,29.9380657" id="Fill-142" fill="#F79764"></path>
            <path d="M20.906,29.9840657 C21.32,29.9260657 21.227,29.1800657 20.805,29.2340657 C19.094,29.4570657 17.387,27.6840657 16.16,26.5940657 C14.781,25.3630657 14.125,23.8280657 14.5,21.9610657 C14.563,21.6450657 14.09,21.5080657 14.02,21.8240657 C13.594,23.7500657 14.129,25.5510657 15.531,26.9140657 C16.945,28.2890657 18.793,30.2770657 20.906,29.9840657" id="Fill-143" fill="#6B527C"></path>
            <path d="M14.086,39.7930657 C15.141,36.4770657 17.793,33.6600657 20.762,31.9730657 C21.149,31.7500657 20.887,31.1250657 20.461,31.2460657 C18.621,31.7660657 17.203,33.4570657 15.977,34.8550657 C14.781,36.2150657 13.68,37.8630657 13.863,39.7620657 C13.875,39.8870657 14.043,39.9220657 14.086,39.7930657" id="Fill-144" fill="#6B527C"></path>
            <path d="M47.332,31.3950657 C46.793,31.1450657 46.242,30.9490657 45.715,30.6680657 C45.227,30.4100657 44.762,30.1370657 44.227,29.9880657 C43.969,29.9140657 43.86,30.3160657 44.117,30.3980657 C44.707,30.5900657 45.188,30.9260657 45.672,31.3050657 C46.082,31.6250657 46.527,31.9880657 47.047,32.0780657 C47.422,32.1450657 47.742,31.5860657 47.332,31.3950657" id="Fill-145" fill="#6B527C"></path>
            <path d="M45.461,31.6720657 C44.922,31.3870657 44.313,31.2420657 43.758,30.9880657 C43.137,30.7070657 42.57,30.3950657 42.031,29.9690657 C41.832,29.8130657 41.547,30.0900657 41.75,30.2580657 C42.711,31.0700657 43.902,32.1410657 45.172,32.3590657 C45.559,32.4260657 45.86,31.8830657 45.461,31.6720657" id="Fill-146" fill="#6B527C"></path>
            <path d="M43.195,31.8630657 C42.344,31.4650657 41.508,31.0550657 40.875,30.3320657 C40.676,30.1090657 40.356,30.4380657 40.551,30.6600657 C41.203,31.4020657 41.891,32.1370657 42.789,32.5660657 C43.254,32.7890657 43.664,32.0820657 43.195,31.8630657" id="Fill-147" fill="#6B527C"></path>
            <path d="M40.754,31.7890657 C40.488,31.6680657 40.207,31.5900657 39.945,31.4530657 C39.676,31.3130657 39.442,31.1050657 39.215,30.9020657 C39.012,30.7150657 38.707,31.0200657 38.91,31.2110657 C39.152,31.4340657 39.41,31.6210657 39.66,31.8240657 C39.899,32.0160657 40.149,32.2340657 40.418,32.3710657 C40.805,32.5590657 41.141,31.9610657 40.754,31.7890657" id="Fill-148" fill="#6B527C"></path>
            <path d="M39.371,32.5160657 C38.828,32.3550657 38.301,32.0040657 37.844,31.6720657 C37.672,31.5510657 37.473,31.8200657 37.621,31.9650657 C38.086,32.4140657 38.606,32.7460657 39.117,33.1290657 C39.488,33.4060657 39.863,32.6560657 39.371,32.5160657" id="Fill-149" fill="#6B527C"></path>
            <path d="M38.281,33.2030657 C38.137,33.1210657 37.977,33.0740657 37.832,32.9920657 C37.688,32.9140657 37.547,32.8240657 37.406,32.7420657 C37.145,32.5900657 36.906,33.0040657 37.168,33.1560657 C37.313,33.2380657 37.457,33.3160657 37.594,33.4060657 C37.734,33.4920657 37.86,33.6090657 38,33.6950657 C38.309,33.8830657 38.598,33.3830657 38.281,33.2030657" id="Fill-150" fill="#6B527C"></path>
            <path d="M37.434,33.8550657 C37.051,33.5590657 36.598,33.3550657 36.203,33.0740657 C35.977,32.9180657 35.77,33.2890657 35.988,33.4490657 C36.383,33.7340657 36.731,34.0980657 37.137,34.3670657 C37.461,34.5780657 37.723,34.0780657 37.434,33.8550657" id="Fill-151" fill="#6B527C"></path>
            <path d="M36.555,34.3980657 C36.426,34.3200657 36.293,34.2380657 36.164,34.1600657 C35.852,33.9690657 35.606,34.4380657 35.883,34.6480657 C36.008,34.7380657 36.129,34.8320657 36.25,34.9260657 C36.559,35.1520657 36.891,34.6020657 36.555,34.3980657" id="Fill-152" fill="#6B527C"></path>
            <path d="M23.805,15.5660657 C23.375,17.7500657 23.797,19.3670657 24.641,21.3360657 C25.18,22.5900657 25.965,23.5160657 26.785,24.5080657 C26.817,24.4180657 26.817,24.3130657 26.754,24.2030657 C25.254,21.4810657 23.168,18.6050657 24.774,15.4260657 C25.488,14.0120657 26.707,13.0080657 28.234,12.6250657 C29.086,12.4100657 29.777,12.3980657 30.555,12.8480657 C31.195,13.0820657 31.61,13.5550657 31.797,14.2660657 C31.688,16.1020657 30.961,16.7660657 29.61,16.2540657 C29.426,16.1640657 29.199,16.4020657 29.375,16.5550657 C30.746,17.7580657 32.559,16.9410657 32.789,15.0940657 C33.063,12.9020657 30.887,11.2340657 28.879,11.4530657 C26.586,11.7030657 24.703,13.2150657 23.75,15.2700657 C23.801,15.3520657 23.828,15.4490657 23.805,15.5660657" id="Fill-153" fill="#6B527C"></path>
            <path d="M32.262,48.5000657 C32.32,48.4260657 32.371,48.3520657 32.422,48.2700657 C33.145,47.1840657 33.317,45.5700657 32.156,44.7420657 C31.652,44.3830657 30.895,44.0590657 30.266,44.1720657 C29.66,44.2770657 29.258,44.7420657 28.899,45.2030657 C28.629,45.4100657 29.012,45.9410657 29.293,45.6290657 C29.336,45.5780657 29.383,45.5270657 29.43,45.4770657 C29.469,45.5270657 29.5,45.5900657 29.555,45.6250657 C30.395,44.9570657 31.598,45.2930657 31.867,46.4140657 C31.91,46.5980657 31.918,46.7700657 31.906,46.9300657 C31.813,47.2340657 31.668,47.5310657 31.524,47.7970657 C31.348,47.9920657 31.125,48.1560657 30.875,48.2850657 L30.66,48.4960657 C30.004,48.9300657 29.18,49.0390657 28.422,48.9650657 C27.141,48.8360657 26,48.0550657 25.274,46.9770657 C23.981,45.0510657 23.867,42.0660657 25.106,40.0740657 C25.192,39.9380657 24.988,39.7730657 24.879,39.8980657 C21.945,43.2420657 23.867,49.8870657 28.617,50.0740657 C29.867,50.1210657 31.328,49.6020657 32.176,48.5980657 C32.188,48.5860657 32.203,48.5820657 32.215,48.5660657 C32.231,48.5470657 32.246,48.5230657 32.262,48.5000657" id="Fill-154" fill="#6B527C"></path>
            <path d="M40.547,20.8750657 C40.52,20.7770657 40.488,20.7030657 40.445,20.6090657 C40.442,20.6050657 40.438,20.6050657 40.438,20.6020657 C40.375,20.4490657 40.324,20.2850657 40.34,20.1680657 C40.442,19.5200657 39.402,19.9570657 39.926,20.3360657 C40.004,20.3910657 40.035,20.5120657 40.043,20.6370657 C40.024,20.6680657 40.012,20.6990657 40.004,20.7340657 C40.004,20.7310657 40.004,20.7310657 40.004,20.7310657 C40,20.7460657 40.004,20.7500657 40,20.7620657 C40,20.7730657 40,20.7850657 40,20.7970657 C39.996,20.8710657 40.004,20.9220657 40.043,21.0160657 C40.168,21.3160657 40.664,21.1990657 40.547,20.8750657" id="Fill-155" fill="#AF4C54"></path>
            <path d="M46.195,22.3360657 C45.942,21.2810657 45.84,20.2110657 45.652,19.1480657 C45.563,18.6520657 44.719,18.7620657 44.766,19.2660657 C44.957,21.2150657 45.344,23.5590657 46.344,25.2620657 C46.449,25.4380657 46.77,25.3710657 46.754,25.1480657 C46.68,24.1800657 46.418,23.2770657 46.195,22.3360657" id="Fill-156" fill="#AF4C54"></path>
            <path d="M380.762,30.8050657 L380.762,31.0590657 C380.813,32.1050657 380.238,33.1640657 379.402,33.8130657 C378.547,34.4610657 377.477,34.8520657 376.375,34.9840657 C374.176,35.2850657 371.895,35.0980657 369.684,34.6560657 C368.57,34.4840657 367.473,34.1990657 366.375,33.9260657 C365.27,33.6760657 364.188,33.3400657 363.106,32.9960657 C360.981,32.3910657 358.922,31.5630657 356.836,30.8240657 C358.899,30.0780657 360.938,29.2580657 363.047,28.6480657 C364.129,28.3010657 365.215,27.9570657 366.32,27.7030657 L367.973,27.2890657 C368.527,27.1480657 369.094,27.0900657 369.652,26.9880657 C371.875,26.5740168 374.176,26.4220657 376.395,26.7580657 C377.5,26.9060657 378.578,27.3200657 379.434,27.9880657 C380.274,28.6560657 380.832,29.7340657 380.766,30.7850657 L380.762,30.8050657 Z M363.395,37.3440657 C364.309,38.5550657 365.031,39.9220657 365.281,41.3870657 C365.543,42.8280657 365.277,44.3950657 364.192,45.3830657 C363.156,46.3870657 361.652,46.9180657 360.16,46.9300657 C359.41,46.9730657 358.672,46.8160657 357.965,46.6090657 C357.274,46.3520657 356.649,45.9490657 356.207,45.3950657 C355.828,44.8280657 355.59,44.0470657 355.434,43.3240657 C355.289,42.5900657 355.274,41.8280657 355.469,41.1210657 C355.852,39.6720657 357.141,38.6480657 358.481,37.9410657 L358.617,37.8710657 L358.594,37.7270657 C358.426,36.6130657 357.746,35.6640657 356.918,34.9880657 C356.086,34.3090657 355.133,33.8010657 354.141,33.4410657 C352.195,32.7190657 350.152,32.3200657 348.102,32.1330657 C348.289,31.7890657 348.426,31.4180657 348.512,31.0230657 L348.512,31.0080657 L348.524,30.8320657 L348.524,30.8160657 C348.508,30.4340657 348.422,30.0510657 348.274,29.6880657 C350.27,29.4960657 352.25,29.1050657 354.141,28.4020657 C355.137,28.0470657 356.094,27.5390657 356.922,26.8550657 C357.746,26.1800657 358.43,25.2270657 358.594,24.1130657 L358.613,23.9690657 L358.481,23.8980657 C357.141,23.1910657 355.848,22.1760657 355.461,20.7230657 C355.262,20.0120657 355.274,19.2500657 355.418,18.5120657 C355.574,17.7890657 355.809,17.0080657 356.192,16.4340657 C356.633,15.8750657 357.262,15.4690657 357.957,15.2110657 C358.664,14.9960657 359.41,14.8400657 360.16,14.8830657 C361.66,14.8910657 363.172,15.4220657 364.219,16.4300657 C365.32,17.4220657 365.602,19.0080657 365.344,20.4650657 C365.098,21.9450657 364.371,23.3240657 363.469,24.5590657 C361.625,27.0120657 359.117,28.9880657 356.445,30.5350657 L356.613,30.9060657 C356.617,30.9060657 356.617,30.9020657 356.617,30.9020657 L356.36,31.4650657 C359.004,32.9960657 361.531,34.9300657 363.395,37.3440657 Z M347.36,35.9810657 C347.07,36.4140657 346.621,36.8550657 346.078,37.0700657 C345.535,37.2850657 344.918,37.3130657 344.367,37.1410657 C343.813,36.9690657 343.32,36.6950657 342.887,36.3670657 C342.461,36.0160657 342.152,35.5660657 341.945,35.0900657 C341.496,34.1450657 341.734,33.0000657 342.227,31.9180657 C342.383,32.3590657 342.606,32.7810657 342.957,33.1410657 C343.524,33.7540657 344.414,33.9960657 345.203,33.9490657 C346.004,33.9020657 346.805,33.5820657 347.379,33.0470657 C347.438,32.9960657 347.488,32.9340657 347.539,32.8750657 C347.906,34.0040657 348.004,35.1520657 347.36,35.9810657 Z M337.555,31.9920657 C336.871,31.9690657 336.184,32.0080657 335.504,31.9730657 C334.824,31.9410657 334.152,31.8280657 333.477,31.7190657 C332.125,31.4810657 330.762,31.3590657 329.391,31.3550657 C328.067,31.3910657 326.719,31.5120657 325.442,31.9340657 C324.746,31.8130657 324.051,31.7150657 323.356,31.6410657 C323.434,31.3870657 323.492,31.1290657 323.52,30.8590657 C323.527,30.6290657 323.508,30.3980657 323.473,30.1680657 C324.11,30.0980657 324.746,30.0120657 325.379,29.9060657 C326.668,30.3400657 328.031,30.4610657 329.371,30.4960657 C330.742,30.4880657 332.106,30.3710657 333.449,30.1290657 C334.121,30.0200657 334.797,29.9060657 335.473,29.8750657 C336.152,29.8360657 336.84,29.8790657 337.524,29.8550657 C338.86,29.7620657 340.176,29.5120657 341.461,29.0700657 C341.66,29.4100657 341.91,29.7110657 342.176,29.9770657 C342.09,30.2460657 342.024,30.5200657 341.984,30.7890657 L341.984,30.7930657 L341.988,31.0510657 C342.039,31.3050657 342.11,31.5630657 342.192,31.8130657 C341.914,32.0900657 341.652,32.4020657 341.449,32.7540657 C340.18,32.3280657 338.871,32.0820657 337.555,31.9920657 Z M337.715,37.6880657 C341.867,40.8710657 344.68,45.6600657 345.676,50.7970657 C346.152,53.3480657 345.692,56.1680657 343.977,58.1840657 C343.133,59.1880657 342.047,59.9650657 340.867,60.5310657 C339.692,61.0820657 338.399,61.5040657 337.113,61.4960657 C335.832,61.5160657 334.594,60.8200657 334.004,59.7070657 C333.379,58.6290657 333.27,57.2150657 333.754,56.1090657 C334.242,55.0120657 335.617,54.5200657 336.793,54.7230657 C337.996,54.8750657 339.082,55.8160657 338.988,56.9840657 L338.969,57.2110657 L339.172,57.3130657 C339.504,57.4840657 339.82,57.4060657 340.035,57.3200657 C340.262,57.2310657 340.453,57.1090657 340.621,56.9730657 C340.961,56.7070657 341.234,56.3910657 341.477,56.0590657 C341.949,55.3870657 342.289,54.6210657 342.434,53.8050657 C342.59,52.9880657 342.524,52.1130657 342.207,51.3240657 C341.883,50.5430657 341.348,49.8710657 340.715,49.3550657 C339.418,48.3160657 337.93,47.8160657 336.516,47.2110657 L332.219,45.5470657 C329.383,44.4220657 326.52,43.2420657 324.121,41.3790657 C322.934,40.4490657 321.906,39.2890657 321.387,37.8790657 C320.891,36.5040657 321.047,34.9690657 321.578,33.5900657 C322.031,33.4380657 322.445,33.1880657 322.738,32.8240657 C323.004,32.4920657 323.195,32.1170657 323.328,31.7190657 C328.508,32.6170657 333.563,34.5310657 337.715,37.6880657 Z M320.805,33.1250657 C320.168,33.0660657 319.594,32.9220657 319.063,32.6050657 C318.539,32.2770657 318.125,31.6520657 318.086,30.9810657 C318.09,30.3090657 318.488,29.6680657 318.992,29.3200657 C319.5,28.9730657 320.082,28.8360657 320.695,28.8050657 C321.305,28.7770657 321.891,28.8870657 322.313,29.2660657 C322.734,29.6330657 323.004,30.2460657 323.106,30.8590657 C323.176,31.4880657 323.008,32.1950657 322.559,32.6600657 C322.094,33.1370657 321.41,33.1950657 320.805,33.1250657 Z M321.387,23.9610657 C321.906,22.5550657 322.934,21.3910657 324.121,20.4610657 C326.52,18.5980657 329.383,17.4180657 332.219,16.2930657 L336.516,14.6290657 C337.93,14.0230657 339.418,13.5230657 340.715,12.4840657 C341.348,11.9730657 341.883,11.2970657 342.207,10.5160657 C342.524,9.72706567 342.59,8.85206567 342.434,8.03906567 C342.289,7.21906567 341.949,6.45306567 341.477,5.78106567 C341.234,5.44906567 340.961,5.13706567 340.621,4.86706567 C340.453,4.73106567 340.262,4.60906567 340.035,4.52006567 C339.82,4.43406567 339.504,4.35506567 339.172,4.52706567 L338.969,4.63306567 L338.988,4.85506567 C339.082,6.02306567 337.996,6.96506567 336.793,7.11706567 C335.617,7.32006567 334.242,6.82806567 333.754,5.73106567 C333.27,4.62506567 333.379,3.21506567 334.004,2.13706567 C334.594,1.02306567 335.832,0.324065665 337.113,0.344065665 C338.399,0.336065665 339.688,0.758065665 340.867,1.30906567 C342.047,1.87506567 343.133,2.65206567 343.977,3.65606567 C345.688,5.67206567 346.152,8.49206567 345.676,11.0430657 C344.68,16.1800657 341.867,20.9690657 337.715,24.1520657 C333.594,27.2770657 328.586006,29.1800657 323.453,30.0820657 C323.363,29.6050657 323.172,29.1410657 322.809,28.7620657 C322.461,28.3910657 321.996,28.1800657 321.516,28.0740657 C321.035,26.7420657 320.91,25.2770657 321.387,23.9610657 Z M341.949,26.7310657 C342.156,26.2540657 342.465,25.8090657 342.891,25.4610657 C343.328,25.1290657 343.824,24.8630657 344.375,24.6910657 C344.93,24.5230657 345.547,24.5590657 346.086,24.7730657 C346.629,24.9880657 347.074,25.4300657 347.363,25.8630657 C347.957,26.6330657 347.914,27.6760657 347.613,28.7230657 C347.578,28.6910657 347.555,28.6520657 347.52,28.6210657 C346.879,28.0590657 346.012,27.7970657 345.203,27.8090657 C344.406,27.8130657 343.512,28.0430657 342.93,28.6640657 C342.586,29.0160657 342.367,29.4300657 342.219,29.8590657 C341.734,28.7890657 341.504,27.6600657 341.949,26.7310657 Z M342.067,31.0470657 L342.07,30.7970657 C342.207,30.0740657 342.692,29.4300657 343.277,29.0860657 C343.86,28.7420657 344.512,28.5980657 345.199,28.6090657 C345.887,28.6170657 346.555,28.7660657 347.074,29.1600657 C347.594,29.5430657 347.961,30.1840657 348.121,30.8480657 L348.121,30.8320657 L348.133,31.0040657 C348.113,31.6840657 347.793,32.4340657 347.215,32.8520657 C346.629,33.2770657 345.895,33.3590657 345.199,33.3130657 C344.5,33.2730657 343.844,33.1410657 343.246,32.7890657 C342.656,32.4380657 342.176,31.7730657 342.067,31.0470657 Z M381.172,30.8090657 L381.172,30.8280657 C381.238,29.5860657 380.59,28.4340657 379.668,27.7030657 C378.731,26.9840657 377.59,26.5780657 376.449,26.4380657 C374.164,26.1130657 371.844,26.3050657 369.61,26.7460657 C368.477,26.9180657 367.371,27.1990657 366.262,27.4610657 C365.145,27.6990657 364.051,28.0270657 362.961,28.3590657 C361.371,28.7930657 359.824,29.3440657 358.274,29.8950657 C360.395,28.5310657 362.36,26.9140657 363.942,24.9100657 C364.914,23.6520657 365.692,22.1840657 365.977,20.5700657 C366.277,18.9960657 365.965,17.1090657 364.692,15.9490657 C363.465,14.7890657 361.789,14.2620657 360.168,14.2700657 C359.352,14.2340657 358.539,14.4100657 357.758,14.6640657 C356.988,14.9610657 356.266,15.4340657 355.742,16.1130657 C355.27,16.8630657 355.078,17.6170657 354.91,18.4180657 C354.766,19.2150657 354.758,20.0590657 354.996,20.8550657 C355.449,22.4410657 356.801,23.4880657 358.141,24.1910657 C357.973,25.1210657 357.414,25.9450657 356.676,26.5660657 C355.899,27.2190657 354.992,27.7380657 354.031,28.1290657 C352.195,28.8870657 350.227,29.3480657 348.242,29.6090657 C348.121,29.3400657 347.949,29.0980657 347.75,28.8710657 C348.09,28.4490657 348.34,27.9450657 348.414,27.3750657 C348.516,26.7230657 348.336,25.9650657 347.852,25.4730657 C347.367,24.9840657 346.766,24.7270657 346.168,24.5470657 C345.574,24.3710657 344.953,24.2380657 344.313,24.2890657 C343.035,24.3320657 341.719,25.1410657 341.207,26.4300657 C340.949,27.0700657 340.945,27.8010657 341.164,28.4180657 C341.227,28.6170657 341.309,28.8010657 341.406,28.9810657 C340.067,28.9410657 338.754,29.0230657 337.449,29.2340657 C336.785,29.3630657 336.121,29.5390657 335.449,29.6330657 C334.777,29.7230657 334.102,29.7380657 333.418,29.7190657 C332.063,29.6760657 330.711,29.6910657 329.367,29.6950657 L325.945,29.7930657 C327.668,29.4650657 329.371,29.0120657 331.024,28.4060657 C333.535,27.5040657 335.945,26.2700657 338.094,24.6450657 C340.246,23.0350657 342.11,21.0040657 343.426,18.6520657 C344.746,16.3130657 345.707,13.7700657 346.078,11.1020657 C346.203,10.4380657 346.168,9.75806567 346.192,9.09006567 C346.184,8.75406567 346.125,8.41806567 346.094,8.08606567 C346.078,7.74606567 346.016,7.41806567 345.922,7.09406567 C345.641,5.78106567 345.043,4.52306567 344.152,3.50806567 C343.285,2.48406567 342.188,1.66406567 340.984,1.07406567 C339.774,0.508065665 338.488,0.043065665 337.11,0.00406566503 C335.742,-0.061934335 334.305,0.680065665 333.613,1.90606567 C332.899,3.10206567 332.711,4.61706567 333.25,5.95706567 C333.852,7.36306567 335.488,7.96906567 336.891,7.77006567 C337.606,7.68406567 338.309,7.39106567 338.856,6.87106567 C339.324,6.44106567 339.625,5.81306567 339.684,5.16806567 C339.82,5.20706567 340.016,5.30106567 340.168,5.43806567 C340.43,5.64806567 340.664,5.92206567 340.867,6.21106567 C341.27,6.79706567 341.563,7.47306567 341.676,8.17206567 C341.945,9.57406567 341.336,10.9810657 340.211,11.8830657 C339.102,12.7890657 337.629,13.3240657 336.231,13.9220657 C334.813,14.4960657 333.371,15.0350657 331.953,15.6410657 C329.129,16.8520657 326.258,18.1210657 323.836,20.1130657 C322.645,21.1050657 321.574,22.3480657 321.09,23.8630657 C320.664,25.2660657 320.871,26.7460657 321.406,28.0550657 C321.149,28.0080657 320.891,27.9840657 320.649,28.0080657 C319.922,28.0630657 319.106,28.3360657 318.645,28.9690657 C318.176,29.5780657 318.024,30.2970657 318.012,30.9810657 C318.078,31.6600657 318.238,32.3790657 318.75,32.9570657 C319.254,33.5390657 320.063,33.7930657 320.789,33.7500657 C321.02,33.7380657 321.25,33.6910657 321.473,33.6250657 C320.891,34.9690657 320.649,36.5160657 321.09,37.9770657 C321.574,39.4920657 322.645,40.7340657 323.836,41.7310657 C326.258,43.7190657 329.129,44.9880657 331.953,46.1990657 C333.371,46.8050657 334.813,47.3480657 336.231,47.9220657 C337.629,48.5160657 339.102,49.0510657 340.211,49.9570657 C341.336,50.8590657 341.945,52.2660657 341.676,53.6720657 C341.563,54.3670657 341.27,55.0430657 340.867,55.6290657 C340.664,55.9220657 340.43,56.1910657 340.168,56.4020657 C340.016,56.5390657 339.82,56.6330657 339.684,56.6760657 C339.625,56.0270657 339.324,55.3980657 338.856,54.9690657 C338.309,54.4530657 337.606,54.1600657 336.891,54.0700657 C335.488,53.8710657 333.852,54.4770657 333.25,55.8830657 C332.711,57.2230657 332.899,58.7380657 333.617,59.9340657 C334.305,61.1640657 335.742,61.9020657 337.113,61.8360657 C338.488,61.7970657 339.774,61.3320657 340.984,60.7660657 C342.188,60.1800657 343.285,59.3550657 344.152,58.3320657 C345.043,57.3200657 345.641,56.0590657 345.922,54.7460657 C346.016,54.4220657 346.078,54.0940657 346.094,53.7540657 C346.125,53.4220657 346.184,53.0860657 346.192,52.7500657 C346.168,52.0820657 346.203,51.4020657 346.078,50.7380657 C345.707,48.0700657 344.746,45.5230657 343.426,43.1880657 C342.11,40.8360657 340.246,38.8050657 338.094,37.1950657 C335.949,35.5660657 333.539,34.3280657 331.024,33.4260657 C329.418,32.8400657 327.77,32.3910657 326.098,32.0630657 L329.387,32.1560657 C330.731,32.1560657 332.082,32.1720657 333.445,32.1290657 C334.125,32.1090657 334.809,32.1250657 335.481,32.2110657 C336.152,32.3050657 336.817,32.4810657 337.484,32.6130657 C338.77,32.8160657 340.067,32.8950657 341.383,32.8630657 C341.297,33.0310657 341.215,33.2070657 341.16,33.3950657 C340.942,34.0160657 340.949,34.7460657 341.203,35.3870657 C341.711,36.6800657 343.024,37.4920657 344.301,37.5470657 C344.942,37.5980657 345.567,37.4730657 346.16,37.2970657 C346.762,37.1170657 347.36,36.8590657 347.848,36.3710657 C348.332,35.8830657 348.516,35.1210657 348.414,34.4690657 C348.328,33.8200657 348.024,33.2500657 347.613,32.8010657 C347.781,32.6130657 347.93,32.4180657 348.055,32.2030657 C350.102,32.4570657 352.137,32.9260657 354.035,33.7070657 C354.996,34.0940657 355.906,34.6130657 356.68,35.2700657 C357.414,35.8910657 357.973,36.7190657 358.141,37.6480657 C356.797,38.3520657 355.442,39.3950657 354.984,40.9810657 C354.746,41.7810657 354.75,42.6290657 354.895,43.4260657 C355.063,44.2270657 355.25,44.9810657 355.727,45.7380657 C356.25,46.4260657 356.977,46.8980657 357.75,47.1990657 C358.531,47.4530657 359.348,47.6330657 360.168,47.6020657 C361.797,47.6130657 363.477,47.0860657 364.719,45.9180657 C366.012,44.7540657 366.336,42.8480657 366.039,41.2580657 C365.762,39.6330657 364.977,38.1520657 364.02,36.8750657 C362.731,35.1990657 361.176,33.8010657 359.488,32.5780657 C360.613,32.9770657 361.746,33.3590657 362.899,33.6800657 C363.992,34.0160657 365.086,34.3520657 366.207,34.5940657 C367.32,34.8670657 368.434,35.1410657 369.574,35.2930657 C371.828,35.7030657 374.164,35.8590657 376.465,35.5040657 C377.613,35.3440657 378.762,34.9140657 379.699,34.1760657 C380.621,33.4260657 381.258,32.2580657 381.172,31.0120657 L381.172,31.0310657 L381.172,30.8090657 L381.172,30.8090657 Z" id="Fill-938" fill="#000000"></path>
            <path d="M36.801,11.1720657 C36.906,9.59406567 37.266,8.02706567 37.969,6.63706567 C38.656,5.23806567 39.727,4.02306567 41.055,3.22706567 C42.379,2.42206567 44.035,2.18006567 45.563,2.57806567 C47.063,2.97706567 48.457,4.14106567 48.777,5.69506567 C49.172,7.26206567 47.719,8.82806567 46.188,8.77306567 C45.11,8.77006567 44.227,7.91006567 43.922,6.92206567 C44.043,7.12906567 44.176,7.33206567 44.344,7.52306567 C44.59,7.80106567 44.902,8.04306567 45.274,8.18406567 C45.649,8.32806567 46.082,8.34406567 46.461,8.23406567 C47.223,8.02006567 47.852,7.41006567 48.059,6.63706567 C48.266,5.87106567 48.086,5.06606567 47.684,4.43006567 C46.82,3.11706567 45.188,2.65606567 43.777,2.85506567 C42.332,3.03106567 41.047,3.80906567 40.078,4.81606567 C39.09,5.83606567 38.481,7.14106567 38.121,8.46106567 C37.762,9.78906567 37.637,11.1520657 37.602,12.4960657 C37.551,15.1560657 37.738,17.9410657 38.606,20.4100657 C36.992,17.6760657 36.649,14.3090657 36.801,11.1720657 Z M37.371,18.3550657 C37.711,19.1090657 38.047,19.8090657 38.641,20.4770657 C38.067,17.7930657 37.977,15.1800657 38.164,12.5200657 C38.238,11.1990657 38.402,9.89106567 38.781,8.65206567 C39.164,7.42206567 39.754,6.25006567 40.629,5.34406567 C41.504,4.44506567 42.652,3.77306567 43.875,3.63706567 C45.07,3.48406567 46.41,3.86306567 47.051,4.83606567 C47.367,5.30906567 47.504,5.91806567 47.367,6.45306567 C47.246,6.97706567 46.797,7.42606567 46.277,7.57806567 C45.758,7.75006567 45.203,7.54706567 44.793,7.10906567 C44.387,6.68406567 44.11,6.08206567 43.875,5.47706567 L43.559,4.66006567 L43.363,5.50006567 C42.949,7.27306567 44.391,9.16406567 46.188,9.12506567 C47.063,9.10906567 47.863,8.66006567 48.414,8.02306567 C48.981,7.38706567 49.199,6.46906567 49.008,5.65206567 C48.649,3.99206567 47.234,2.74206567 45.652,2.27706567 C44.07,1.77306567 42.27,1.94106567 40.785,2.74606567 C39.285,3.52706567 38.137,4.85906567 37.371,6.33606567 C36.617,7.83606567 36.293,9.50006567 36.211,11.1370657 C36.129,12.7810657 36.301,14.4140657 36.637,16.0160657 C36.805,16.8160657 37.043,17.6020657 37.371,18.3550657 L37.371,18.3550657 Z" id="Fill-939" fill="#000000"></path>
            <path d="M82.188,30.6050657 C86.106,30.7660657 90.02,30.8550657 93.934,30.9220657 C90.016,30.9840657 86.098,31.0740657 82.18,31.2340657 C82.199,31.0390657 82.207,30.8440657 82.195,30.6450657 C82.192,30.6330657 82.192,30.6210657 82.188,30.6050657 Z M80.274,34.3280657 C79.746,34.8360657 79.016,35.0940657 78.309,35.0980657 C77.598,35.1170657 76.914,34.8950657 76.371,34.5270657 C75.301,33.8050657 74.567,32.4020657 74.844,31.0120657 L74.852,30.9810657 L74.852,30.9690657 L74.844,30.8710657 L74.844,30.8440657 L74.84,30.8320657 C74.399,29.5630657 75.024,28.0350657 76.121,27.3630657 C77.215,26.6910657 78.684,26.7700657 79.684,27.4810657 C80.664,28.2340657 81.328,29.4450657 81.543,30.7150657 C81.836,31.9610657 81.285,33.3910657 80.274,34.3280657 Z M65.266,33.0740657 C62.168,33.3870657 59.063,33.8010657 56.039,34.6370657 C53.035,35.4650657 50.027,36.7700657 47.758,39.0590657 C46.492,40.3360657 45.504,41.9530657 44.981,43.7070657 C45,41.1210657 45.645,38.5390657 46.883,36.2730657 L47.36,35.4060657 L46.43,35.7190657 C44.129,36.4920657 42.145,38.0470657 40.774,40.0230657 C41.25,38.7890657 41.867,37.6090657 42.61,36.5120657 C44.086,34.3200657 46.067,32.4450657 48.336,31.0980657 L48.672,30.8980657 L48.328,30.7310657 L48.172,30.6560657 C44.172,28.3090657 41.125,24.3520657 39.926,19.8550657 C41.152,22.6600657 43.555,24.9530657 46.484,25.9490657 L46.977,26.1170657 L46.727,25.6560657 C45.383,23.2110657 44.777,20.3980657 44.883,17.6250657 C45.34,19.5630657 46.399,21.3670657 47.781,22.7620657 C50.043,25.0510657 53.039,26.3590657 56.043,27.1910657 C59.063,28.0310657 62.168,28.4530657 65.266,28.7700657 C68.348,29.0780657 71.438,29.1990657 74.524,29.3710657 C74.438,29.8670657 74.445,30.3790657 74.551,30.8750657 L74.551,30.9450657 C74.379,31.4300657 74.336,31.9570657 74.391,32.4770657 C71.348,32.6480657 68.305,32.7770657 65.266,33.0740657 Z M37.906,33.5080657 C36.613,34.1130657 35.406,34.9020657 34.348,35.8590657 C33.539,36.5700657 32.832,37.3910657 32.215,38.2660657 C32.465,37.0470657 32.777,35.8480657 33.289,34.7230657 C33.965,33.3090657 35.004,32.0040657 36.406,31.3320657 L36.41,31.3320657 L36.418,31.3240657 L36.817,31.0980657 L37.098,30.9340657 L36.817,30.7460657 L36.434,30.4920657 L36.418,30.4840657 C35.078,29.7230657 34.117,28.4260657 33.492,27.0230657 C33.098,26.1520657 32.828,25.2310657 32.598,24.2890657 C33.125,24.9100657 33.695,25.4920657 34.305,26.0270657 C35.379,26.9730657 36.598,27.7500657 37.895,28.3520657 C40.422,29.5470657 43.289,30.0000657 46.02,29.6250657 C46.602,30.0900657 47.203,30.5270657 47.836,30.9220657 C47.184,31.3090657 46.555,31.7380657 45.957,32.2030657 C43.246,31.8320657 40.399,32.3050657 37.906,33.5080657 Z M25.957,31.8630657 C25.059,31.8160657 24.16,31.7730657 23.266,31.7270657 L22.219,31.6250657 C21.703,31.5740657 21.188,31.5700657 20.672,31.6090657 C19.547,31.5630657 18.426,31.5120657 17.301,31.4840657 C14.418,31.4410657 11.52,31.3090657 8.621,31.5700657 C7.172,31.7110657 5.762,32.0630657 4.332,32.1210657 C2.957,32.1950657 1.484,31.8670657 0.516,30.9260657 C1.52,30.0230657 2.969,29.7810657 4.32,29.8790657 C5.719,29.9770657 7.121,30.3670657 8.59,30.4920657 C11.516,30.7730657 14.41,30.5470657 17.285,30.4340657 C18.559,30.3830657 19.832,30.3160657 21.11,30.2500657 C21.477,30.2580657 21.848,30.2540657 22.219,30.2150657 L22.856,30.1520657 C23.879,30.0980657 24.902,30.0390657 25.926,29.9810657 C28.707,29.8090657 31.488,29.6130657 34.27,29.3870657 C34.817,29.9920657 35.465,30.5120657 36.211,30.8710657 L36.317,30.9340657 L36.219,30.9960657 L36.231,30.9880657 C35.551,31.3710657 34.973,31.8830657 34.473,32.4570657 C31.637,32.2070657 28.797,32.0230657 25.957,31.8630657 Z M16.902,34.8130657 C16.328,35.6840657 16.043,36.7620657 16.215,37.7850657 C16.379,38.7850657 16.758,39.7580657 16.578,40.6990657 C16.375,41.6130657 15.578,42.3200657 14.715,42.5270657 C13.856,42.7810657 12.93,42.4380657 12.277,41.8280657 C11.602,41.2310657 11.242,40.2930657 11.352,39.3200657 C11.434,38.3520657 11.895,37.4180657 12.488,36.6290657 C13.621,35.1370657 15.238,34.1050657 16.902,33.3950657 C17.781,33.0230657 18.695,32.7380657 19.621,32.5630657 C19.488,32.6250657 19.356,32.6840657 19.223,32.7500657 C18.305,33.2340657 17.461,33.9260657 16.902,34.8130657 Z M12.488,25.2150657 C11.895,24.4220657 11.434,23.4880657 11.352,22.5200657 C11.242,21.5510657 11.602,20.6130657 12.277,20.0120657 C12.93,19.4020657 13.856,19.0590657 14.715,19.3130657 C15.578,19.5200657 16.375,20.2270657 16.578,21.1450657 C16.758,22.0860657 16.379,23.0590657 16.215,24.0550657 C16.043,25.0780657 16.328,26.1560657 16.902,27.0270657 C17.461,27.9140657 18.305,28.6050657 19.223,29.0900657 C19.356,29.1600657 19.488,29.2190657 19.621,29.2770657 C18.695,29.1020657 17.781,28.8160657 16.902,28.4450657 C15.238,27.7340657 13.621,26.7030657 12.488,25.2150657 Z M30.836,27.5740657 C29.442,27.1250657 28.211,26.2660657 27.129,25.2890657 C26.238,24.4180657 25.481,23.4060657 24.91,22.3050657 C24.352,21.1950657 23.969,20.0040657 23.785,18.7890657 C23.61,17.5820657 23.652,16.3280657 24.176,15.2850657 C24.707,14.2460657 25.637,13.4260657 26.699,12.9020657 C27.774,12.4100657 29.004,12.1520657 30.164,12.3870657 C31.305,12.6130657 32.399,13.4220657 32.711,14.5860657 C32.863,15.1560657 32.828,15.7850657 32.57,16.3200657 C32.313,16.8480657 31.824,17.2700657 31.254,17.4410657 C30.684,17.6210657 30.047,17.5080657 29.598,17.1250657 C29.34,16.9180657 29.149,16.6330657 29.039,16.3240657 C29.41,16.7190657 29.988,16.9220657 30.531,16.8400657 C31.402,16.6990657 31.961,15.8630657 32.004,15.0510657 C32.07,14.1950657 31.524,13.3980657 30.813,13.0040657 C30.098,12.5780657 29.188,12.5510657 28.43,12.8200657 C27.656,13.0820657 27.008,13.6290657 26.547,14.2700657 C26.082,14.9100657 25.774,15.6370657 25.574,16.3830657 C25.176,17.8750657 25.227,19.4690657 25.664,20.9380657 C26.086,22.4060657 26.863,23.7730657 27.875,24.9020657 C28.899,26.0270657 30.156,26.8980657 31.473,27.6090657 C31.715,27.7340657 31.965,27.8520657 32.211,27.9690657 C32.09,27.9530657 31.969,27.9490657 31.848,27.9300657 C31.524,27.8520657 31.172,27.6910657 30.836,27.5740657 Z M259.051,31.1640657 L229.524,31.1840657 C219.68,31.2070657 209.836,31.0470657 199.996,30.9920657 C197.481,30.9690657 194.965,30.9450657 192.449,30.9220657 C194.965,30.8980657 197.481,30.8750657 199.996,30.8480657 C209.836,30.7970657 219.68,30.6330657 229.524,30.6560657 L259.051,30.6760657 C268.895,30.6760657 278.738,30.5660657 288.578,30.4610657 C298.422,30.3670657 308.266,30.2700657 318.106,30.0660657 L318.106,29.9920657 C308.262,29.9100657 298.422,29.9300657 288.578,29.9450657 C278.734,29.9530657 268.891,29.9570657 259.047,30.0550657 L229.524,30.3710657 C219.68,30.4840657 209.836,30.4140657 199.992,30.4380657 C180.309,30.4060657 160.625,30.3630657 140.942,30.4380657 C121.352,30.4450657 101.762,30.7340657 82.184,30.5230657 C82.074,29.0940657 81.344,27.6990657 80.113,26.8480657 C78.817,26.0080657 77.027,26.0270657 75.86,27.0000657 C75.149,27.5980657 74.695,28.4220657 74.531,29.2970657 C71.453,29.0230657 68.371,28.7460657 65.305,28.3950657 C62.227,28.0350657 59.149,27.5740657 56.18,26.7030657 C53.238,25.8440657 50.348,24.5160657 48.242,22.3160657 C47.207,21.2150657 46.363,19.9260657 45.836,18.5200657 C45.313,17.1130657 45.125,15.5780657 45.402,14.1090657 L44.793,13.9690657 C44.789,13.9770657 44.789,13.9810657 44.789,13.9880657 L44.785,13.9880657 C44.785,13.9920657 44.785,13.9920657 44.785,13.9920657 C43.801,17.8010657 44.336,21.9140657 46.129,25.3710657 C42.949,24.1600657 40.391,21.3630657 39.547,18.0390657 L39.313,18.0860657 C39.313,18.0900657 39.317,18.0940657 39.317,18.0940657 C39.317,18.0980657 39.317,18.0980657 39.317,18.0980657 C39.727,20.7310657 40.703,23.2810657 42.199,25.4960657 C43.223,27.0230657 44.488,28.3750657 45.918,29.5350657 C43.211,29.6090657 40.543,28.9690657 38.184,27.7620657 C36.969,27.1290657 35.836,26.3480657 34.813,25.4490657 C33.785,24.5510657 32.899,23.5040657 32.141,22.3750657 L30.942,20.5860657 L31.434,22.6720657 C31.797,24.2230657 32.168,25.8200657 32.883,27.3090657 C32.992,27.5310657 33.113,27.7500657 33.242,27.9690657 L33.152,27.9300657 C33,27.8590657 32.836,27.7730657 32.68,27.6880657 C32.363,27.5120657 32.047,27.3240657 31.734,27.1370657 C29.289,25.6450657 27.164,23.4770657 26.418,20.7230657 C26.039,19.3670657 25.977,17.9260657 26.305,16.5700657 C26.625,15.2270657 27.391,13.9140657 28.656,13.4410657 C29.27,13.1990657 29.961,13.1950657 30.539,13.5040657 C31.113,13.8010657 31.547,14.3870657 31.524,15.0270657 C31.516,15.6680657 31.09,16.3280657 30.465,16.4530657 C29.848,16.5820657 29.09,16.1880657 28.953,15.5470657 L28.766,14.6330657 L28.66,15.5550657 C28.66,15.5700657 28.664,15.5860657 28.66,15.6020657 C28.606,16.2730657 28.926,16.9260657 29.438,17.3240657 C29.953,17.7540657 30.695,17.8710657 31.32,17.6600657 C31.949,17.4690657 32.5,17.0270657 32.805,16.4340657 C33.106,15.8440657 33.156,15.1480657 33.008,14.5120657 C32.727,13.1910657 31.555,12.2190657 30.281,11.8950657 C28.984,11.5630657 27.617,11.7770657 26.426,12.3200657 C25.234,12.8630657 24.172,13.7890657 23.617,15.0200657 C23.031,16.2460657 23.09,17.6330657 23.367,18.8630657 C23.649,20.1090657 24.117,21.3010657 24.754,22.3870657 C25.379,23.4810657 26.156,24.4880657 27.074,25.3440657 C28.133,26.3710657 29.375,27.2230657 30.746,27.7850657 C31.094,27.9340657 31.402,28.1090657 31.785,28.2310657 C32.156,28.3160657 32.516,28.3790657 32.895,28.4260657 C32.992,28.4340657 33.078,28.4450657 33.203,28.4410657 C33.219,28.4380657 33.234,28.4380657 33.262,28.4340657 C33.277,28.4300657 33.281,28.4300657 33.317,28.4140657 C33.344,28.3950657 33.356,28.4220657 33.43,28.3130657 C33.434,28.3010657 33.43,28.2930657 33.434,28.2810657 C33.66,28.6370657 33.914,28.9770657 34.192,29.2970657 C31.426,29.3010657 28.664,29.3360657 25.899,29.3950657 C24.731,29.4260657 23.559,29.4530657 22.387,29.4840657 L22.305,29.4610657 C20.395,28.9100657 18.473,28.3160657 17.266,26.7700657 C16.684,26.0230657 16.313,25.0590657 16.465,24.0900657 C16.559,23.1170657 17.031,22.1640657 16.891,21.0900657 C16.758,20.0160657 15.938,19.0900657 14.891,18.7270657 C13.809,18.3630657 12.57,18.7580657 11.824,19.5630657 C11.035,20.3550657 10.82,21.5700657 11.063,22.5660657 C11.297,23.5780657 11.832,24.4530657 12.43,25.2580657 C13.559,26.7380657 14.945,28.0860657 16.625,29.0160657 C17.059,29.2540657 17.508,29.4610657 17.973,29.6330657 C17.734,29.6450657 17.492,29.6480657 17.254,29.6600657 C14.367,29.7270657 11.488,30.0040657 8.656,29.7850657 C7.246,29.6840657 5.84,29.3480657 4.348,29.3010657 C2.883,29.2500657 1.27,29.5660657 0.168,30.6720657 L0.149,30.6910657 L0.137,30.7150657 L0.07,30.8360657 L0,30.9610657 L0.086,31.0660657 L0.156,31.1480657 L0.172,31.1640657 C1.313,32.2310657 2.91,32.4610657 4.348,32.3830657 C5.809,32.2930657 7.211,31.9180657 8.645,31.8320657 C11.512,31.5940657 14.395,31.9690657 17.277,32.1050657 C17.57,32.1210657 17.863,32.1290657 18.156,32.1450657 C17.629,32.3320657 17.113,32.5590657 16.625,32.8240657 C14.945,33.7580657 13.559,35.1020657 12.43,36.5820657 C11.832,37.3870657 11.297,38.2620657 11.063,39.2770657 C10.82,40.2730657 11.035,41.4840657 11.824,42.2810657 C12.57,43.0820657 13.809,43.4770657 14.891,43.1130657 C15.938,42.7500657 16.758,41.8240657 16.891,40.7500657 C17.031,39.6760657 16.559,38.7230657 16.465,37.7540657 C16.313,36.7810657 16.684,35.8160657 17.266,35.0700657 C18.473,33.5230657 20.395,32.9300657 22.305,32.3790657 L22.488,32.3240657 C23.637,32.3630657 24.781,32.4020657 25.93,32.4380657 C28.75,32.5040657 31.57,32.5550657 34.391,32.5390657 C33.86,33.1720657 33.426,33.8870657 33.086,34.6290657 C32.387,36.0860657 32.02,37.6640657 31.61,39.2070657 L31.305,40.3520657 L31.988,39.3670657 C32.774,38.2310657 33.742,37.2420657 34.77,36.3400657 C35.817,35.4610657 36.957,34.6840657 38.176,34.0630657 C40.527,32.8910657 43.156,32.2620657 45.828,32.3050657 C42.297,35.1130657 39.797,39.2230657 39.094,43.7230657 L39.762,43.8550657 C40.535,40.7580657 42.844,38.0980657 45.754,36.8160657 C44.125,40.2270657 43.75,44.2110657 44.715,47.8630657 C44.715,47.8630657 44.715,47.8630657 44.719,47.8630657 C44.719,47.8750657 44.719,47.8830657 44.723,47.8910657 L45.473,47.7190657 C44.899,44.7770657 46.211,41.7190657 48.266,39.5470657 C50.363,37.3480657 53.242,36.0160657 56.188,35.1520657 C59.149,34.2730657 62.223,33.8050657 65.305,33.4410657 C68.328,33.0860657 71.363,32.8200657 74.399,32.5590657 C74.43,32.7890657 74.473,33.0200657 74.547,33.2420657 C74.797,33.9960657 75.324,34.6800657 76.039,35.0780657 C76.754,35.4770657 77.594,35.5390657 78.344,35.3980657 C79.094,35.2420657 79.785,34.8950657 80.328,34.3830657 C80.832,33.9060657 81.297,33.3790657 81.664,32.7620657 C81.91,32.3320657 82.09,31.8320657 82.164,31.3160657 C101.75,31.1050657 121.344,31.3980657 140.942,31.4020657 C160.625,31.4770657 180.309,31.4340657 199.992,31.4020657 C209.836,31.4260657 219.68,31.3590657 229.524,31.4690657 L259.047,31.7850657 C268.891,31.8870657 278.734,31.8870657 288.578,31.8950657 C298.422,31.9100657 308.262,31.9300657 318.106,31.8480657 L318.106,31.7730657 C308.266,31.5700657 298.422,31.4730657 288.578,31.3790657 C278.738,31.2730657 268.895,31.1640657 259.051,31.1640657 L259.051,31.1640657 Z" id="Fill-940" fill="#000000"></path>
            <path d="M48.777,56.1450657 C48.457,57.6990657 47.063,58.8630657 45.563,59.2620657 C44.035,59.6640657 42.379,59.4180657 41.055,58.6130657 C39.727,57.8160657 38.656,56.6020657 37.969,55.2030657 C37.266,53.8130657 36.906,52.2460657 36.801,50.6680657 C36.649,47.5310657 36.992,44.1640657 38.606,41.4340657 C37.738,43.8980657 37.551,46.6840657 37.602,49.3480657 C37.637,50.6880657 37.762,52.0510657 38.121,53.3790657 C38.481,54.6990657 39.09,56.0040657 40.078,57.0230657 C41.047,58.0310657 42.332,58.8090657 43.777,58.9880657 C45.188,59.1840657 46.82,58.7230657 47.684,57.4140657 C48.086,56.7730657 48.266,55.9690657 48.059,55.2030657 C47.852,54.4300657 47.223,53.8200657 46.461,53.6050657 C46.082,53.4960657 45.649,53.5120657 45.274,53.6560657 C44.902,53.7970657 44.59,54.0390657 44.344,54.3160657 C44.176,54.5080657 44.043,54.7110657 43.922,54.9220657 C44.227,53.9300657 45.11,53.0700657 46.188,53.0700657 C47.719,53.0120657 49.172,54.5780657 48.777,56.1450657 Z M46.188,52.7190657 C44.391,52.6760657 42.949,54.5660657 43.363,56.3400657 L43.559,57.1800657 L43.875,56.3670657 C44.11,55.7620657 44.387,55.1600657 44.793,54.7310657 C45.203,54.2970657 45.758,54.0900657 46.277,54.2620657 C46.797,54.4140657 47.246,54.8630657 47.367,55.3870657 C47.504,55.9220657 47.367,56.5310657 47.051,57.0080657 C46.41,57.9770657 45.07,58.3550657 43.875,58.2030657 C42.652,58.0660657 41.504,57.3950657 40.629,56.4960657 C39.754,55.5900657 39.164,54.4220657 38.781,53.1880657 C38.402,51.9490657 38.238,50.6410657 38.164,49.3200657 C37.977,46.6600657 38.067,44.0510657 38.641,41.3630657 C38.047,42.0310657 37.711,42.7310657 37.371,43.4880657 C37.043,44.2380657 36.805,45.0230657 36.637,45.8240657 C36.301,47.4260657 36.129,49.0590657 36.211,50.7030657 C36.293,52.3400657 36.617,54.0040657 37.371,55.5040657 C38.137,56.9810657 39.285,58.3130657 40.785,59.0940657 C42.27,59.8980657 44.07,60.0660657 45.652,59.5630657 C47.234,59.0980657 48.649,57.8480657 49.008,56.1880657 C49.199,55.3710657 48.981,54.4530657 48.414,53.8160657 C47.863,53.1840657 47.063,52.7310657 46.188,52.7190657 L46.188,52.7190657 Z" id="Fill-941" fill="#000000"></path>
            <path d="M32.711,47.2580657 C32.399,48.4220657 31.305,49.2270657 30.164,49.4530657 C29.004,49.6880657 27.774,49.4340657 26.699,48.9380657 C25.637,48.4140657 24.707,47.5940657 24.176,46.5550657 C23.652,45.5120657 23.61,44.2580657 23.785,43.0550657 C23.969,41.8400657 24.352,40.6480657 24.91,39.5350657 C25.481,38.4340657 26.238,37.4220657 27.129,36.5510657 C28.211,35.5740657 29.442,34.7190657 30.836,34.2700657 C31.172,34.1480657 31.524,33.9880657 31.848,33.9100657 C31.969,33.8910657 32.09,33.8870657 32.211,33.8710657 C31.965,33.9880657 31.715,34.1050657 31.473,34.2310657 C30.156,34.9410657 28.899,35.8130657 27.875,36.9380657 C26.863,38.0660657 26.086,39.4340657 25.664,40.9020657 C25.227,42.3710657 25.176,43.9650657 25.574,45.4610657 C25.774,46.2030657 26.082,46.9300657 26.547,47.5700657 C27.008,48.2110657 27.656,48.7580657 28.43,49.0200657 C29.188,49.2930657 30.098,49.2620657 30.813,48.8360657 C31.524,48.4410657 32.07,47.6450657 32.004,46.7890657 C31.961,45.9770657 31.402,45.1450657 30.531,45.0000657 C29.988,44.9180657 29.41,45.1250657 29.039,45.5160657 C29.149,45.2110657 29.34,44.9260657 29.598,44.7150657 C30.047,44.3320657 30.684,44.2190657 31.254,44.3980657 C31.824,44.5700657 32.313,44.9960657 32.57,45.5230657 C32.828,46.0550657 32.863,46.6840657 32.711,47.2580657 Z M31.32,44.1800657 C30.695,43.9730657 29.953,44.0860657 29.438,44.5160657 C28.926,44.9140657 28.606,45.5660657 28.66,46.2380657 C28.664,46.2540657 28.66,46.2700657 28.66,46.2850657 L28.766,47.2070657 L28.953,46.2930657 C29.09,45.6520657 29.848,45.2580657 30.465,45.3870657 C31.09,45.5120657 31.516,46.1720657 31.524,46.8130657 C31.547,47.4530657 31.113,48.0390657 30.539,48.3360657 C29.961,48.6450657 29.27,48.6410657 28.656,48.3980657 C27.391,47.9260657 26.625,46.6130657 26.305,45.2730657 C25.977,43.9140657 26.039,42.4730657 26.418,41.1170657 C27.164,38.3630657 29.289,36.1950657 31.734,34.7030657 C32.047,34.5160657 32.363,34.3280657 32.68,34.1560657 C32.836,34.0700657 33,33.9810657 33.152,33.9140657 L33.297,33.8440657 C33.32,33.8320657 33.328,33.8280657 33.36,33.8090657 C33.375,33.7930657 33.387,33.7810657 33.406,33.7580657 C33.445,33.6950657 33.477,33.6290657 33.43,33.5310657 C33.356,33.4220657 33.344,33.4450657 33.317,33.4260657 C33.281,33.4100657 33.277,33.4100657 33.262,33.4100657 C33.234,33.4020657 33.219,33.4020657 33.203,33.3980657 C33.078,33.3950657 32.992,33.4060657 32.895,33.4180657 C32.516,33.4610657 32.156,33.5230657 31.785,33.6130657 C31.402,33.7310657 31.094,33.9100657 30.746,34.0550657 C29.375,34.6170657 28.133,35.4730657 27.074,36.4960657 C26.156,37.3520657 25.379,38.3590657 24.754,39.4530657 C24.117,40.5390657 23.649,41.7310657 23.367,42.9770657 C23.09,44.2070657 23.031,45.5940657 23.617,46.8240657 C24.172,48.0510657 25.234,48.9770657 26.426,49.5200657 C27.617,50.0630657 28.984,50.2770657 30.281,49.9450657 C31.555,49.6210657 32.727,48.6480657 33.008,47.3280657 C33.156,46.6910657 33.106,45.9960657 32.805,45.4060657 C32.5,44.8130657 31.949,44.3710657 31.32,44.1800657 L31.32,44.1800657 Z" id="Fill-942" fill="#000000"></path>
        </g>
    </g>
</svg>