<?xml version="1.0" encoding="UTF-8"?>
<svg width="155px" height="120px" viewBox="0 0 155 120" version="1.1" xmlns="http://www.w3.org/2000/svg" xmlns:xlink="http://www.w3.org/1999/xlink">
    <!-- Generator: Sketch 63.1 (92452) - https://sketch.com -->
    <title>Group</title>
    <desc>Created with Sketch.</desc>
    <g id="Page-1" stroke="none" stroke-width="1" fill="none" fill-rule="evenodd">
        <g id="Group" transform="translate(0.414000, 0.867221)">
            <path d="M117.332,90.5707793 C115.875,90.5077793 114.848,91.1367793 114.211,92.0817793 C113.258,91.0197793 111.641,90.5667793 110.168,90.7737793 C107.426,91.1557793 106.43,93.5347793 106.738,96.0667793 C106.84,96.8987793 108.02,96.9417793 108.066,96.0667793 C108.066,96.0387793 108.074,96.0157793 108.074,95.9917793 C108.336,96.3167793 108.688,96.5897793 109.086,96.8167793 C109.356,97.0277793 109.668,97.2027793 110.066,97.2737793 C110.152,97.2887793 110.238,97.2967793 110.324,97.3047793 C111.469,97.5937793 112.746,97.5197793 113.684,96.9687793 C113.856,97.1327793 114.027,97.3007793 114.18,97.4917793 C114.223,97.5387793 114.274,97.5817793 114.324,97.6207793 C114.688,98.5037793 115.375,99.2657793 116.32,99.6447793 C118.859,100.671779 122.293,98.4487793 122.484,95.7267793 C122.66,93.2457793 119.648,90.6677793 117.332,90.5707793" id="Fill-632" fill="#F79764"></path>
            <path d="M68.453,27.0427793 L69.305,27.4727793 C69.305,27.4727793 92.731,20.4607793 92.848,37.9567793 C94.488,35.6127793 97.988,26.8707793 87.316,23.9417793 C81.481,23.0077793 70.731,25.8397793 70.731,25.8397793 L68.453,27.0427793" id="Fill-633" fill="#FEBD64"></path>
            <path d="M51.602,13.2267793 L51.676,10.5977793 C51.676,10.5977793 50.332,3.62477928 39.52,0.909779282 C33.328,-0.875220718 26.922,1.10577928 24.992,5.30077928 C23.066,9.49177928 24.266,16.1097793 31.102,14.5507793 C27.973,13.1947793 24.629,10.4877793 27.199,6.65277928 C29.406,3.95277928 35.531,3.03877928 39.586,3.96877928 C43.641,4.89877928 47.91,6.96477928 49.188,8.95677928 C50.465,10.9487793 51.602,13.2267793 51.602,13.2267793" id="Fill-634" fill="#FEBD64"></path>
            <path d="M40.77,24.8477793 C40.77,24.8477793 38.426,21.5857793 37.172,21.1287793 C38.059,20.6447793 42.008,20.1917793 43.977,21.9097793 C43.524,19.6797793 42.012,16.1597793 40.981,15.4727793 C45.07,17.0237793 46.699,18.0237793 47.129,18.5977793 C47.559,19.1677793 47.102,16.8827793 47.102,16.8827793 L44.934,11.5347793 C44.934,11.5347793 50.738,15.6557793 51.481,16.8597793 C51.566,15.3167793 51.629,10.9417793 51.859,9.94177928 C53.516,12.4027793 55.086,14.5467793 55.086,14.5467793 C55.086,14.5467793 57.125,10.8357793 57.211,10.4057793 C57.297,9.97677928 59.121,14.6097793 59.148,15.1837793 C60.379,14.4687793 62.387,12.9297793 62.387,12.9297793 L62.066,17.0737793 C62.066,17.0737793 64.758,15.2457793 65.156,15.1917793 C65.559,15.1327793 63.52,19.2737793 63.664,19.7347793 C64.637,19.4177793 68.356,18.9957793 68.613,19.3947793 C68.527,20.2807793 67.781,21.4257793 67.578,22.4257793 C67.379,23.4257793 67.148,24.7107793 68.75,24.9417793 C70.352,25.1717793 71.324,25.2027793 71.465,25.2617793 C71.609,25.3167793 69.031,26.8867793 68.43,27.1447793 C67.828,27.3987793 68.602,27.3707793 68.602,27.3707793 L71.891,28.8317793 C71.891,28.8317793 68.027,30.5427793 67.969,31.4877793 C69.285,31.9177793 73.059,33.7497793 73.199,34.1207793 C70.309,35.0037793 69.137,35.7187793 69.137,35.7187793 L71.82,39.7227793 C71.82,39.7227793 70.016,39.4377793 69.816,39.4337793 C69.617,39.4337793 68.301,40.4337793 65.125,40.4297793 C65.438,41.3707793 68.895,45.4097793 68.895,45.4097793 C68.895,45.4097793 63.887,44.4877793 61.914,43.4847793 C62.344,45.5707793 62.996,49.2027793 62.965,49.4877793 C62.938,49.7737793 58.535,46.0817793 57.879,44.9647793 C57.531,48.1637793 56.988,49.6527793 56.988,49.6527793 C56.988,49.6527793 54.246,46.0737793 54.16,45.3597793 C52.699,47.1287793 51.293,49.2737793 51.293,49.2737793 C51.293,49.2737793 49.582,46.0977793 49.613,44.4687793 C47.949,46.5237793 47.18,47.0937793 47.18,47.0937793 C47.18,47.0937793 46.621,42.7697793 46.816,40.5857793 C44.465,42.0307793 42.578,43.1447793 40.746,43.0587793 C41.777,40.9137793 43.586,37.3987793 43.586,37.3987793 C43.586,37.3987793 40.469,37.6527793 39.32,38.2807793 C39.953,36.5977793 42.188,34.7697793 42.188,34.7697793 C42.188,34.7697793 39.984,34.9377793 38.898,34.6487793 C37.809,34.3627793 36.809,33.7347793 36.809,33.7347793 L40.848,30.6207793 C40.848,30.6207793 37.246,29.2187793 36.387,29.2737793 C36.961,28.4727793 38.82,27.6757793 39.852,27.6757793 C39.563,27.1597793 37.824,24.9027793 36.879,24.8437793 C38.481,24.7027793 40.77,24.8477793 40.77,24.8477793" id="Fill-635" fill="#AF4C54"></path>
            <path d="M55.809,27.8087793 C56.152,25.1127793 57.25,22.6127793 59.024,20.5467793 C59.324,20.1987793 59.879,20.6487793 59.652,21.0347793 C58.418,23.1327793 57.648,25.2927793 57.305,27.6757793 C59.926,27.6717793 62.543,27.5817793 65.164,27.5897793 C65.512,27.5937793 65.59,28.1167793 65.246,28.2027793 C62.336,28.9337793 59.234,29.1717793 56.242,29.1678287 C55.457,29.1678287 55.313,28.1717793 55.809,27.8087793" id="Fill-636" fill="#F79764"></path>
            <path d="M53.184,27.8827793 C52.188,25.0737793 52.016,22.3827793 51.824,19.4487793 C51.793,18.9377793 52.574,18.9487793 52.617,19.4487793 C52.844,22.1447793 53.856,24.9257793 54.813,27.4377793 C55.195,28.4447793 53.543,28.9097793 53.184,27.8827793" id="Fill-637" fill="#F79764"></path>
            <path d="M49.484,29.8517793 C48.734,29.0117793 48.098,28.2697793 47.129,27.6557793 C46.055,26.9727793 44.891,26.5467793 43.727,26.0507793 C43.348,25.8867793 43.621,25.2267793 44.008,25.3787793 C46.195,26.2457793 49.516,26.5507793 50.719,28.8987793 C51.106,29.6557793 50.106,30.5507793 49.484,29.8517793" id="Fill-638" fill="#F79764"></path>
            <path d="M42.695,33.8127793 C44.93,32.5077793 47.063,31.3087793 49.598,30.6947793 C50.731,30.4217793 51.203,32.2147793 50.074,32.4297793 C47.719,32.8747793 45.246,33.3987793 43.117,34.5277793 C42.645,34.7777793 42.234,34.0817793 42.695,33.8127793" id="Fill-639" fill="#F79764"></path>
            <path d="M50.168,41.9297793 C51.813,39.4847793 52.07,36.3277793 52.652,33.5157793 C52.883,32.3907793 54.508,32.8947793 54.348,33.9847793 C53.871,37.1837793 52.914,39.9607793 50.887,42.4847793 C50.563,42.8907793 49.879,42.3597793 50.168,41.9297793" id="Fill-640" fill="#F79764"></path>
            <path d="M57.324,42.8947793 C57.234,41.2107793 56.949,39.5547793 56.422,37.9527793 C55.926,36.4447793 55.031,35.1637793 54.481,33.6987793 C54.199,32.9417793 55.262,32.4337793 55.781,32.9447793 C58.172,35.3087793 58.727,39.7307793 58.34,42.8947793 C58.262,43.5307793 57.359,43.5627793 57.324,42.8947793" id="Fill-641" fill="#F79764"></path>
            <path d="M63.438,37.3007793 C60.848,35.6987793 57.902,34.4527793 55.527,32.5307793 C54.785,31.9337793 55.734,30.9727793 56.481,31.3087793 C59.231,32.5507793 61.566,34.8357793 63.875,36.7347793 C64.195,36.9957793 63.781,37.5117793 63.438,37.3007793" id="Fill-642" fill="#F79764"></path>
            <path d="M56.043,27.8087793 C58.09,25.9847793 60.469,24.6017793 62.973,23.4997793 C63.227,23.3907793 63.453,23.7457793 63.195,23.8787793 C60.797,25.1017793 58.809,26.7847793 57,28.7657793 C56.41,29.4137793 55.391,28.3907793 56.043,27.8087793" id="Fill-643" fill="#F79764"></path>
            <path d="M54.289,28.1987793 C53.887,24.4297793 54.641,20.6987793 55.93,17.1677793 C56.106,16.6837793 56.887,16.8907793 56.711,17.3867793 C55.465,20.9057793 55.344,24.5197793 55.746,28.1987793 C55.848,29.1287793 54.387,29.1207793 54.289,28.1987793" id="Fill-644" fill="#F79764"></path>
            <path d="M53.027,30.7847793 C50.813,27.9877793 48.734,25.0737793 46.711,22.1447793 C46.469,21.7927793 47.016,21.3747793 47.301,21.6877793 C49.652,24.2807793 51.977,26.9177793 54.152,29.6597793 C54.785,30.4527793 53.66,31.5857793 53.027,30.7847793" id="Fill-645" fill="#F79764"></path>
            <path d="M50.785,30.9957793 C48.09,30.5197793 45.383,30.3597793 42.648,30.5427793 C42.211,30.5707793 42.102,29.8317793 42.547,29.7657793 C45.359,29.3477793 48.156,29.2347793 50.988,29.5077793 C52.074,29.6127793 51.883,31.1877793 50.785,30.9957793" id="Fill-646" fill="#F79764"></path>
            <path d="M53.52,42.1017793 C54.223,39.4027793 53.762,36.5427793 53.461,33.7457793 C53.441,33.7617793 53.426,33.7777793 53.406,33.7887793 C50.832,35.6717793 48.137,37.2777793 45.703,39.3707793 C45.297,39.7227793 44.742,39.1797793 45.109,38.7777793 C47.262,36.4257793 49.777,33.9487793 52.621,32.4417793 C52.891,32.3007793 53.137,32.3127793 53.332,32.4097793 C53.297,31.9957793 53.27,31.5857793 53.262,31.1797793 C53.258,31.1637793 53.262,31.1527793 53.262,31.1367793 C53.012,30.7777793 53.176,30.1717793 53.754,30.1407793 C54.113,30.1167793 54.473,30.1097793 54.832,30.1097793 C55.008,30.0197793 55.227,30.0077793 55.41,30.1167793 C58.695,30.1987793 61.988,31.0277793 65.109,31.9137793 C65.438,32.0077793 65.297,32.4957793 64.969,32.4217793 C62.274,31.8207793 59.578,31.6597793 56.863,31.5387793 C59.066,34.0977793 60.477,37.5857793 61.293,40.7147793 C61.422,41.2027793 60.719,41.3747793 60.547,40.9177793 C59.848,39.0197793 58.961,37.1917793 57.922,35.4527793 C57.074,34.0387793 56.02,32.7927793 55.07,31.4607793 C54.984,31.4567793 54.902,31.4527793 54.82,31.4487793 C55.121,33.2737793 55.145,35.1717793 55.203,37.0117793 C55.266,38.8597793 55.18,40.6327793 54.535,42.3867793 C54.309,43.0157793 53.348,42.7697793 53.52,42.1017793" id="Fill-647" fill="#F79764"></path>
            <path d="M57.02,34.3397793 C58.883,32.3947793 58.348,28.7067793 55.863,27.5667793 C54.707,27.0347793 53.242,26.9257793 52.082,27.5037793 C51.129,27.7777793 50.32,28.2347793 49.813,29.2497793 C49.184,30.5117793 49.371,32.0427793 50.02,33.2537793 C50.746,34.6017793 51.676,35.2377793 53.164,35.4297793 C54.598,35.6167793 55.981,35.4297793 57.02,34.3397793" id="Fill-648" fill="#FEBD64"></path>
            <path d="M46.621,40.4337793 C46.621,40.4337793 42.606,43.0307793 40.715,42.7927793 C41.375,40.6247793 43.031,37.3667793 43.031,37.3667793 C43.031,37.3667793 40.43,37.6017793 40.242,37.9807793 C40.055,38.3597793 38.398,43.5507793 37.598,44.8707793 C36.793,46.1947793 34.574,52.8007793 38.07,54.4997793 C41.566,56.1987793 43.313,52.3277793 43.313,52.3277793 L46.762,45.4377793 L46.809,40.3867793 L46.621,40.4337793" id="Fill-649" fill="#A9C1A3"></path>
            <path d="M51.316,98.3557793 C51.316,98.3557793 44.266,86.9997793 42.898,80.9137793 C41.188,76.0587793 35.164,61.5587793 22.566,60.9417793 C11.27,60.8047793 6.547,64.5667793 3.945,67.5777793 C6.481,66.5507793 13.875,61.1487793 23.457,67.1637793 C28.043,69.3557793 31.738,73.1167793 37.215,81.5977793 C42.008,88.0937793 48.922,96.0277793 48.922,96.0277793 L51.316,98.3557793" id="Fill-650" fill="#A9C1A3"></path>
            <path d="M62.133,107.726779 C62.133,107.726779 53.371,105.331779 47.277,101.980779 C40.363,99.2417793 31.262,97.6017793 25.715,102.527779 C28.113,102.183779 31.672,101.089779 35.504,103.620779 C39.473,105.808779 46.594,109.570779 48.715,109.570779 C50.84,109.570779 58.301,108.886779 59.324,108.749779 C60.352,108.612779 65.145,108.956779 65.145,108.956779 L62.133,107.726779" id="Fill-651" fill="#4D89B4"></path>
            <path d="M85.27,115.519779 C85.27,115.519779 73.223,108.542779 72.262,102.320779 C71.375,97.6017793 70.961,91.0347793 71.305,88.3007793 C71.238,85.8357793 70.004,82.1447793 70.004,82.1447793 C70.004,82.1447793 76.578,86.7267793 77.055,90.8987793 C77.535,95.0707793 78.699,101.433779 79.043,102.730779 C79.383,104.030779 82.941,111.827779 85.75,113.878779 C88.555,115.999779 88.008,115.792779 88.008,115.792779 L85.27,115.519779" id="Fill-652" fill="#4D89B4"></path>
            <path d="M58.024,80.3667793 C58.024,80.3667793 61.789,66.6207793 76.508,65.5237793 C80,65.2497793 84.106,67.3707793 84.106,67.3707793 C84.106,67.3707793 80.957,71.2027793 80.613,71.6797793 C80.274,72.1597793 71.578,78.9297793 65.211,79.6837793 C58.848,80.4337793 58.024,80.3667793 58.024,80.3667793" id="Fill-653" fill="#A9C1A3"></path>
            <path d="M94.879,116.101779 C90.801,116.023779 86.82,115.519779 82.977,114.648779 C67.508,108.570779 53.328,94.1837793 60.473,76.6757793 C60.707,76.1017793 59.781,75.7417793 59.484,76.2617793 C51.977,89.4417793 58.996,101.718779 69.684,109.886779 C48.949,99.5117793 35.277,77.3437793 38.59,52.4527793 C38.676,51.8207793 37.59,51.6717793 37.469,52.3047793 C31.648,83.2697793 53.219,109.952779 81.902,116.866779 C83.551,117.534779 85.195,118.109779 86.805,118.570779 C87.426,118.745779 87.895,118.464779 88.145,118.034779 C90.363,118.335779 92.606,118.527779 94.879,118.585779 C96.477,118.628779 96.481,116.132779 94.879,116.101779" id="Fill-654" fill="#A9C1A3"></path>
            <path d="M147.559,55.5117793 C150.676,54.6877793 155.055,54.5587793 153.727,50.0077793 C153.473,49.1527793 152.152,49.5117793 152.383,50.3787793 C153.109,53.1447793 145.524,53.6367793 143.582,54.7227793 C142.141,55.5277793 140.922,56.7967793 140.258,58.3277793 C139.051,61.1057793 139.637,64.4647793 141.711,66.6877793 C142.234,67.2497793 143.086,67.5937793 143.574,68.1327793 C146.977,71.9057793 144.516,75.4607793 141.172,77.0507793 C139.727,77.7347793 138.16,78.3747793 137.086,79.6167793 C134.344,82.7807793 136.207,85.0737793 137.488,88.3277793 C141.391,98.2347793 131.731,97.8747793 125.641,100.503779 C122,102.077779 121.043,104.913779 120.774,108.640779 C120.606,110.956779 120.629,111.386779 119.18,113.655779 C117.309,116.585779 115.926,116.554779 112.723,115.878779 C110.145,115.339779 107.703,114.234779 105.043,114.085779 C104.77,114.070779 104.496,114.073779 104.223,114.081779 C107.066,112.128779 109.652,109.003779 111.07,106.218779 C111.426,105.523779 110.406,104.913779 110.02,105.605779 C109.059,107.308779 107.32,108.636779 105.902,109.976779 C106.129,107.628779 104.938,105.167779 102.641,104.323779 C100.566,103.566779 97.957,104.523779 97.191,106.687779 C96.34,109.089779 98.066,111.198779 100.41,111.460779 C101.004,111.527779 101.063,110.632779 100.543,110.464779 C98.16,109.691779 98.121,106.374779 100.594,105.847779 C102.461,105.444779 103.938,107.257779 104.059,108.956779 C104.16,110.362779 103.695,111.491779 102.93,112.417779 C102.316,112.859779 101.695,113.292779 101.055,113.726779 C100.824,113.882779 100.703,114.073779 100.648,114.273779 C100.418,114.409779 100.184,114.542779 99.945,114.667779 C95.316,115.749779 90.766,117.714779 86.211,115.304779 C84.852,114.585779 83.645,116.632779 85.004,117.370779 C90.199,120.194779 95.074,118.030779 100.426,116.851779 C106.527,115.507779 112.774,120.257779 118.539,117.987779 C120.84,117.085779 121.727,115.683779 122.094,114.054779 C123.211,112.894779 124.348,111.827779 125.828,110.952779 C127.906,109.730779 130.129,109.194779 132.379,108.429779 C132.656,108.331779 132.809,108.109779 132.848,107.870779 C132.926,107.913779 133.016,107.925779 133.113,107.890779 C133.262,107.987779 133.43,108.062779 133.633,108.066779 C136.25,108.105779 138.813,108.991779 141.426,108.831779 C143.246,108.722779 144.731,108.062779 146.32,107.366779 C146.613,107.312779 146.875,107.198779 147.109,107.027779 C147.113,107.027779 147.117,107.023779 147.121,107.023779 C147.121,107.023779 147.117,107.019779 147.117,107.019779 C147.191,106.964779 147.274,106.925779 147.34,106.855779 C148.145,106.015779 147.039,104.398779 146.035,105.167779 C145.313,105.714779 140.356,104.308779 138.891,104.433779 C137.418,104.558779 136.254,105.054779 135.125,105.702779 C134.832,105.745779 134.531,105.800779 134.234,105.847779 C133.941,105.874779 133.645,105.921779 133.352,105.987779 C132.688,106.101779 132.504,106.714779 132.652,107.245779 C132.543,107.144779 132.391,107.077779 132.195,107.077779 C128.883,107.077779 125.172,108.796779 122.379,111.183779 C122.43,109.558779 122.445,107.862779 123.063,106.277779 C125.516,99.9377793 134.441,102.038779 138.656,97.1717793 C141.883,93.4447793 140.289,90.6447793 138.883,86.7457793 C135.547,77.5037793 147.18,79.8597793 148.441,73.0817793 C148.715,71.6367793 148.375,70.1407793 147.566,68.9177793 C146.629,67.4957793 145.012,66.9177793 143.856,65.6947793 C139.781,61.3907793 141.852,57.0197793 147.559,55.5117793" id="Fill-655" fill="#A9C1A3"></path>
            <path d="M130.758,76.1247793 C130.52,75.3827793 129.332,75.2777793 129.145,76.1247793 C129.102,76.3127793 129.039,76.4957793 128.992,76.6837793 C128.797,76.7657793 128.645,76.9177793 128.602,77.1797793 C127.961,79.2377793 126.941,81.1797793 126.617,83.3237793 C126.566,83.6837793 126.684,83.9687793 126.875,84.1837793 C126.871,84.2657793 126.856,84.3477793 126.852,84.4297793 C126.777,86.7577793 128.59,88.7887793 129.789,90.6127793 C129.996,90.9297793 130.266,91.0587793 130.539,91.0817793 C130.527,91.1247793 130.516,91.1637793 130.5,91.2107793 C130.32,91.8437793 131.203,92.1917793 131.547,91.6487793 C134.895,86.3477793 132.531,81.6247793 130.758,76.1247793" id="Fill-656" fill="#A9C1A3"></path>
            <path d="M121.133,96.6407793 C119.953,98.2347793 117.066,100.624779 115.375,98.3357793 C115.34,98.2847793 115.297,98.2497793 115.254,98.2027793 C115.645,97.0507793 115.766,95.7807793 115.613,94.7537793 C115.457,93.7347793 113.981,93.7067793 113.52,94.4807793 C112.883,95.5467793 112.606,96.7107793 111.25,97.0817793 C109.91,97.4447793 108.359,96.5857793 107.961,95.2537793 C107.695,94.3627793 106.289,94.7417793 106.559,95.6447793 C106.789,96.4097793 107.152,97.1207793 107.633,97.7067793 C107.398,98.2577793 107.457,98.9687793 108.059,99.4257793 C108.266,99.5857793 108.488,99.7537793 108.715,99.9177793 C107.973,100.030779 107.422,100.464779 107.395,101.523779 C107.34,103.343779 109.481,105.077779 110.992,105.702779 C112.531,106.339779 115.516,106.093779 116.477,104.511779 C116.766,104.421779 117.008,104.179779 116.984,103.859779 C116.949,103.464779 116.789,103.120779 116.559,102.816779 C117.383,102.780779 118.168,102.495779 118.719,101.886779 C118.813,101.784779 118.879,101.675779 118.938,101.570779 C120.797,100.757779 121.789,99.0547793 122.121,97.0547793 C122.219,96.4417793 121.504,96.1407793 121.133,96.6407793" id="Fill-657" fill="#AF4C54"></path>
            <path d="M142.734,42.8317793 C140.555,37.9217793 138.098,33.1287793 134.774,28.8867793 C129.02,21.5387793 120.652,16.2807793 111.914,13.2067793 C111.762,13.1527793 111.617,13.1367793 111.477,13.1367793 C96.402,7.34377928 79.824,8.25777928 65.52,16.0387793 C64.555,16.5627793 65.402,17.9647793 66.371,17.4957793 C80.406,10.6877793 96.774,10.1247793 111.172,16.1017793 C118.746,19.9027793 126.34,23.4177793 132.102,29.8787793 C137.699,36.1597793 142.008,44.8667793 144.789,52.7657793 C144.922,53.1447793 145.563,53.2347793 145.648,52.7657793 C146.274,49.3667793 144.094,45.8867793 142.734,42.8317793" id="Fill-658" fill="#4D89B4"></path>
            <path d="M90.914,30.7577793 C89.367,28.6167793 87.016,27.0817793 84.484,26.3167793 C81.949,25.5077793 79.25,25.4297793 76.648,25.7027793 C74.109,26.0197793 71.66,26.6637793 69.227,27.3237793 C69.094,27.2777793 68.961,27.2307793 68.828,27.1837793 C69.684,26.8277793 70.504,26.3827793 71.27,25.8557793 C73.867,25.3627793 76.473,24.9487793 79.086,24.6597793 C80.547,24.4997793 82.02,24.3787793 83.481,24.3277793 C84.934,24.2657793 86.379,24.3207793 87.75,24.6327793 C90.481,25.2107793 92.852,27.2537793 93.785,29.9137793 C94.641,32.2927793 94.422,35.1487793 93.012,37.3437793 C93.16,34.9807793 92.309,32.6327793 90.914,30.7577793 Z M69.418,29.4447793 C68.652,29.9097793 67.961,30.4917793 67.375,31.1757793 L66.777,31.8667793 L67.695,32.0277793 C69.238,32.2967793 70.734,32.8867793 72.051,33.7657793 C70.949,34.1017793 69.895,34.5707793 68.918,35.1597793 L68.625,35.3397793 L68.813,35.5857793 C69.723,36.7927793 70.602,38.0197793 71.441,39.2777793 C70.281,39.1207793 69.148,38.8127793 68.051,38.4257793 C66.848,37.9917793 65.684,37.4807793 64.539,36.9337793 C63.395,36.3867793 62.297,35.7377793 61.227,35.0387793 C60.164,34.3317793 59.152,33.5387793 58.164,32.6987793 L58.09,32.7657793 C58.871,33.8167793 59.805,34.7497793 60.828,35.5817793 C61.84,36.4257793 62.969,37.1327793 64.145,37.7347793 C65.32,38.3317793 66.582,38.7657793 67.871,39.0547793 C68.375,39.1717793 68.883,39.2537793 69.395,39.3317793 C67.852,39.8597793 66.211,39.9997793 64.723,39.6327793 L63.52,39.3317793 L64.285,40.3557793 C65.383,41.8237793 66.555,43.2307793 67.758,44.6127793 C66.953,44.5037793 66.152,44.3747793 65.348,44.2107793 C64.145,43.9527793 62.949,43.6097793 61.824,43.0937793 L61.496,42.9417793 L61.617,43.2777793 C62.211,44.9447793 62.332,46.7187793 62.375,48.4527793 C61.715,47.9417793 61.051,47.4297793 60.414,46.8827793 C59.613,46.1917793 58.82,45.4847793 58.027,44.7577793 C58.129,43.8707793 58.195,42.9807793 58.168,42.0817793 C58.117,40.7927793 57.879,39.5157793 57.516,38.2847793 C57.191,37.1917793 56.742,36.1407793 56.172,35.1557793 C56.488,34.9487793 56.777,34.7027793 57.008,34.4137793 C57.801,33.4687793 58.152,32.2807793 58.176,31.1407793 C58.191,29.9957793 57.859,28.7887793 57.059,27.8437793 C56.731,27.4337793 56.309,27.1127793 55.852,26.8517793 C56.957,24.5667793 58.086,22.3047793 59.563,20.3087793 C60.852,18.6097793 62.406,17.1017793 64.227,16.0737793 C63.734,17.1947793 63.387,18.3707793 63.238,19.5777793 L63.141,20.3437793 L63.82,20.0277793 C65.199,19.3867793 66.785,19.1127793 68.34,19.3237793 C68.375,19.9807793 68.063,20.6557793 67.734,21.3007793 C67.375,22.0157793 67.047,22.8437793 67.223,23.7147793 C67.32,24.1447793 67.606,24.5387793 67.992,24.7657793 C68.383,24.9917793 68.816,25.0707793 69.227,25.1207793 C69.754,25.1757793 70.281,25.1947793 70.758,25.2807793 C69.949,25.7307793 69.113,26.1207793 68.254,26.4567793 C67.156,26.8747793 66.024,27.2147793 64.863,27.4847793 C63.707,27.7457793 62.531,27.9727793 61.344,28.1597793 L57.77,28.7147793 L57.777,28.8127793 C58.988,28.8237793 60.199,28.8127793 61.406,28.7227793 C62.617,28.6407793 63.832,28.5157793 65.035,28.2847793 C66.231,28.0547793 67.426,27.7457793 68.57,27.2927793 C69.395,27.7657793 70.234,28.2187793 71.074,28.6597793 C70.5,28.8747793 69.941,29.1247793 69.418,29.4447793 Z M57.547,45.8827793 C57.484,46.9647793 57.277,48.0307793 56.957,49.0627793 C56.02,47.7457793 55.254,46.3357793 54.691,44.8477793 L54.457,44.2187793 L53.906,44.6527793 C52.734,45.5627793 51.824,46.7807793 51.219,48.1287793 C50.527,47.0707793 50.059,45.8517793 49.824,44.5547793 C50.43,43.6757793 50.977,42.7537793 51.449,41.8007793 C51.965,40.7847793 52.359,39.7147793 52.703,38.6367793 C53.004,37.6797793 53.207,36.6987793 53.348,35.7147793 C53.453,35.7347793 53.551,35.7697793 53.66,35.7777793 C54.457,35.8667793 55.289,35.6757793 55.988,35.2737793 C56.285,36.3437793 56.555,37.4027793 56.77,38.4687793 C57.016,39.6877793 57.18,40.9137793 57.324,42.1487793 C57.481,43.3747793 57.606,44.6287793 57.547,45.8827793 Z M42.914,52.1597793 C42.609,52.7497793 42.285,53.3237793 41.856,53.8007793 C41.438,54.2807793 40.879,54.6527793 40.238,54.7457793 C38.938,54.9417793 37.613,54.1167793 37.063,52.9767793 C36.481,51.8237793 36.41,50.4997793 36.633,49.2417793 C36.856,47.9727793 37.383,46.7457793 37.895,45.5037793 C38.828,43.1987793 39.957,40.8167793 40.305,38.2617793 C41.059,37.9297793 41.875,37.7497793 42.699,37.7227793 C41.742,39.3477793 40.93,41.0587793 40.32,42.8357793 L40.137,43.3787793 L40.672,43.2807793 C41.82,43.0777793 42.93,42.7307793 43.977,42.2497793 C44.934,41.8237793 45.828,41.2887793 46.664,40.6717793 C46.559,42.2657793 46.52,43.8707793 46.637,45.4767793 L42.914,52.1597793 Z M43.52,34.1017793 C45.211,32.9177793 47.18,32.1017793 49.27,31.7457793 C49.488,32.6287793 49.918,33.4417793 50.512,34.1167793 C51.188,34.8907793 52.137,35.4567793 53.191,35.6797793 C52.898,36.6207793 52.566,37.5467793 52.199,38.4527793 C51.785,39.4807793 51.277,40.4647793 50.75,41.4337793 C49.813,43.1287793 48.672,44.6947793 47.43,46.1757793 C47.059,44.2777793 46.856,42.3277793 46.988,40.3787793 L47.016,40.0387793 L46.742,40.2457793 C45.856,40.9297793 44.867,41.4767793 43.824,41.8827793 C42.969,42.2027793 42.078,42.4297793 41.18,42.5547793 C41.981,40.7967793 42.902,39.1017793 43.977,37.4997793 L44.41,36.8517793 L43.617,36.7457793 C42.555,36.6057793 41.465,36.7187793 40.449,37.0547793 C41.309,35.9257793 42.34,34.9137793 43.52,34.1017793 Z M39.441,34.2417793 C38.789,34.0897793 38.168,33.8517793 37.566,33.5817793 C38.672,32.5777793 39.848,31.6557793 41.059,30.7697793 L41.582,30.3827793 L41.027,30.1527793 C39.606,29.5667793 38.117,29.2267793 36.629,28.9727793 C37.055,28.5977793 37.535,28.2847793 38.066,28.0857793 C38.691,27.8597793 39.352,27.7497793 40,27.7927793 L40.539,27.8277793 L40.262,27.3207793 C39.793,26.4607793 39.121,25.7107793 38.34,25.1017793 C38.973,25.1127793 39.606,25.1527793 40.234,25.2227793 C41.359,25.3597793 42.473,25.5777793 43.559,25.9027793 C44.656,26.2147793 45.699,26.6757793 46.727,27.1877793 C47.664,27.6717793 48.563,28.2497793 49.426,28.8907793 C49.402,28.9567793 49.375,29.0237793 49.356,29.0897793 C49.113,29.6597793 49.082,30.3047793 49.125,30.9027793 C49.148,31.1487793 49.195,31.3907793 49.246,31.6287793 C47.109,31.6637793 44.965,32.3207793 43.094,33.4417793 C42.551,33.7697793 42.035,34.1487793 41.539,34.5507793 C40.824,34.4877793 40.121,34.3987793 39.441,34.2417793 Z M37.965,20.9957793 C38.828,20.8477793 39.719,20.8317793 40.586,20.9567793 C41.691,21.1167793 42.777,21.4417793 43.77,21.9877793 L44.41,22.3437793 L44.285,21.6557793 C44.063,20.4487793 43.621,19.3087793 43.086,18.2307793 C42.648,17.3667793 42.137,16.5387793 41.535,15.7777793 C43.602,16.5387793 45.473,17.7347793 47.063,19.1917793 L47.887,19.9447793 L47.832,18.8127793 C47.758,17.4257793 47.496,16.0467793 47.027,14.7377793 C46.789,14.0777793 46.5,13.4417793 46.164,12.8317793 C46.828,13.2347793 47.484,13.6557793 48.121,14.1017793 C49.18,14.8397793 50.191,15.6527793 51.172,16.5077793 C51.18,17.1057793 51.207,17.7027793 51.262,18.3007793 C51.398,19.7377793 51.606,21.1717793 51.926,22.5777793 C52.203,23.8047793 52.555,25.0157793 52.984,26.1947793 C51.988,26.2927793 51.004,26.7417793 50.309,27.4767793 C50.07,27.6947793 49.887,27.9567793 49.734,28.2347793 C49.625,28.3907793 49.551,28.5627793 49.484,28.7347793 C48.766,27.9417793 47.953,27.2307793 47.059,26.6287793 C46.074,25.9487793 44.984,25.4337793 43.863,24.9997793 C42.816,24.6097793 41.723,24.3357793 40.613,24.1947793 C40.258,23.5817793 39.859,22.9877793 39.391,22.4447793 C38.941,21.9377793 38.461,21.4567793 37.965,20.9957793 Z M49.316,9.08177928 C48.234,7.76577928 46.934,6.62477928 45.465,5.73077928 C42.5,3.97677928 39.004,3.22677928 35.594,3.30877928 C33.887,3.35977928 32.188,3.48777928 30.488,3.94877928 C29.645,4.18377928 28.805,4.51977928 28.055,5.04677928 C27.301,5.56277928 26.656,6.29277928 26.281,7.15577928 C25.543,8.92177928 25.953,10.9177793 26.992,12.3867793 C27.844,13.5587793 29.07,14.2417793 30.309,14.7377793 C28.856,14.9417793 27.274,14.4417793 26.117,13.4527793 C24.609,12.2377793 23.984,10.1637793 24.199,8.24577928 C24.41,6.30077928 25.434,4.48777928 26.93,3.25777928 C28.43,2.01977928 30.297,1.27777928 32.199,0.991779282 C34.113,0.730779282 36.07,0.820779282 37.981,1.20677928 C39.895,1.57077928 41.797,2.11677928 43.582,2.89877928 C45.359,3.69477928 47.043,4.71077928 48.449,6.07077928 C49.781,7.36277928 50.906,8.90977928 51.504,10.7027793 C51.445,11.3747793 51.383,12.0547793 51.328,12.7307793 C50.879,11.4137793 50.195,10.1757793 49.316,9.08177928 Z M53.695,34.9447793 C52.668,34.9767793 51.531,34.6797793 50.746,33.8947793 C49.961,33.1167793 49.59,31.9647793 49.676,30.8947793 C49.715,30.3597793 49.852,29.8437793 50.094,29.3787793 C50.203,29.1407793 50.305,28.9027793 50.477,28.7107793 L50.699,28.4057793 C50.777,28.3087793 50.879,28.2347793 50.969,28.1487793 C51.699,27.4767793 52.719,27.1757793 53.731,27.2537793 C54.746,27.3167793 55.738,27.6987793 56.598,28.3167793 C57.453,28.9337793 58.102,29.9917793 58.078,31.1407793 C58.086,32.2847793 57.41,33.3237793 56.57,33.9647793 C55.711,34.6017793 54.738,34.9337793 53.695,34.9447793 Z M54.941,15.1017793 L55.281,14.6837793 C56.137,13.6447793 56.824,12.4607793 57.324,11.2027793 C57.969,12.4877793 58.398,13.8827793 58.535,15.3207793 L58.625,16.2807793 L59.34,15.6757793 C60.219,14.9377793 61.102,14.2067793 61.977,13.4607793 C61.949,14.4217793 61.93,15.3827793 61.93,16.3437793 C61.809,16.4447793 61.68,16.5387793 61.559,16.6407793 C60.5,17.5627793 59.59,18.6407793 58.836,19.8007793 C57.398,21.9567793 56.469,24.3477793 55.703,26.7577793 C55.117,26.4487793 54.469,26.2497793 53.801,26.1917793 C53.598,26.1677793 53.387,26.1677793 53.18,26.1797793 C52.981,24.9337793 52.774,23.6947793 52.613,22.4567793 C52.434,21.0467793 52.27,19.6367793 52.156,18.2227793 C51.957,15.5587793 51.625,12.8557793 51.859,10.1557793 C52.836,11.6367793 53.758,13.1527793 54.68,14.6677793 L54.941,15.1017793 Z M44.441,85.6917793 C45.742,88.8207793 47.113,91.9447793 48.875,94.8707793 C49.481,95.8627793 50.141,96.8237793 50.852,97.7497793 C50.371,97.2267793 49.883,96.7147793 49.418,96.1637793 C47.836,94.3627793 46.289,92.5307793 44.766,90.6797793 C41.719,86.9687793 38.777,83.1677793 35.922,79.3047793 C34.484,77.3787793 33.051,75.4487793 31.563,73.5587793 C30.074,71.6947793 28.539,69.7187793 26.406,68.5077793 C24.371,67.2187793 22.234,66.0387793 19.922,65.2807793 C17.621,64.5077793 15.16,64.1327793 12.715,64.3277793 C10.258,64.4997793 7.891,65.3437793 5.762,66.5307793 C5.313,66.7657793 4.887,67.0387793 4.461,67.3167793 C5.504,66.3317793 6.613,65.4257793 7.813,64.6447793 C10.578,62.8047793 13.774,61.6637793 17.07,61.3277793 C20.363,60.9687793 23.738,61.3317793 26.848,62.4687793 C29.965,63.5777793 32.734,65.5427793 34.945,68.0197793 C37.168,70.4877793 38.941,73.3667793 40.422,76.3827793 C41.918,79.4027793 43.148,82.5507793 44.441,85.6917793 Z M62.379,108.573779 C60.418,108.425779 58.449,108.566779 56.531,108.816779 C52.707,109.308779 48.84,109.714779 45.301,108.237779 C41.727,106.925779 38.551,104.577779 34.953,103.081779 C33.164,102.323779 31.231,101.800779 29.254,101.843779 C28.297,101.847779 27.324,101.987779 26.398,102.280779 C28.379,100.944779 30.738,100.163779 33.113,99.8907793 C34.801,99.6947793 36.504,99.7537793 38.195,99.9957793 C39.883,100.226779 41.555,100.632779 43.195,101.148779 C46.469,102.202779 49.656,103.601779 52.879,104.944779 C55.84,106.148779 58.891,107.261779 62.055,107.812779 C62.625,108.136779 63.195,108.444779 63.774,108.749779 C63.313,108.663779 62.844,108.605779 62.379,108.573779 Z M77.746,109.300779 C75.328,106.905779 73.375,104.015779 72.391,100.812779 C71.359,97.6017793 71.852,94.1637793 72.004,90.6837793 C72.082,88.9417793 72.012,87.1407793 71.57,85.4057793 C71.336,84.4297793 70.941,83.4767793 70.414,82.6057793 C72.633,84.3167793 74.699,86.2497793 75.922,88.7777793 C76.707,90.3667793 77.133,92.1057793 77.375,93.8597793 C77.633,95.6167793 77.75,97.3987793 77.941,99.1877793 C78.164,100.968779 78.461,102.777779 79.059,104.507779 C79.645,106.234779 80.457,107.878779 81.434,109.413779 C83.055,111.948779 85.211,114.132779 87.695,115.780779 C86.949,115.648779 86.207,115.499779 85.465,115.347779 C82.731,113.519779 80.043,111.601779 77.746,109.300779 Z M58.867,78.5667793 C60.262,75.4137793 62.531,72.7067793 65.18,70.5467793 C67.824,68.3787793 70.93,66.7227793 74.262,66.1207793 C77.387,65.5707793 80.715,66.0427793 83.426,67.6367793 C82.066,69.4727793 80.481,71.1407793 78.719,72.6057793 C76.824,74.2067793 74.731,75.5817793 72.504,76.7027793 C70.274,77.8127793 67.93,78.7147793 65.496,79.3127793 C63.129,79.8907793 60.691,80.2417793 58.238,80.2617793 C58.422,79.6877793 58.625,79.1207793 58.867,78.5667793 Z M92.344,38.8667793 L92.879,38.2737793 C94.93,35.9957793 95.59,32.5937793 94.637,29.6247793 C93.676,26.6637793 91.086,24.2307793 87.988,23.5897793 C84.914,22.9337793 81.91,23.4567793 78.981,23.8627793 C76.547,24.2417793 74.148,24.8007793 71.793,25.4847793 C71.797,25.4807793 71.801,25.4767793 71.805,25.4767793 L72.293,25.1017793 L71.758,24.8947793 C70.871,24.5467793 70.027,24.6917793 69.258,24.6677793 C68.496,24.6947793 67.703,24.3907793 67.531,23.6407793 C67.352,22.9137793 67.664,22.1367793 68.039,21.4567793 C68.395,20.7577793 68.856,20.0037793 68.801,19.0817793 L68.789,18.9217793 L68.613,18.8827793 C67.188,18.5507793 65.66,18.5937793 64.227,19.0237793 C64.359,18.4807793 64.512,17.9417793 64.711,17.4217793 C72.086,13.3047793 80.293,10.8357793 88.645,10.2457793 C89.711,10.1367793 90.781,10.1987793 91.848,10.1717793 L93.449,10.1597793 C93.981,10.1487793 94.516,10.1407793 95.047,10.2027793 C97.176,10.3707793 99.316,10.4567793 101.414,10.8947793 L102.992,11.1597793 C103.524,11.2417793 104.047,11.3397793 104.563,11.4877793 L107.672,12.2887793 L108.449,12.4877793 L109.207,12.7537793 L110.727,13.2807793 C111.727,13.6527793 112.777,13.9257793 113.738,14.4027793 L116.672,15.7267793 C117.664,16.1487793 118.559,16.7497793 119.504,17.2657793 C121.41,18.2657793 123.125,19.5777793 124.875,20.8237793 C125.734,21.4687793 126.524,22.2027793 127.344,22.8947793 L128.551,23.9607793 C128.957,24.3087793 129.301,24.7267793 129.68,25.1057793 L131.902,27.4297793 C132.602,28.2417793 133.246,29.0977793 133.93,29.9177793 L134.953,31.1527793 C135.27,31.5857793 135.563,32.0307793 135.871,32.4687793 C136.477,33.3517793 137.082,34.2307793 137.707,35.0977793 L139.328,37.8627793 L140.137,39.2497793 L140.82,40.7027793 L142.203,43.6017793 L143.332,46.6127793 L143.898,48.1167793 L144.336,49.6677793 L145.238,52.7697793 L145.336,52.7497793 L144.664,49.5777793 L144.324,47.9917793 C144.176,47.4727793 143.996,46.9607793 143.828,46.4447793 L142.813,43.3557793 C142.398,42.3557793 141.957,41.3627793 141.512,40.3747793 L140.844,38.8867793 L140.051,37.4687793 L138.449,34.6287793 C137.84,33.7307793 137.207,32.8437793 136.578,31.9567793 C136.262,31.5197793 135.957,31.0667793 135.629,30.6367793 L134.57,29.3947793 C131.848,25.9957793 128.457,23.2307793 125.086,20.5467793 C123.285,19.3477793 121.586,17.9957793 119.684,16.9647793 L118.285,16.1367793 C117.824,15.8557793 117.363,15.5667793 116.871,15.3437793 L113.957,13.9027793 C110.012,12.1287793 105.875,10.6677793 101.574,9.96877928 C99.445,9.48777928 97.27,9.36677928 95.102,9.15977928 C94.016,9.02377928 92.922,9.13677928 91.836,9.12077928 C90.746,9.15577928 89.656,9.10177928 88.57,9.21877928 C80.121,9.83577928 71.852,12.6247793 64.797,17.2067793 C65.074,16.5157793 65.402,15.8477793 65.801,15.2187793 L66.59,13.9647793 L65.176,14.4727793 C64.082,14.8667793 63.074,15.4567793 62.16,16.1597793 C62.356,15.0197793 62.527,13.8787793 62.688,12.7347793 L62.793,11.9687793 L62.129,12.4337793 C61.219,13.0707793 60.324,13.7307793 59.426,14.3827793 C59.199,12.7107793 58.617,11.0817793 57.652,9.69877928 L57.024,8.79677928 L56.746,9.83577928 C56.371,11.2377793 55.754,12.5777793 54.961,13.8127793 C53.91,12.4257793 52.856,11.0347793 51.871,9.60177928 L51.625,9.23777928 L51.59,9.67577928 C51.574,9.88277928 51.555,10.0937793 51.539,10.3007793 C51.063,8.57377928 50.078,6.98777928 48.84,5.68777928 C47.449,4.21077928 45.75,3.02377928 43.906,2.18377928 C42.066,1.33577928 40.137,0.726779282 38.148,0.327779282 C36.16,-0.0232207182 34.082,-0.160220718 32.07,0.261779282 C30.066,0.663779282 28.148,1.55077928 26.645,2.92977928 C25.121,4.28077928 24.102,6.19177928 23.891,8.21077928 C23.629,10.2107793 24.266,12.3947793 25.82,13.7927793 C27.316,15.1757793 29.602,15.8867793 31.66,15.1287793 L32.578,14.7927793 L31.645,14.4447793 C30.113,13.8747793 28.582,13.1487793 27.727,11.8707793 C26.867,10.6167793 26.582,8.90277928 27.191,7.55877928 C27.797,6.18777928 29.262,5.39877928 30.777,4.96077928 C32.309,4.53077928 33.984,4.38677928 35.613,4.32777928 C38.879,4.26977928 42.223,4.78077928 45.09,6.38277928 C47.789,7.85977928 50.125,10.1837793 51.301,13.1127793 C51.223,14.1367793 51.164,15.1597793 51.164,16.1877793 C50.371,15.2377793 49.488,14.3627793 48.543,13.5587793 C47.398,12.5857793 46.156,11.7267793 44.863,10.9487793 L42.813,9.72277928 L44.219,11.6877793 C44.969,12.7417793 45.57,13.8987793 46.027,15.1057793 C46.363,15.9807793 46.613,16.8907793 46.77,17.8207793 C45.035,16.5587793 43.055,15.6757793 41.004,15.1797793 L40.395,15.0307793 L40.82,15.4807793 C41.625,16.3237793 42.309,17.3007793 42.781,18.3747793 C43.16,19.2267793 43.391,20.1287793 43.527,21.0427793 C42.66,20.5427793 41.703,20.1947793 40.707,20.0667793 C39.481,19.9057793 38.211,20.0077793 37.035,20.3987793 L36.332,20.6327793 L36.902,21.0707793 C37.625,21.6327793 38.352,22.1837793 39.012,22.8127793 C39.461,23.2347793 39.883,23.6877793 40.293,24.1557793 C39.113,24.0197793 37.918,24.0627793 36.746,24.2067793 L35,24.4217793 L36.602,25.1127793 C37.688,25.5777793 38.652,26.3317793 39.422,27.2657793 C38.895,27.3517793 38.379,27.4847793 37.906,27.7147793 C37.262,28.0277793 36.66,28.4337793 36.18,28.9607793 L35.977,29.1837793 L36.274,29.2227793 C37.633,29.3947793 38.934,29.8747793 40.145,30.4877793 C38.801,31.2777793 37.59,32.2777793 36.52,33.4027793 L36.117,33.8277793 L36.633,34.0627793 C37.492,34.4527793 38.418,34.6947793 39.344,34.8007793 C39.981,34.8787793 40.613,34.8707793 41.238,34.8127793 C40.133,35.7657793 39.16,36.8827793 38.434,38.1677793 L37.27,40.2227793 L39.211,38.8627793 C39.457,38.6917793 39.727,38.5507793 39.996,38.4137793 C39.141,40.7067793 37.934,42.8127793 36.91,45.0857793 C36.367,46.3437793 35.879,47.6757793 35.699,49.1057793 C35.512,50.5197793 35.754,52.0707793 36.594,53.2617793 C36.969,53.8167793 37.481,54.2617793 38.059,54.5777793 C37.356,55.8707793 36.953,57.3007793 36.836,58.7497793 L36.844,59.9027793 C36.867,60.2847793 36.887,60.6637793 36.875,61.0427793 C36.879,61.8007793 36.805,62.5507793 36.731,63.3127793 C36.566,64.8357793 36.672,66.3787793 36.941,67.8867793 C37.047,68.4027793 37.191,68.9137793 37.352,69.4177793 C36.832,68.7027793 36.281,68.0117793 35.691,67.3477793 C33.406,64.7617793 30.481,62.6677793 27.203,61.4957793 C23.941,60.3047793 20.402,59.8747793 16.957,60.2887793 C13.508,60.6677793 10.148,61.8987793 7.281,63.8437793 C4.398,65.7657793 1.992,68.3127793 0,71.0897793 L0.656,71.6327793 C3.852,68.1917793 8.008,65.3747793 12.766,64.9177793 C15.117,64.6917793 17.512,65.0037793 19.777,65.7187793 C22.055,66.4137793 24.191,67.5307793 26.211,68.8087793 C28.316,69.9807793 29.813,71.8907793 31.324,73.7457793 C32.805,75.6327793 34.207,77.5817793 35.629,79.5197793 C38.477,83.3907793 41.277,87.3047793 44.258,91.0817793 C47.262,94.8477793 50.203,98.6527793 53.781,101.976779 L56.578,104.312779 L59.582,106.359779 C60.18,106.726779 60.781,107.081779 61.383,107.433779 C58.559,106.624779 55.852,105.472779 53.184,104.245779 C50.016,102.816779 46.875,101.241779 43.504,100.175779 C40.164,99.0817793 36.563,98.4137793 32.992,98.9257793 C29.473,99.3867793 25.934,100.941779 23.672,103.777779 L24.145,104.234779 C25.492,102.968779 27.375,102.323779 29.266,102.241779 C31.168,102.148779 33.07,102.620779 34.832,103.366779 C38.383,104.870779 41.375,107.409779 45.012,108.964779 C46.816,109.753779 48.832,110.163779 50.805,110.159779 C52.789,110.152779 54.723,109.855779 56.633,109.589779 C58.543,109.327779 60.438,109.046779 62.348,109.112779 C63.301,109.136779 64.258,109.237779 65.188,109.452779 C65.449,109.577779 65.703,109.706779 65.961,109.823779 C70.344,111.886779 74.945,113.417779 79.629,114.562779 C82.508,115.277779 85.426,115.812779 88.359,116.206779 C88.66,116.394779 88.969,116.577779 89.281,116.745779 L89.332,116.659779 C89.145,116.534779 88.965,116.398779 88.781,116.265779 C90.484,116.484779 92.188,116.667779 93.895,116.780779 L93.902,116.679779 C92.004,116.491779 90.121,116.206779 88.246,115.878779 C85.77,113.984779 83.664,111.652779 82.086,109.007779 C80.231,105.995779 79.219,102.593779 78.758,99.0777793 C78.203,95.5817793 77.863,91.8947793 76.223,88.6287793 C74.559,85.3707793 71.699,82.9917793 68.914,80.7737793 L68.543,81.2187793 C69.731,82.3907793 70.426,83.9647793 70.777,85.5937793 C71.125,87.2377793 71.156,88.9337793 71.051,90.6367793 C70.949,92.3437793 70.746,94.0707793 70.703,95.8317793 C70.656,97.5937793 70.867,99.4057793 71.402,101.112779 C72.449,104.546779 74.641,107.487779 77.211,109.859779 C79.563,112.019779 82.25,113.714779 85,115.245779 C84.789,115.202779 84.582,115.159779 84.371,115.112779 C78.457,112.808779 72.691,110.034779 67.875,105.960779 C65.246,103.749779 62.914,101.183779 61.066,98.2887793 C59.227,95.3987793 57.926,92.1207793 57.504,88.6917793 C57.129,85.9097793 57.359,83.0427793 58.203,80.3707793 C60.672,80.4917793 63.172,80.3277793 65.613,79.8237793 C68.106,79.3127793 70.551,78.5237793 72.856,77.4257793 C75.164,76.3357793 77.356,74.9807793 79.356,73.3747793 C81.336,71.7497793 83.121,69.8747793 84.621,67.7847793 L84.93,67.3517793 L84.484,67.0507793 C81.441,64.9957793 77.59,64.4957793 74.086,65.1717793 C70.547,65.8477793 67.352,67.6637793 64.691,69.9647793 C62.039,72.2847793 59.832,75.1527793 58.504,78.4137793 C57.145,81.6677793 56.774,85.2537793 57.145,88.7347793 C57.547,92.2107793 58.648,95.6287793 60.445,98.6677793 C61.316,100.198779 62.371,101.624779 63.531,102.948779 C64.688,104.280779 65.945,105.523779 67.316,106.628779 C71.664,110.206779 76.727,112.714779 81.981,114.558779 C81.246,114.378779 80.504,114.202779 79.774,114.007779 C75.148,112.757779 70.621,111.148779 66.309,109.097779 C62.387,107.210779 58.633,104.941779 55.313,102.140779 C52.832,100.050779 50.856,97.4417793 49.266,94.6407793 C47.578,91.7187793 46.277,88.5937793 45.035,85.4487793 C43.813,82.3007793 42.633,79.1097793 41.176,76.0237793 C40.391,74.3597793 39.512,72.7227793 38.52,71.1557793 C38.352,69.9847793 38.164,68.8357793 37.988,67.6947793 C37.715,66.2417793 37.516,64.7807793 37.277,63.3007793 C37.176,62.5587793 37.125,61.8047793 37.199,61.0587793 C37.281,60.3127793 37.496,59.5857793 37.66,58.8597793 C37.918,57.4847793 38.113,56.1097793 38.223,54.6717793 C38.856,54.9847793 39.566,55.1287793 40.277,55.0667793 C40.996,54.9997793 41.691,54.6717793 42.242,54.2027793 C42.797,53.7347793 43.238,53.1637793 43.629,52.5897793 C44.91,50.5277793 45.992,48.3237793 46.691,45.9877793 C46.731,46.3707793 46.758,46.7497793 46.813,47.1287793 L46.918,47.8747793 L47.484,47.3317793 C48.254,46.5897793 48.945,45.7737793 49.57,44.9097793 C49.566,46.4607793 50.051,48.0387793 50.941,49.3667793 L51.398,50.0467793 L51.75,49.2617793 C52.313,47.9997793 53.117,46.8667793 54.082,45.8867793 C54.785,47.3397793 55.715,48.6757793 56.852,49.7927793 L57.199,50.1327793 L57.285,49.6917793 C57.535,48.4337793 57.723,47.1797793 57.887,45.9137793 C57.926,45.6127793 57.965,45.3127793 58.004,45.0077793 C58.574,45.8557793 59.207,46.6677793 59.918,47.4057793 C60.734,48.2617793 61.625,49.0507793 62.574,49.7537793 L63.309,50.3007793 L63.289,49.3907793 C63.25,47.3477793 62.629,45.3987793 62.008,43.5037793 C63.047,43.9727793 64.094,44.4337793 65.18,44.8127793 C66.371,45.2377793 67.613,45.5307793 68.867,45.7107793 L70.024,45.8787793 L69.289,44.9377793 C68.137,43.4487793 66.938,42.0037793 65.688,40.5977793 C66.254,40.5977793 66.82,40.5387793 67.363,40.4027793 C68.207,40.2067793 69.004,39.8627793 69.711,39.3907793 C70.391,39.4877793 71.074,39.5667793 71.758,39.6327793 L72.086,39.6677793 L71.902,39.3947793 C71.055,38.1447793 70.262,36.8627793 69.488,35.5627793 C70.691,35.0387793 71.941,34.6447793 73.219,34.4057793 L74.145,34.2347793 L73.426,33.5977793 C72.117,32.4377793 70.516,31.5817793 68.801,31.1757793 C69.152,30.8277793 69.52,30.4957793 69.918,30.2027793 C70.574,29.7267793 71.301,29.3557793 72.063,29.0707793 L72.945,28.7347793 L72.102,28.4057793 C71.231,28.0667793 70.352,27.7347793 69.473,27.4137793 C71.902,27.0777793 74.309,26.6097793 76.723,26.4527793 C79.262,26.2267793 81.816,26.4767793 84.242,27.1327793 C86.645,27.8207793 88.988,29.0117793 90.602,30.9957793 C91.383,31.9917793 92.016,33.1207793 92.367,34.3477793 C92.695,35.5707793 92.789,36.8627793 92.516,38.0977793 L92.344,38.8667793 L92.344,38.8667793 Z" id="Fill-925" fill="#000000"></path>
            <path d="M135.512,105.417779 C136.856,104.894779 138.277,104.566779 139.699,104.612779 C141.117,104.616779 142.484,105.046779 143.953,105.409779 C145.07,105.694779 146.324,105.921779 147.566,105.749779 C147.109,106.409779 146.477,106.972779 145.734,107.378779 C144.695,107.980779 143.488,108.284779 142.246,108.362779 C139.75,108.507779 137.262,107.882779 134.731,107.605779 C133.945,107.507779 133.141,107.456779 132.336,107.452779 C133.281,106.593779 134.356,105.894779 135.512,105.417779 Z M153.004,50.6127793 L152.93,50.6837793 C153.367,51.1327793 153.438,51.8167793 153.191,52.3707793 C152.969,52.9337793 152.551,53.4137793 152.051,53.7457793 C151.555,54.0937793 150.961,54.2067793 150.344,54.2307793 C149.734,54.2497793 149.117,54.1917793 148.488,54.1167793 C147.258,53.9567793 145.875,53.8437793 144.609,54.3237793 C143.356,54.7737793 142.227,55.6097793 141.477,56.7377793 C139.926,58.9917793 140.156,62.2347793 141.965,64.3127793 C143.762,66.3667793 146.387,67.1837793 147.848,68.9957793 C148.566,69.8787793 148.859,71.0197793 148.563,72.1057793 C148.293,73.1947793 147.57,74.1877793 146.707,74.9877793 C144.945,76.5897793 142.438,77.3237793 140.254,78.7697793 C139.148,79.4957793 138.172,80.4687793 137.527,81.6597793 C136.875,82.8317793 136.637,84.3557793 137.176,85.6637793 C137.711,86.9607793 138.715,87.8517793 139.535,88.7697793 C140.375,89.6717793 141.055,90.7027793 141.098,91.9097793 C141.16,93.1017793 140.731,94.3047793 140.035,95.3127793 C139.352,96.3317793 138.398,97.1797793 137.32,97.7777793 C135.117,98.9767793 132.578,99.3627793 130.113,99.8907793 C129.277,100.066779 128.434,100.284779 127.609,100.570779 C129.727,99.3127793 131.223,96.9177793 131.371,94.3517793 C131.445,93.0627793 131.234,91.7497793 130.715,90.5627793 C130.188,89.3517793 129.316,88.4057793 128.551,87.4647793 C127.777,86.5347793 127.047,85.5347793 126.836,84.3517793 C126.617,83.1677793 126.914,81.9487793 127.32,80.8207793 C127.754,79.6837793 128.348,78.6127793 128.832,77.4527793 C129.066,76.8987793 129.27,76.3127793 129.406,75.7027793 L130.441,78.3207793 C131.035,79.7887793 131.668,81.2267793 132.129,82.6987793 C132.609,84.1637793 132.887,85.6837793 132.809,87.2147793 C132.727,88.7347793 132.281,90.2697793 131.316,91.5237793 L131.391,91.5897793 C132.578,90.4957793 133.25,88.8947793 133.481,87.2807793 C133.723,85.6487793 133.481,83.9877793 133.078,82.4217793 C132.652,80.8557793 132.039,79.3707793 131.426,77.9137793 L129.539,73.5587793 L128.242,70.5587793 L128.66,73.7777793 C128.809,74.9027793 128.559,76.0707793 128.188,77.2147793 C127.828,78.3667793 127.316,79.4997793 126.957,80.6947793 C126.566,81.8707793 126.34,83.1407793 126.524,84.4027793 C126.719,85.6677793 127.383,86.8007793 128.074,87.8207793 C128.77,88.8477793 129.477,89.8317793 129.898,90.9057793 C130.34,91.9807793 130.566,93.1487793 130.527,94.3127793 C130.481,96.6487793 129.356,98.9487793 127.481,100.534779 L127.524,100.597779 C125.949,101.144779 124.453,101.929779 123.223,103.120779 C122.297,104.038779 121.586,105.249779 121.387,106.585779 C121.184,107.917779 121.398,109.214779 121.484,110.444779 C121.606,111.675779 121.516,112.874779 120.938,113.878779 C120.359,114.870779 119.398,115.628779 118.316,116.120779 C117.227,116.616779 116.016,116.862779 114.809,116.866779 C113.602,116.859779 112.371,116.636779 111.168,116.327779 C108.75,115.726779 106.348,114.792779 103.766,114.546779 C102.484,114.425779 101.176,114.495779 99.93,114.835779 C98.68,115.159779 97.512,115.831779 96.672,116.800779 L96.746,116.866779 C97.645,115.987779 98.797,115.413779 100.008,115.167779 C101.223,114.905779 102.481,114.917779 103.707,115.066779 C106.176,115.374779 108.5,116.413779 110.973,117.070779 C112.211,117.402779 113.484,117.659779 114.805,117.688425 C116.125,117.702779 117.449,117.456779 118.672,116.921779 C119.895,116.402779 121.02,115.515779 121.699,114.308779 C121.949,113.862779 122.117,113.390779 122.223,112.905779 C123.512,111.128779 125.387,109.902779 127.398,109.171779 C128.547,108.749779 129.754,108.511779 130.977,108.355779 C132.195,108.202779 133.445,108.120779 134.695,108.148779 C135.953,108.159779 137.207,108.269779 138.461,108.444779 C139.711,108.628779 140.973,108.780779 142.262,108.804779 C143.539,108.816779 144.879,108.628779 146.082,108.054779 C147.281,107.487779 148.387,106.534779 148.922,105.222779 L149.313,104.277779 L148.328,104.601779 C147.043,105.023779 145.625,104.726779 144.211,104.374779 C142.805,104.011779 141.27,103.585779 139.691,103.655779 C138.133,103.714779 136.598,104.112779 135.238,104.831779 C134.004,105.472779 132.93,106.374779 132.09,107.448779 C130.398,107.464779 128.691,107.718779 127.094,108.378779 C125.176,109.148779 123.414,110.491779 122.328,112.234779 C122.395,111.601779 122.379,110.968779 122.313,110.374779 C122.191,109.093779 121.934,107.866779 122.082,106.683779 C122.211,105.499779 122.793,104.398779 123.625,103.511779 C124.457,102.616779 125.508,101.921779 126.629,101.386779 C127.75,100.847779 128.965,100.519779 130.188,100.230779 C132.629,99.6367793 135.195,99.2927793 137.488,98.0857793 C138.617,97.4687793 139.621,96.6097793 140.387,95.5587793 C141.152,94.5197793 141.676,93.2377793 141.645,91.8907793 C141.652,90.5197793 140.883,89.2737793 140.051,88.3207793 C139.227,87.3437793 138.324,86.4527793 137.914,85.3747793 C137.512,84.3087793 137.711,83.0977793 138.301,82.0857793 C138.887,81.0627793 139.754,80.1987793 140.77,79.5587793 C142.805,78.2227793 145.344,77.5467793 147.406,75.7617793 C148.402,74.8707793 149.246,73.7347793 149.582,72.3557793 C149.75,71.6717793 149.77,70.9337793 149.602,70.2347793 C149.426,69.5387793 149.09,68.8947793 148.656,68.3557793 C147.777,67.2657793 146.633,66.5817793 145.582,65.8947793 C144.524,65.2107793 143.477,64.5467793 142.691,63.6757793 C141.117,61.9767793 140.828,59.1407793 142.129,57.1677793 C142.766,56.1757793 143.731,55.3827793 144.84,54.9377793 C145.949,54.4647793 147.18,54.5117793 148.445,54.6207793 C149.074,54.6637793 149.723,54.7147793 150.375,54.6527793 C151.012,54.5977793 151.707,54.4217793 152.231,54.0037793 C152.762,53.6057793 153.18,53.0667793 153.387,52.4417793 C153.621,51.8237793 153.496,51.0587793 153.004,50.6127793 L153.004,50.6127793 Z" id="Fill-926" fill="#000000"></path>
            <path d="M99.152,105.585779 C99.711,105.124779 100.457,104.820779 101.258,104.769779 C102.055,104.714779 102.898,105.003779 103.488,105.589779 C104.078,106.175779 104.379,106.984779 104.481,107.741779 C104.75,109.273779 104.32,110.862779 103.508,112.386779 L103.586,112.448779 C104.957,111.374779 105.813,109.402779 105.289,107.550779 C105,106.640779 104.383,105.913779 103.703,105.351779 C103.024,104.784779 102.203,104.355779 101.289,104.222779 C100.379,104.070779 99.371,104.257779 98.574,104.843779 C97.774,105.421779 97.211,106.320779 97.078,107.308779 C96.941,108.288779 97.285,109.366779 97.992,110.030779 C98.672,110.710779 99.66,111.066779 100.543,110.890779 L100.539,110.788779 C98.852,110.452779 97.836,108.859779 98.137,107.460779 C98.25,106.757779 98.598,106.062779 99.152,105.585779" id="Fill-927" fill="#000000"></path>
            <path d="M117.051,102.499779 C116.648,102.070779 116.148,101.933779 115.805,101.792779 L114.402,101.288779 C113.91,101.105779 113.41,100.937779 112.906,100.777779 C113.813,100.433779 114.613,99.7577793 115.141,98.9027793 C115.781,97.8557793 116.035,96.5817793 115.902,95.3667793 C115.777,94.2267793 115.352,93.1407793 114.688,92.1987793 C115.727,90.9767793 117.422,90.7067793 118.746,91.1987793 C119.484,91.4567793 120.184,91.9097793 120.719,92.5237793 C121.238,93.1367793 121.641,93.8907793 121.887,94.7187793 C122.121,95.5467793 122.156,96.4607793 121.91,97.3087793 C121.668,98.1527793 121.176,98.9027793 120.637,99.5547793 C119.691,100.784779 118.512,101.780779 117.051,102.499779 Z M116.383,103.593779 C116.336,103.730779 116.223,103.898779 116.094,104.066779 C115.82,104.386779 115.473,104.722779 115.106,105.011779 C114.375,105.581779 113.387,105.952779 112.402,105.847779 C111.414,105.753779 110.527,105.210779 109.852,104.550779 C109.191,103.882779 108.555,103.155779 108.152,102.390779 C107.949,102.003779 107.809,101.573779 107.863,101.167779 C107.91,100.765779 108.207,100.390779 108.648,100.241779 C109.551,99.9137793 110.488,100.441779 111.359,100.874779 C112.246,101.335779 113.141,101.773779 114.055,102.159779 L115.422,102.761779 C115.895,102.956779 116.289,103.128779 116.367,103.320779 C116.414,103.394779 116.43,103.448779 116.383,103.593779 Z M106.996,94.4767793 C107.082,93.4567793 107.465,92.3597793 108.293,91.6367793 C109.109,90.9057793 110.297,90.6527793 111.336,90.8627793 C113.484,91.2617793 114.582,93.4647793 114.844,95.4877793 C114.977,96.5157793 114.891,97.5857793 114.453,98.5307793 C114.07,99.3867793 113.434,100.148779 112.59,100.679779 C112.246,100.573779 111.906,100.468779 111.563,100.366779 C110.898,100.183779 110.191,99.8947793 109.453,99.8517793 C107.781,98.4807793 106.766,96.4647793 106.996,94.4767793 Z M121.32,100.027779 C121.805,99.2027793 122.047,98.2777793 122.227,97.3827793 C122.402,96.4807793 122.5,95.5627793 122.426,94.6207793 C122.344,92.7377793 121.024,90.8167793 119.082,90.1877793 C118.117,89.8827793 117.031,89.9337793 116.133,90.3627793 C115.418,90.6917793 114.832,91.2737793 114.516,91.9567793 C113.789,90.9917793 112.59,90.3237793 111.395,90.3207793 C108.984,90.2227793 106.719,91.9177793 106.172,94.3517793 C105.914,95.5587793 106.231,96.8627793 106.879,97.8667793 C107.41,98.7267793 108.18,99.4257793 109.066,99.8517793 C108.895,99.8627793 108.723,99.8867793 108.547,99.9337793 C108.031,100.066779 107.52,100.456779 107.324,101.027779 C107.129,101.593779 107.211,102.191779 107.383,102.710779 C107.785,103.765779 108.563,104.534779 109.477,105.058779 C109.898,105.296779 110.344,105.472779 110.793,105.609779 C110.055,106.437779 109.445,107.261779 108.883,108.144779 C108.609,108.612779 108.387,109.136779 108.043,109.566779 C107.699,109.995779 107.262,110.343779 106.801,110.648779 C105.859,111.230779 104.969,111.820779 104.043,112.370779 C103.145,112.964779 102.234,113.527779 101.301,114.198779 L101.336,114.292779 C102.492,114.226779 103.594,113.831779 104.594,113.284779 C105.57,112.694779 106.469,111.956779 107.172,111.054779 C107.527,110.609779 107.875,110.171779 108.281,109.784779 C108.676,109.390779 109.16,109.058779 109.551,108.640779 C110.27,107.800779 110.77,106.773779 110.938,105.655779 C111.422,105.792779 111.91,105.886779 112.391,105.944779 C113.383,106.042779 114.43,105.987779 115.43,105.585779 C115.926,105.374779 116.387,105.116779 116.797,104.722779 C117.004,104.527779 117.199,104.292779 117.34,103.972779 C117.484,103.659779 117.512,103.171779 117.305,102.812779 C117.293,102.788779 117.277,102.780779 117.262,102.757779 C118.902,102.515779 120.438,101.460779 121.32,100.027779 L121.32,100.027779 Z" id="Fill-928" fill="#000000"></path>
        </g>
    </g>
</svg>