<svg width="271" height="272" viewBox="0 0 271 272" fill="none" xmlns="http://www.w3.org/2000/svg">
<path d="M135.5 0C210.335 0 271 60.6654 271 135.5C271 210.335 210.335 272 135.5 272C60.6654 272 0 211.335 0 136.5C0 61.6654 60.6654 0 135.5 0ZM135.5 5C63.4745 5 5 64.3789 5 136.5C5 208.573 63.4268 267 135.5 267C207.525 267 266 207.621 266 135.5C266 63.4268 207.573 5 135.5 5ZM127.648 60C132.683 60.0001 136.95 61.0669 140.448 63.2002C144.032 65.2482 146.762 68.1923 148.64 72.0322C150.517 75.7868 151.456 80.2665 151.456 85.4717V122.08C151.456 123.944 151.341 125.717 151.115 127.4H151.472V183.208H157.872C161.285 183.208 164.229 182.611 166.704 181.416C169.179 180.136 171.099 178.259 172.464 175.784C173.915 173.224 174.64 170.066 174.64 166.312V144.808C174.64 141.736 174.341 139.176 173.744 137.128C173.232 134.995 172.592 133.288 171.824 132.008C171.142 130.728 170.502 129.832 169.904 129.32C169.392 128.723 169.093 128.381 169.008 128.296L174.64 126.248C176.176 127.272 177.456 128.637 178.48 130.344C179.59 132.05 180.4 134.227 180.912 136.872C181.509 139.517 181.808 142.76 181.808 146.6V165.032C181.808 170.152 180.912 174.589 179.12 178.344C177.413 182.013 174.81 184.829 171.312 186.792C167.813 188.755 163.333 189.736 157.872 189.736H151.472V217H144.176V189.736H138.544C133.168 189.736 128.688 188.755 125.104 186.792C121.52 184.829 118.832 182.013 117.04 178.344C115.248 174.589 114.352 170.152 114.352 165.032V154.513L113.952 154.464V147.04H108.448C104.352 147.04 100.768 146.485 97.6963 145.376C94.6243 144.181 92.0636 142.517 90.0156 140.384C88.0531 138.165 86.5601 135.52 85.5361 132.448C84.5121 129.376 84 125.92 84 122.08V84.5762C84 78.1762 85.2373 72.9706 87.7119 68.96C90.2719 64.9494 94.069 62.1331 99.1035 60.5117L102.944 66.2725C100.384 66.8698 98.208 67.9784 96.416 69.5996C94.7093 71.1356 93.3869 73.1841 92.4482 75.7441C91.5949 78.2188 91.168 81.1629 91.168 84.5762V123.232C91.168 126.987 91.8932 130.187 93.3438 132.832C94.7944 135.477 96.8004 137.482 99.3604 138.848C102.006 140.128 105.035 140.768 108.448 140.768H113.952V73.4404C113.952 71.3071 114.293 69.4289 114.976 67.8076C115.658 66.101 116.597 64.6933 117.792 63.584C119.072 62.3895 120.522 61.4938 122.144 60.8965C123.85 60.2991 125.686 60 127.648 60ZM144.176 141.694C143.204 142.538 142.133 143.297 140.96 143.968C137.461 146.016 132.981 147.04 127.52 147.04H121.52V166.312C121.52 170.066 122.203 173.224 123.568 175.784C125.019 178.259 127.024 180.136 129.584 181.416C132.144 182.611 135.131 183.208 138.544 183.208H144.176V141.694ZM128.672 66.6562C127.051 66.6563 125.685 66.9545 124.576 67.5518C123.467 68.0638 122.613 68.9176 122.016 70.1123C121.504 71.3069 121.248 72.8001 121.248 74.5918V127.4H121.52V140.768H127.52C131.018 140.768 134.048 140.128 136.608 138.848C139.168 137.482 141.131 135.477 142.496 132.832C143.256 131.447 143.814 129.91 144.176 128.221V127.4H144.334C144.558 126.097 144.672 124.707 144.672 123.232V84.1924C144.672 80.6939 143.989 77.6644 142.624 75.1045C141.259 72.4592 139.381 70.4106 136.992 68.96C134.603 67.424 131.829 66.6562 128.672 66.6562Z" fill="black"/>
</svg>
