<?xml version="1.0" encoding="UTF-8"?>
<svg width="51px" height="186px" viewBox="0 0 51 186" version="1.1" xmlns="http://www.w3.org/2000/svg" xmlns:xlink="http://www.w3.org/1999/xlink">
    <!-- Generator: Sketch 63.1 (92452) - https://sketch.com -->
    <title>Group 3</title>
    <desc>Created with Sketch.</desc>
    <g id="Page-1" stroke="none" stroke-width="1" fill="none" fill-rule="evenodd">
        <g id="Group-3" transform="translate(0.168000, 0.695000)">
            <path d="M45.949,32.856 C45.949,32.774 45.922,32.703 45.891,32.641 C45.961,32.039 45.949,31.422 45.793,30.762 C45.43,29.25 44.465,27.942 43.309,26.922 C41.484,25.321 38.934,24.41 36.504,24.7 C36.504,24.387 36.508,24.086 36.605,23.778 C36.723,23.387 36.992,23.211 37.18,22.875 C37.484,22.328 36.953,21.891 36.547,21.547 C35.852,20.403 34.301,19.758 33.035,19.621 C31.68,19.477 29.137,19.735 28.398,21.09 C28.316,21.235 28.324,21.379 28.387,21.5 C28.332,21.586 28.281,21.68 28.227,21.778 C28.113,21.836 28.02,21.938 27.973,22.094 C27.508,23.559 27.094,25.004 26.766,26.504 C26.57,27.371 26.004,28.672 26.238,29.539 C26.355,29.965 26.91,30.176 27.086,30.578 C27.496,31.504 27.254,33.332 26.176,33.758 C25.418,34.059 24.078,33.563 23.52,32.973 C22.602,32.004 22.906,30.688 23.711,29.731 C23.809,29.621 23.855,29.5 23.867,29.379 C23.894,29.305 23.906,29.219 23.894,29.117 C23.801,28.293 23.5,27.512 23.348,26.692 C23.187,25.848 22.977,25.02 22.707,24.203 C22.293,22.336 21.992,20.403 20.02,19.692 C18.129,19.008 15.793,19.477 14.273,20.774 C14.215,20.825 14.176,20.883 14.152,20.942 C13.703,21.317 13.27,21.711 12.855,22.137 C12.687,22.313 12.676,22.61 12.855,22.782 L13.441,23.485 C13.461,23.516 13.484,23.543 13.508,23.567 C13.609,23.918 13.617,24.289 13.527,24.684 C11.922,24.754 10.293,25.192 9.027,25.731 C7.621,26.325 6.527,27.137 5.727,28.438 C5.324,29.082 4.805,29.75 4.609,30.493 C4.379,31.371 4.473,32.383 4.477,33.293 C4.422,33.512 4.473,33.743 4.648,33.926 C4.66,33.934 4.668,33.946 4.676,33.953 C4.68,33.957 4.684,33.957 4.684,33.961 C4.687,34.063 4.715,34.168 4.781,34.274 C5.062,34.774 5.359,35.258 5.66,35.746 C5.77,35.907 5.914,35.996 6.062,36.032 C6.156,36.141 6.25,36.25 6.344,36.356 C6.398,36.418 6.457,36.461 6.516,36.496 C7.367,37.282 8.387,37.672 9.605,37.719 C9.824,37.727 9.98,37.645 10.086,37.52 C8.496,40.004 8.492,44.137 9.648,46.707 C10.715,49.082 14.27,51.137 16.809,49.707 C17.023,49.586 17.121,49.399 17.133,49.207 C18.023,48.844 18.977,48.512 19.918,49.367 C20.008,49.45 20.09,49.563 20.172,49.688 C20.172,49.731 20.168,49.774 20.18,49.821 C20.59,51.309 20.941,52.66 22.195,53.66 C23.281,54.524 24.473,55.504 25.922,55.121 C28.836,54.36 30.273,51.52 30.445,48.727 C30.465,48.723 30.484,48.727 30.504,48.723 C32.461,48.34 32.871,50.332 34.594,50.473 C35.133,50.52 35.676,50.457 36.207,50.332 C36.324,50.379 36.461,50.399 36.617,50.371 C37.527,50.203 38.219,49.813 38.934,49.239 C39.004,49.18 39.059,49.117 39.094,49.047 C41.215,47.137 42.09,43.602 41.191,40.825 C41.23,40.149 41.066,39.477 40.797,38.86 C40.676,38.586 40.516,38.352 40.344,38.133 C42.426,37.805 45.312,36.711 45.562,34.418 C45.684,34.344 45.777,34.227 45.828,34.082 C45.902,33.887 45.91,33.645 45.934,33.442 C45.949,33.246 45.957,33.051 45.949,32.856" id="Fill-777" fill="#AF4C54"></path>
            <path d="M37.098,23.032 C37.504,22.649 38.023,22.41 38.539,22.203 C39.059,21.993 39.59,21.805 40.051,21.496 C40.516,21.184 40.914,20.731 41.02,20.184 C41.238,20.871 41.336,21.606 41.211,22.317 C41.082,23.024 40.711,23.703 40.129,24.125 C39.609,24.5 38.957,24.653 38.32,24.668 C37.797,24.684 37.266,24.614 36.746,24.52 C36.559,24.485 36.473,24.426 36.484,24.223 C36.496,24.008 36.566,23.793 36.664,23.606 C36.773,23.391 36.922,23.196 37.098,23.032" id="Fill-778" fill="#A9C1A3"></path>
            <path d="M41.621,38.231 C41.965,38.36 42.277,38.571 42.578,38.782 C43.449,39.391 44.309,40.043 45.312,40.395 C46.316,40.746 47.512,40.746 48.363,40.114 C47.742,41.11 46.777,41.891 45.668,42.289 C44.562,42.688 43.324,42.703 42.207,42.336 C41.992,42.266 41.77,42.172 41.637,41.989 C41.5,41.801 41.484,41.559 41.445,41.328 C41.332,40.68 41.016,40.094 40.73,39.508 C40.559,39.157 40.008,38.321 40.637,38.141 C40.953,38.051 41.32,38.117 41.621,38.231" id="Fill-779" fill="#A9C1A3"></path>
            <path d="M32.199,48.743 C32.734,49.016 33.137,49.485 33.492,49.969 C33.844,50.453 34.168,50.965 34.598,51.379 C35.559,52.309 36.941,52.641 38.266,52.778 C38.18,53.121 37.859,53.352 37.555,53.528 C36.894,53.907 36.18,54.192 35.441,54.371 C34.461,54.606 33.426,54.653 32.445,54.414 C31.469,54.176 30.551,53.649 29.922,52.86 C29.77,52.668 29.629,52.45 29.602,52.207 C29.57,51.918 29.691,51.645 29.797,51.375 C30.059,50.711 30.219,50.02 30.297,49.313 C30.316,49.117 30.34,48.907 30.492,48.77 C30.656,48.625 30.926,48.567 31.133,48.539 C31.496,48.496 31.875,48.575 32.199,48.743" id="Fill-780" fill="#A9C1A3"></path>
            <path d="M20.051,49.043 L20.012,49.344 C20.016,49.125 19.879,48.922 19.699,48.801 C19.516,48.676 19.297,48.625 19.078,48.606 C18.297,48.532 17.488,48.84 16.953,49.418 C16.555,49.848 16.316,50.399 15.988,50.883 C15.094,52.223 13.473,53.043 11.859,52.981 C12.789,53.707 13.93,54.16 15.102,54.274 C16.273,54.383 17.477,54.149 18.523,53.606 C19.004,53.36 19.457,53.043 19.801,52.629 C20.148,52.211 20.379,51.692 20.383,51.153 C20.391,50.438 20.012,49.758 20.051,49.043" id="Fill-781" fill="#A9C1A3"></path>
            <path d="M7.844,38.489 C7.277,38.735 6.777,39.114 6.285,39.481 C5.789,39.852 5.285,40.223 4.715,40.453 C3.922,40.774 3.02,40.809 2.207,40.543 C2.91,41.293 3.848,41.813 4.848,42.047 C5.852,42.282 6.91,42.235 7.898,41.953 C8.187,41.867 8.484,41.758 8.691,41.543 C8.98,41.239 9.051,40.793 9.121,40.383 C9.211,39.848 9.336,39.317 9.488,38.793 C9.547,38.598 9.715,38.344 9.441,38.278 C9.195,38.223 8.93,38.223 8.68,38.254 C8.391,38.293 8.109,38.375 7.844,38.489" id="Fill-782" fill="#A9C1A3"></path>
            <path d="M12.934,22.852 C12.637,22.606 12.277,22.457 11.922,22.313 C11.434,22.114 10.945,21.918 10.461,21.719 C10.23,21.625 10,21.532 9.797,21.391 C9.59,21.25 9.414,21.059 9.34,20.825 C9.312,20.743 9.297,20.66 9.254,20.586 C9.207,20.52 9.117,20.465 9.039,20.496 C8.965,20.524 8.934,20.614 8.914,20.696 C8.797,21.243 8.906,21.821 9.156,22.325 C9.402,22.825 9.781,23.25 10.207,23.614 C10.668,24.004 11.187,24.328 11.758,24.52 C12.273,24.692 12.894,24.782 13.43,24.645 C13.812,24.543 13.535,23.735 13.422,23.489 C13.309,23.246 13.141,23.024 12.934,22.852" id="Fill-783" fill="#A9C1A3"></path>
            <path d="M24.551,29.43 C23.918,29.528 23.316,29.891 22.984,30.434 C22.648,30.981 22.602,31.703 22.906,32.266 C23.121,32.664 23.488,32.953 23.848,33.227 C24.082,33.407 24.32,33.582 24.594,33.696 C25.102,33.91 25.691,33.879 26.207,33.684 C26.633,33.524 27.035,33.235 27.207,32.817 C27.32,32.555 27.332,32.262 27.32,31.977 C27.309,31.571 27.246,31.164 27.094,30.789 C26.937,30.407 26.695,30.129 26.402,29.848 C26.129,29.586 25.664,29.477 25.293,29.426 C25.047,29.391 24.797,29.391 24.551,29.43" id="Fill-784" fill="#F79764"></path>
            <path d="M40.52,7.625 C39.914,6.367 38.652,5.493 37.285,5.192 C35.922,4.895 34.477,5.133 33.195,5.692 C31.918,6.254 30.793,7.121 29.785,8.09 C28.781,9.059 27.883,10.129 26.953,11.172 C27.223,10.371 27.426,9.547 27.562,8.711 C27.812,7.168 27.445,5.66 27.016,4.157 C26.59,2.653 25.84,1.223 24.742,0.11 C22.644,3.012 21.727,6.758 22.305,10.293 C21.578,9.008 20.539,7.938 19.422,6.977 C18.789,6.434 18.105,5.95 17.355,5.59 C15.961,4.918 14.336,4.692 12.836,5.075 C11.336,5.457 9.984,6.469 9.301,7.856 C8.617,9.243 8.652,10.989 9.488,12.289 C9.82,11.407 10.738,10.785 11.656,10.59 C12.344,10.446 13.062,10.559 13.719,10.797 C14.809,11.2 15.742,11.93 16.594,12.723 C17.637,13.696 18.57,14.785 19.387,15.957 C19.285,16.028 19.23,16.149 19.277,16.313 C19.391,16.684 19.562,16.981 19.809,17.289 C20.266,17.864 20.59,18.348 20.883,19.024 C21.043,19.387 21.242,19.727 21.426,20.078 C21.555,20.797 21.918,21.5 22.238,22.157 C22.367,22.66 22.473,23.168 22.555,23.684 C22.887,25.731 23.512,27.629 23.949,29.657 C24.672,29.383 25.508,29.446 26.199,29.782 C26.566,26.61 27.277,23.465 28.484,20.504 C29.691,17.547 31.402,14.778 33.648,12.504 C34.328,11.817 35.07,11.164 35.941,10.735 C36.809,10.301 37.824,10.106 38.762,10.352 C39.703,10.598 40.535,11.34 40.734,12.289 C40.953,10.727 41.207,9.047 40.52,7.625" id="Fill-785" fill="#F79764"></path>
            <path d="M14.305,33.481 C10.34,35.664 8.043,40.797 9.914,45.078 C10.016,45.313 10.441,45.203 10.406,44.946 C9.945,41.481 10.43,38.11 13.223,35.719 C14.406,34.703 15.855,33.946 17.394,33.973 C17.051,34.028 16.695,34.125 16.336,34.262 C13.168,35.481 12.262,38.746 12.293,41.828 C12.293,42.153 12.773,42.149 12.789,41.828 C12.891,39.504 13.863,36.993 15.98,35.789 C17.66,34.836 19.07,35.215 20.234,36.18 C19.637,36.071 19.012,36.086 18.422,36.243 C16.348,36.789 15.375,38.598 14.859,40.504 C14.797,40.731 15.144,40.825 15.207,40.602 C15.957,37.938 19.254,36.293 21.344,38.106 C20.805,38.067 20.215,38.239 19.785,38.473 C18.965,38.922 18.281,39.754 18.238,40.711 C18.227,41.051 18.77,41.133 18.844,40.793 C18.988,40.129 19.562,39.641 20.18,39.414 C20.738,39.211 21.148,39.262 21.641,39.563 C22.07,39.821 22.445,39.52 22.512,39.141 C22.695,39.145 22.879,39.067 23.008,38.934 C23.246,38.832 23.445,38.621 23.48,38.301 C23.984,33.473 17.922,31.489 14.305,33.481" id="Fill-786" fill="#F8DFDD"></path>
            <path d="M33.945,32.758 C30.602,32.258 26.066,34.563 26.582,38.461 C26.691,39.278 27.973,39.325 27.902,38.461 C27.883,38.254 27.887,38.055 27.898,37.86 C27.98,37.836 28.055,37.797 28.121,37.735 C29.453,36.532 30.859,39.078 30.695,40.223 C30.633,40.653 31.187,40.813 31.348,40.403 C31.82,39.196 31.336,37.797 30.383,36.953 C29.98,36.598 29.477,36.356 28.973,36.289 C30.094,35.715 31.496,35.641 32.477,36.567 C33.434,37.473 34.113,38.68 34.805,39.789 C34.93,39.993 35.219,39.856 35.176,39.633 C34.902,38.231 34.148,36.481 32.949,35.485 C33.676,35.688 34.379,36.082 35.078,36.703 C36.344,37.828 37.359,39.235 38.086,40.754 C38.215,41.02 38.668,40.832 38.566,40.555 C37.414,37.41 35.207,34.391 32.109,34.067 C33.199,33.91 34.332,34.032 35.266,34.446 C38.516,35.895 39.574,39.528 40.727,42.575 C40.848,42.899 41.293,42.77 41.238,42.434 C40.566,38.36 38.59,33.453 33.945,32.758" id="Fill-787" fill="#F8DFDD"></path>
            <path d="M17.082,25.504 C13.332,24.075 7.687,25.051 5.559,28.754 C5.477,28.895 5.641,29.067 5.785,28.981 C8.148,27.504 10.367,26.153 13.266,26.172 C14.684,26.188 16.273,26.485 17.484,27.243 C17.594,27.313 17.703,27.387 17.809,27.465 C15.613,26.504 12.141,27.571 10.594,29.016 C10.332,29.262 10.715,29.629 10.98,29.407 C13.02,27.668 17.242,27.547 18.437,30.274 C17.84,29.7 16.879,29.414 16.121,29.344 C14.824,29.223 13.578,29.723 12.703,30.676 C12.535,30.86 12.746,31.145 12.969,31.02 C13.672,30.629 14.391,30.387 15.203,30.407 C15.879,30.418 17,30.664 17.453,31.301 C17.191,31.391 16.918,31.453 16.652,31.508 C15.703,31.7 16.109,33.133 17.055,32.957 C18.809,32.621 20.137,31.121 20.16,29.168 C20.187,27.157 18.805,26.16 17.082,25.504" id="Fill-788" fill="#F8DFDD"></path>
            <path d="M44.152,28.879 C41.785,25.313 37.613,23.821 33.48,25.098 C31.824,25.606 30.27,26.535 30.027,28.399 C29.789,30.215 30.82,31.91 32.371,32.778 C33.133,33.203 33.812,32.055 33.082,31.614 C33.09,31.571 33.098,31.524 33.098,31.477 C33.141,29.465 35.84,30.477 36.863,30.871 C37.117,30.969 37.34,30.586 37.133,30.414 C36.18,29.629 34.996,28.926 33.707,29.18 C32.902,29.34 32.211,29.883 31.934,30.621 C31.711,30.317 31.543,29.969 31.453,29.575 C31.367,29.18 31.355,28.832 31.41,28.524 C32.836,25.961 36.695,27.922 38.457,29.075 C38.691,29.231 38.934,28.934 38.82,28.711 C38.133,27.375 36.414,26.442 34.668,26.207 C35.422,26.059 36.199,26.008 36.953,26.043 C39.527,26.16 42.062,27.317 43.941,29.043 C44.047,29.145 44.242,29.016 44.152,28.879" id="Fill-789" fill="#F8DFDD"></path>
            <path d="M29.957,44.047 C29.426,42.254 28.676,40.11 27.144,38.934 C27.242,38.696 27.07,38.508 26.773,38.352 C23.934,36.86 21.602,39.672 20.742,42.106 C20.121,43.871 19.754,46.348 19.812,48.223 C19.871,50.121 20.394,51.305 21.582,52.672 C21.723,52.832 21.945,52.602 21.816,52.438 C19.957,50.176 20.5,46.914 21.055,44.309 C21.418,42.59 23.043,38.801 25.363,38.969 C25.367,39.043 25.394,39.114 25.426,39.184 C24.148,39.719 23.25,41.207 22.773,42.403 C21.934,44.504 22.02,46.817 22.445,49 C22.496,49.25 22.871,49.18 22.879,48.942 C22.937,47.219 22.871,45.418 23.383,43.754 C23.602,43.047 23.988,42.063 24.551,41.305 C24.562,43.77 24.727,46.192 25.105,48.641 C25.133,48.825 25.414,48.774 25.418,48.598 C25.469,46.188 25.527,43.77 25.648,41.36 C26.727,43.481 27,45.688 27.023,48.149 C27.023,48.489 27.527,48.567 27.617,48.231 C28.359,45.5 27.648,42.586 26.281,40.164 C26.453,40.133 26.582,40.059 26.664,39.953 C28.109,41.098 28.82,43.621 29.199,45.188 C29.723,47.336 29.734,49.649 28.894,51.711 C28.816,51.899 29.113,52.012 29.211,51.844 C30.637,49.371 30.758,46.758 29.957,44.047" id="Fill-790" fill="#F8DFDD"></path>
            <path d="M35.492,23.125 C33.18,22.766 30.793,23.774 29.992,26.059 C29.988,26.039 29.984,26.024 29.98,26.004 C29.227,24.145 31.215,22.293 32.801,21.664 C32.996,21.586 33,21.239 32.746,21.258 C30.586,21.442 27.988,23.641 28.652,26 C28.52,25.926 28.394,25.836 28.297,25.719 C28.262,25.629 28.203,25.543 28.133,25.477 C28.039,25.297 27.98,25.086 27.973,24.856 C27.957,24.082 28.223,23.149 28.453,22.414 C28.535,22.157 28.16,22.008 28.023,22.235 C27.41,23.239 26.652,24.578 27.027,25.782 C26.977,25.953 27,26.141 27.078,26.313 C27.453,27.125 28.441,27.434 29.367,27.414 C29.809,27.422 30.254,27.336 30.664,27.157 C30.734,27.125 30.785,27.086 30.828,27.047 C30.965,26.977 31.074,26.856 31.125,26.664 C31.644,24.641 33.586,23.817 35.492,23.524 C35.691,23.496 35.691,23.157 35.492,23.125" id="Fill-791" fill="#F8DFDD"></path>
            <path d="M23.199,26.028 C23.203,26.012 23.207,25.996 23.207,25.981 C23.355,24.875 22.551,23.879 22.262,22.864 C22.203,22.664 21.906,22.746 21.953,22.946 C22.008,23.2 22.086,23.559 22.144,23.946 C21.371,22.313 19.797,21.168 17.809,21.215 C17.543,21.223 17.477,21.621 17.746,21.688 C19.75,22.188 21.309,23.672 21.582,25.672 C21.047,24.953 20.367,24.34 19.543,23.953 C18.394,23.414 17.363,23.567 16.164,23.774 C16.02,23.797 16.051,24.043 16.195,24.028 C17.988,23.84 19.961,25.047 20.738,26.653 C19.977,26.66 19.211,26.317 18.535,25.75 C18.301,25.555 17.984,25.86 18.195,26.09 C18.883,26.852 19.48,27.547 20.566,27.657 C21.102,27.711 21.609,27.614 22.086,27.422 C22.25,27.375 22.402,27.305 22.535,27.203 C22.766,27.075 22.98,26.93 23.187,26.766 C23.465,26.543 23.398,26.227 23.199,26.028" id="Fill-792" fill="#F8DFDD"></path>
            <path d="M23.203,57.157 C23.168,58.352 22.922,59.543 23.004,60.739 C23.086,61.934 23.578,63.196 24.625,63.778 C25.004,63.989 25.465,64.098 25.871,63.946 C26.281,63.793 26.559,63.414 26.809,63.051 C27.109,62.621 27.414,62.184 27.57,61.68 C27.918,60.586 27.512,59.414 27.336,58.278 C27.129,56.961 27.234,55.602 27.644,54.332 C26.937,55.024 25.832,55.16 24.871,54.926 C24.371,54.801 23.898,54.59 23.445,54.348 C23.227,54.227 22.437,53.602 22.551,54.25 C22.582,54.453 22.789,54.692 22.867,54.891 C22.961,55.121 23.027,55.364 23.082,55.61 C23.187,56.117 23.219,56.637 23.203,57.157" id="Fill-793" fill="#A9C1A3"></path>
            <path d="M26.176,64.114 C26.137,63.91 25.918,63.778 25.727,63.774 C25.648,63.754 25.57,63.739 25.492,63.723 C25.27,63.614 25.062,63.649 24.914,63.778 C24.777,63.668 24.566,63.657 24.434,63.852 C23.641,64.989 23.566,65.969 23.879,67.301 C24.199,68.657 24.559,70.125 25,71.43 C25.086,71.676 25.473,71.645 25.469,71.367 C25.473,71.121 25.488,70.899 25.508,70.692 C25.625,69.668 25.996,68.743 26.141,67.707 C26.309,66.504 26.398,65.309 26.176,64.114" id="Fill-794" fill="#A9C1A3"></path>
            <path d="M25.594,73.192 C25.598,72.985 25.254,72.926 25.219,73.141 C24.961,74.793 24.894,76.356 25.039,78.024 C25.078,78.469 25.777,78.477 25.742,78.024 C25.605,76.43 25.551,74.793 25.594,73.192" id="Fill-795" fill="#A9C1A3"></path>
            <path d="M30.5,63.981 C30.203,63.809 29.832,64.032 29.824,64.367 C29.824,64.407 29.82,64.45 29.82,64.493 C26.105,67.403 26.746,72.965 26.695,77.133 C26.695,77.266 26.879,77.282 26.922,77.16 C26.996,76.942 27.055,76.719 27.113,76.496 C27.305,76.578 27.527,76.555 27.719,76.352 C30.508,73.36 30.434,69.196 30.387,65.328 C30.453,65.149 30.504,64.957 30.52,64.739 C30.773,64.547 30.793,64.153 30.5,63.981" id="Fill-796" fill="#A9C1A3"></path>
            <path d="M23.863,71.422 C23.691,70.114 23.207,68.883 22.594,67.727 C22.512,67.571 22.383,67.512 22.254,67.52 C21.707,66.535 21.098,65.598 20.543,64.586 C20.398,64.325 19.934,64.504 20.051,64.793 C20.719,66.446 20.305,68.395 20.566,70.117 C20.602,70.352 20.648,70.582 20.703,70.813 C20.633,70.907 20.594,71.024 20.613,71.168 C20.785,72.356 21.394,73.293 21.801,74.41 C21.855,74.555 21.957,74.645 22.07,74.692 C22.258,75.059 22.457,75.414 22.687,75.754 C22.695,75.785 22.699,75.817 22.707,75.848 C22.742,76.035 22.871,76.149 23.023,76.2 C23.059,76.243 23.086,76.285 23.117,76.325 C23.238,76.469 23.406,76.348 23.426,76.2 C23.641,76.133 23.809,75.961 23.773,75.703 C23.586,74.27 24.055,72.871 23.863,71.422" id="Fill-797" fill="#A9C1A3"></path>
            <path d="M25.668,78.735 C25.523,78.438 25.391,78.254 25.027,78.278 C24.719,78.301 24.566,78.539 24.609,78.828 C24.68,79.328 24.703,79.789 24.707,80.254 C24.594,81.352 24.703,82.891 24.73,83.172 C24.738,83.254 24.773,83.321 24.824,83.375 C24.758,86.325 25.074,89.274 24.883,92.223 C24.859,92.617 25.492,92.621 25.5,92.223 C25.582,88.735 25.375,85.274 25.586,81.778 C25.59,81.692 25.562,81.629 25.527,81.575 C25.531,81.481 25.535,81.379 25.539,81.282 C25.566,81.231 25.586,81.164 25.594,81.094 C25.625,80.703 25.644,80.332 25.637,79.969 C25.707,79.535 25.793,79 25.668,78.735" id="Fill-798" fill="#A9C1A3"></path>
            <path d="M35.758,119.141 C34.879,118.446 33.863,117.598 32.793,117.231 C31.894,116.918 30.941,116.891 30,116.782 C29.984,116.668 29.906,116.559 29.762,116.547 C24.816,116.094 18.977,115.91 15.215,119.575 C15.129,119.563 15.035,119.59 14.969,119.684 C14.758,119.973 14.547,120.262 14.336,120.551 C14.266,120.649 14.297,120.754 14.371,120.832 C14.363,120.848 14.352,120.867 14.344,120.883 C14.25,120.883 14.156,120.93 14.109,121.043 C13.918,121.524 13.766,122.004 13.648,122.512 C13.6212137,122.625 13.664,122.715 13.734,122.762 C13.543,123.95 13.547,125.149 14.125,126.25 C14.836,127.61 16.187,128.473 17.586,129 C17.883,129.114 18.012,128.637 17.719,128.528 C17.68,128.512 17.637,128.496 17.598,128.481 C15.992,127.356 15.094,125.578 15.566,123.621 C16.008,121.797 17.414,120.434 19.051,119.617 C21.402,118.45 24.078,118.188 26.723,118.336 C26.75,118.375 26.789,118.407 26.848,118.414 C28.023,118.625 29.203,118.762 30.391,118.832 C30.414,118.907 30.465,118.973 30.551,118.993 C31.785,119.289 32.891,119.813 33.883,120.559 C33.891,120.629 33.922,120.696 34,120.743 C34.203,120.867 34.387,121.012 34.559,121.164 C34.562,121.192 34.574,121.219 34.59,121.246 C34.805,121.575 35.016,121.91 35.223,122.243 C35.539,122.899 35.793,123.563 35.996,124.254 C35.961,124.481 35.949,124.703 35.961,124.934 C35.914,125.317 35.863,125.7 35.812,126.082 C35.809,126.094 35.797,126.106 35.793,126.121 C35.441,127.188 34.699,127.989 33.734,128.473 C33.496,128.582 33.25,128.684 33,128.778 C32.742,128.871 32.848,129.278 33.113,129.192 C33.316,129.125 33.508,129.047 33.691,128.961 C34.652,128.563 35.535,128.043 36.359,127.395 C36.379,127.379 36.406,127.36 36.43,127.344 L36.43,127.34 C36.445,127.328 36.457,127.321 36.477,127.309 C36.555,127.243 36.559,127.149 36.52,127.067 C36.887,126.586 37.164,126.063 37.352,125.493 C37.457,125.508 37.566,125.461 37.59,125.325 C37.996,123.067 37.652,120.645 35.758,119.141" id="Fill-799" fill="#FEBD64"></path>
            <path d="M15.668,134.809 C15.383,135.145 15.098,135.586 15.254,135.996 C15.402,136.395 15.871,136.543 16.285,136.641 C19.09,137.282 21.961,137.641 24.84,137.707 C24.144,138.067 23.414,138.453 23.016,139.125 C22.875,139.364 22.77,139.641 22.535,139.782 C22.355,139.891 22.141,139.903 21.934,139.907 C19.348,139.973 16.758,139.684 14.254,139.043 C13.148,138.758 12.043,138.403 11.082,137.785 C10.621,137.489 10.184,137.117 9.957,136.617 C9.785,136.239 9.75,135.813 9.789,135.403 C9.894,134.246 10.59,133.184 11.547,132.52 C12.5,131.856 13.691,131.578 14.852,131.617 C15.766,131.653 16.664,131.875 17.512,132.215 C17.625,132.262 18.059,132.375 18.098,132.496 C18.148,132.641 17.793,132.813 17.684,132.899 C17.332,133.168 16.992,133.453 16.672,133.754 C16.316,134.086 15.98,134.442 15.668,134.809" id="Fill-800" fill="#FEBD64"></path>
            <path d="M39.352,132.598 C40.09,133.047 40.75,133.668 41.109,134.453 C41.469,135.243 41.484,136.211 41.027,136.946 C40.641,137.563 39.984,137.95 39.332,138.274 C36.031,139.91 32.246,140.551 28.594,140.094 C28.301,139.094 27.531,138.246 26.562,137.856 C29.355,137.688 32.18,137.516 34.852,136.692 C35.277,136.563 35.754,136.36 35.875,135.934 C35.977,135.578 35.785,135.207 35.578,134.899 C35.215,134.344 34.793,133.832 34.324,133.367 C34.082,133.129 33.828,132.903 33.562,132.692 C33.258,132.45 33.125,132.332 33.551,132.16 C34.738,131.668 36.078,131.559 37.336,131.817 C38.047,131.961 38.73,132.223 39.352,132.598" id="Fill-801" fill="#FEBD64"></path>
            <path d="M40.07,137.883 C38.676,138.895 36.996,139.461 35.297,139.754 C33.602,140.047 31.871,140.082 30.144,140.114 C29.672,140.121 29.195,140.133 28.719,140.141 L28.582,140.133 C28.906,140.782 28.758,141.657 28.66,142.348 C28.531,143.25 28.031,143.883 27.309,144.325 C27.281,144.321 27.254,144.321 27.223,144.328 C26.562,144.485 25.965,144.676 25.273,144.575 C24.59,144.469 24.105,144.075 23.516,143.762 C23.168,143.325 22.77,142.754 22.617,142.207 C22.457,141.621 22.582,141.004 22.656,140.403 C22.574,140.293 22.543,140.145 22.621,139.989 L22.691,139.852 C18.723,140.258 14.781,139.051 10.969,137.856 C10.957,140.184 11.008,142.52 11.379,144.821 C11.746,147.117 12.445,149.383 13.652,151.375 C14.91,153.45 16.945,154.946 19.121,156.028 C19.629,155.418 20.394,155.039 21.184,155 C21.977,154.961 22.773,155.266 23.34,155.821 C23.312,155.227 23.285,154.617 23.445,154.043 C23.605,153.473 23.98,152.926 24.535,152.711 C24.992,152.535 25.512,152.602 25.969,152.77 C26.621,153.008 27.199,153.461 27.551,154.063 C27.902,154.66 28.008,155.41 27.793,156.071 C28.289,155.727 28.742,155.418 29.312,155.223 C29.879,155.024 30.52,154.973 31.078,155.192 C31.641,155.407 32.102,155.934 32.137,156.532 C32.52,156.282 32.887,155.961 33.273,155.711 C34.191,155.11 35.117,154.504 35.918,153.75 C37.031,152.692 37.867,151.364 38.48,149.957 C39.098,148.551 39.504,147.063 39.844,145.563 C40.418,143.032 40.18,140.473 40.07,137.883" id="Fill-802" fill="#528CB7"></path>
            <path d="M22.133,131 C22.285,130.125 22.402,129.235 22.324,128.348 C22.242,127.465 21.957,126.578 21.379,125.903 C20.801,125.227 19.906,124.793 19.023,124.895 C18.141,124.993 17.32,125.692 17.211,126.575 C17.109,127.364 17.555,128.125 18.113,128.692 C16.637,128.188 15.621,126.676 15.512,125.121 C15.402,123.567 16.113,122.02 17.223,120.918 C18.328,119.821 19.805,119.145 21.324,118.789 C22.844,118.434 24.418,118.383 25.98,118.399 C27.648,118.418 29.336,118.516 30.926,119.02 C32.453,119.5 33.894,120.383 34.832,121.684 C35.773,122.981 36.156,124.727 35.633,126.243 C35.109,127.754 33.598,128.938 31.996,128.875 C32.644,128.5 33.348,128.059 33.57,127.34 C33.824,126.52 33.277,125.575 32.473,125.27 C31.668,124.961 30.711,125.223 30.074,125.805 C29.437,126.383 29.09,127.231 28.98,128.086 C28.867,128.938 28.977,129.805 29.125,130.653 C31.586,131.317 33.941,132.586 35.535,134.575 C35.852,134.965 36.148,135.457 36.012,135.938 C35.937,136.2 35.738,136.41 35.508,136.559 C35.281,136.703 35.02,136.789 34.758,136.871 C32.703,137.508 30.508,137.688 28.359,137.77 C26.988,137.821 25.582,137.785 24.215,137.707 C21.602,137.563 18.953,137.414 16.457,136.621 C15.992,136.477 15.469,136.231 15.375,135.75 C15.293,135.336 15.582,134.95 15.859,134.633 C16.684,133.684 17.586,132.785 18.641,132.102 C19.695,131.418 20.875,131.008 22.133,131" id="Fill-803" fill="#AF4C54"></path>
            <path d="M25.805,137.274 C23.941,137.016 22.027,136.602 20.297,135.856 C19.113,135.344 18.238,134.344 18.988,133.035 C19.496,132.149 20.398,131.551 21.383,131.34 C21.48,131.321 21.461,131.153 21.359,131.16 C20.723,131.219 20.004,131.52 19.418,131.973 C19.352,131.926 19.266,131.914 19.184,131.957 C18.371,132.391 13.746,135.45 16.023,136.41 C16.738,136.715 17.617,136.797 18.379,136.957 C19.18,137.125 19.988,137.282 20.797,137.407 C22.437,137.664 24.082,137.797 25.742,137.723 C25.984,137.711 26.07,137.313 25.805,137.274" id="Fill-804" fill="#F79764"></path>
            <path d="M35.77,136.153 C35.031,136.215 34.262,136.239 33.539,136.063 C33.398,136.028 33.34,136.239 33.48,136.278 C33.68,136.336 33.875,136.391 34.07,136.438 C32.891,136.461 31.68,136.293 30.609,135.836 C30.496,135.793 30.402,135.95 30.512,136 C31.156,136.293 31.785,136.516 32.426,136.668 C30.699,136.657 29,136.231 27.437,135.465 C27.34,135.418 27.258,135.551 27.352,135.614 C28.445,136.321 29.633,136.77 30.863,136.985 C28.617,136.938 26.394,136.168 24.672,134.676 C24.582,134.602 24.453,134.723 24.543,134.805 C25.828,136.02 27.375,136.871 29.039,137.262 C28.012,137.235 27.016,137.071 26.031,136.606 C24.746,136 23.258,135.133 22.473,133.922 C22.418,133.836 22.281,133.914 22.336,134 C23.152,135.317 24.418,136.317 25.793,137.016 C26.059,137.149 26.328,137.254 26.598,137.352 C25.352,137.297 24.156,136.957 23.035,136.399 C21.863,135.821 20.301,134.981 20.348,133.481 C20.352,133.344 20.152,133.352 20.137,133.481 C19.977,134.918 21.172,135.821 22.289,136.477 C23.711,137.309 25.273,137.825 26.934,137.828 C27.488,137.86 28.051,137.875 28.605,137.844 C28.684,137.84 28.734,137.801 28.762,137.754 C29.328,137.785 29.906,137.774 30.504,137.743 C30.652,137.731 30.734,137.617 30.742,137.5 C31.535,137.532 32.344,137.465 33.152,137.282 C33.254,137.254 33.305,137.188 33.32,137.114 C33.574,137.098 33.828,137.075 34.082,137.039 C34.187,137.028 34.238,136.961 34.25,136.883 C34.52,136.883 34.793,136.875 35.074,136.848 C35.211,136.832 35.281,136.727 35.297,136.617 C35.449,136.625 35.609,136.633 35.77,136.625 C36.074,136.61 36.07,136.125 35.77,136.153" id="Fill-805" fill="#F79764"></path>
            <path d="M23.906,118.676 C21.156,118.571 18.383,119.211 16.637,121.512 C15.391,123.149 15.02,125.383 16.027,127.09 C16.035,127.102 16.039,127.114 16.047,127.121 C16.254,127.461 16.508,127.782 16.828,128.071 C16.973,128.2 17.125,128.203 17.246,128.141 C17.348,128.289 17.457,128.438 17.586,128.575 C17.664,128.657 17.816,128.543 17.75,128.446 C17.621,128.27 17.52,128.082 17.434,127.895 C17.465,127.782 17.449,127.657 17.359,127.543 C17.32,127.493 17.293,127.446 17.258,127.399 C17.148,126.977 17.129,126.539 17.199,126.102 C18.086,124.836 19.793,124.606 21.371,124.707 C21.625,124.727 21.664,124.344 21.43,124.278 C20.078,123.899 18.449,124.02 17.309,124.793 C18.238,123.489 19.875,123.024 21.644,123.352 C21.93,123.407 22.047,123.004 21.766,122.914 C20.004,122.332 17.824,122.735 16.68,124.11 C17.652,122.082 20.301,121.696 22.496,122.051 C22.707,122.086 22.797,121.793 22.586,121.727 C21.437,121.344 19.988,121.266 18.707,121.582 C19.945,120.809 21.445,120.399 22.883,120.332 C23.023,120.328 23.07,120.106 22.918,120.078 C21.539,119.844 20.02,120.141 18.719,120.821 C20.227,119.793 22.117,119.332 23.906,119.125 C24.187,119.094 24.203,118.688 23.906,118.676" id="Fill-806" fill="#F79764"></path>
            <path d="M32.668,120.063 C32.641,120.043 32.613,120.028 32.586,120.02 C32.262,119.774 31.918,119.555 31.527,119.391 C30.227,118.836 28.828,118.743 27.441,118.844 C27.199,118.86 27.195,119.227 27.441,119.223 C28.855,119.184 30.062,119.614 31.18,120.254 C30.383,120.168 29.551,120.211 28.734,120.352 C28.555,120.383 28.594,120.68 28.777,120.668 C30.59,120.563 32.254,121 33.566,122.125 C32.465,121.567 31.176,121.532 29.93,121.528 C29.644,121.528 29.644,121.965 29.93,121.965 C31.129,121.969 32.426,122.27 33.402,123 C33.66,123.196 33.871,123.399 34.047,123.617 C33.184,123.114 32.18,123.168 31.184,123.309 C31.043,123.325 31.078,123.547 31.215,123.551 C32.68,123.559 34.246,124.391 34.48,125.809 C34.477,125.805 34.477,125.801 34.477,125.797 C34.043,124.785 33.125,124.395 32.094,124.227 C31.922,124.2 31.844,124.461 32.02,124.496 C32.824,124.649 33.387,125.274 33.676,126.02 C33.801,126.34 33.922,126.809 33.773,127.141 C33.687,127.34 33.445,127.524 33.312,127.7 C33.207,127.84 33.23,127.989 33.316,128.106 C33.035,128.285 32.723,128.438 32.379,128.551 C32.023,128.672 32.191,129.25 32.535,129.114 C34.336,128.403 35.812,127.164 35.887,125.125 C35.973,122.793 34.445,121.317 32.668,120.063" id="Fill-807" fill="#F79764"></path>
            <path d="M33.394,176.328 C33.16,174.633 32.641,172.809 31.57,171.457 C30.465,170.071 28.816,169.688 27.16,169.903 C27.121,168.864 27.012,167.84 26.883,166.813 C26.883,166.805 26.887,166.797 26.887,166.789 C26.879,166.754 26.875,166.719 26.871,166.684 C26.844,166.473 26.816,166.266 26.785,166.051 C26.777,166.055 26.77,166.055 26.766,166.059 C26.746,166.008 26.719,165.965 26.687,165.934 C26.602,165.602 26.516,165.274 26.434,164.942 C26.434,164.938 26.43,164.938 26.43,164.934 C26.375,164.598 26.332,164.258 26.297,163.918 C26.281,163.774 26.199,163.614 26.039,163.582 C25.793,163.473 25.547,163.364 25.297,163.254 C25.012,163.016 24.633,163.246 24.691,163.606 C24.773,164.106 24.371,164.801 24.242,165.282 C24.102,165.809 23.988,166.34 23.902,166.875 C23.75,167.813 23.738,168.703 23.82,169.629 C21.773,169.61 20.02,170.285 18.902,172.086 C18.305,173.051 16.809,176.407 17.867,177.461 C18.437,178.032 20.172,178.121 20.941,178.27 C22.223,178.512 23.496,178.614 24.801,178.547 C25.738,178.504 26.684,178.426 27.629,178.321 C27.703,178.383 27.801,178.422 27.926,178.422 C29.746,178.407 31.586,177.715 33.312,177.172 C33.734,177.039 33.691,176.493 33.394,176.328" id="Fill-808" fill="#F79764"></path>
            <path d="M40.48,175.332 C38.926,172.606 35.762,171.782 32.84,172.399 C32.535,172.461 32.434,172.832 32.562,173.082 C32.996,173.907 33.543,175.375 33.43,176.332 C33.281,177.543 32.687,177.496 31.75,177.731 C30.074,178.153 28.348,178.348 26.621,178.399 C25.062,178.442 23.5,178.36 21.949,178.192 C20.488,178.028 18.703,177.938 17.293,177.356 C17.727,175.903 17.59,174.434 18.43,173.051 C18.492,172.946 18.504,172.848 18.484,172.758 C18.648,172.684 18.66,172.438 18.461,172.367 C15.57,171.367 11.703,172.418 10.176,175.215 C8.539,178.207 10.367,180.848 13.031,182.289 C16.187,184 19.934,184.313 23.457,184.528 C27.652,184.785 31.863,184.582 35.812,183.028 C35.867,183.008 35.914,182.977 35.953,182.942 C36.203,182.856 36.453,182.77 36.703,182.692 C36.73,182.684 36.758,182.676 36.785,182.668 C37.125,182.567 37.465,182.473 37.809,182.387 C38.02,182.332 38.094,182.16 38.074,181.996 C38.129,181.985 38.187,181.961 38.246,181.926 C38.508,181.766 38.75,181.598 38.988,181.422 C39.871,180.86 40.77,180.34 41.09,179.246 C41.469,177.965 41.129,176.465 40.48,175.332" id="Fill-809" fill="#AF4C54"></path>
            <path d="M27.828,138.469 C26.766,137.688 25.047,137.524 23.945,138.289 C21.582,139.934 22.57,145.461 25.945,144.614 C25.949,144.614 25.953,144.61 25.961,144.61 C27.262,144.547 28.262,143.383 28.707,142.227 C29.207,140.926 29.004,139.336 27.828,138.469" id="Fill-810" fill="#F79764"></path>
            <path d="M26.598,160.149 C26.324,159.707 25.793,159.332 25.25,159.5 C25.016,159.575 24.84,159.731 24.715,159.926 C24.262,160.246 23.973,160.887 24.02,161.461 C24.094,162.438 24.902,163.922 26.09,163.301 C27.125,162.758 27.148,161.032 26.598,160.149" id="Fill-811" fill="#AF4C54"></path>
            <path d="M35.254,152.602 C33.809,153.086 32.391,152.399 31.203,151.575 C30.547,151.117 29.91,150.168 29.137,149.864 C28.59,149.649 28.07,149.817 27.516,149.856 C25.93,149.961 24.695,149.278 23.98,147.84 C23.871,147.617 23.523,147.524 23.316,147.668 C19.02,150.668 13.742,148.586 11.848,143.903 C11.801,143.782 11.672,143.77 11.598,143.832 C11.398,143.664 11.059,143.821 11.109,144.141 C11.512,146.727 12.176,148.758 13.605,150.95 C14.176,151.825 14.711,152.793 15.461,153.535 C16.297,154.36 17.394,154.95 18.363,155.594 C18.402,155.621 18.441,155.637 18.477,155.653 C18.578,155.895 18.894,156.055 19.16,155.907 C19.727,155.59 20.305,155.344 20.926,155.149 C21.141,155.082 21.238,154.914 21.246,154.743 C21.734,154.766 22.223,154.953 22.641,155.328 C22.949,155.602 23.43,155.41 23.449,154.993 C23.5,153.645 24.129,152.426 25.719,152.778 C26.973,153.059 27.648,154.203 27.684,155.442 C27.691,155.782 28.105,156.098 28.422,155.864 C29.504,155.067 30.852,155.071 31.871,156 C32.086,156.192 32.355,156.176 32.574,156 C33.723,155.059 35.156,154.77 35.82,153.336 C35.988,152.973 35.703,152.453 35.254,152.602" id="Fill-812" fill="#6B527C"></path>
            <path d="M31.066,155.321 C30.707,155.223 30.352,155.211 30.008,155.266 C29.961,155.262 29.91,155.27 29.855,155.289 C29.84,155.293 29.824,155.301 29.809,155.305 C28.977,155.5 28.223,156.067 27.656,156.676 C27.613,156.723 27.59,156.778 27.574,156.828 C27.504,156.903 27.437,156.977 27.371,157.055 C27.441,156.879 27.512,156.703 27.566,156.52 C27.973,155.149 27.727,153.746 26.406,152.993 C25.305,152.364 24.191,152.489 23.73,153.739 C23.48,154.414 23.375,155.293 23.504,156.016 C22.609,155.11 21.449,154.664 20.121,155.25 C18.812,155.832 18.27,157.246 19.113,158.481 C20.094,159.914 22.363,160.075 23.887,160.508 C24.078,160.567 24.23,160.399 24.238,160.235 C24.246,160.231 24.254,160.227 24.262,160.223 C24.559,160.02 24.898,159.86 25.09,159.61 C25.113,159.617 25.133,159.629 25.156,159.633 C25.227,159.645 25.297,159.657 25.367,159.664 C25.559,159.688 25.668,159.692 25.941,159.684 C26.082,159.676 26.172,159.602 26.227,159.5 C26.234,159.496 26.238,159.496 26.242,159.489 C26.242,159.508 26.238,159.528 26.238,159.547 C26.234,159.614 26.281,159.668 26.34,159.692 C26.352,159.723 26.363,159.754 26.387,159.785 C27.148,160.907 28.551,160.059 29.551,159.746 C30.664,159.395 31.906,158.844 32.254,157.614 C32.531,156.625 32.082,155.602 31.066,155.321" id="Fill-813" fill="#FEBD64"></path>
            <path d="M24.094,161.77 C24.023,161.645 23.867,161.649 23.777,161.723 C22.031,161.336 20.16,161.668 18.965,163.098 C18.191,164.02 17.543,165.907 18.816,166.731 C20.187,167.617 22.34,166.836 23.473,165.93 C24.109,165.418 24.676,164.711 24.953,163.934 C25.352,162.832 24.617,162.711 24.094,161.77" id="Fill-814" fill="#FEBD64"></path>
            <path d="M30.719,161.895 C29.832,161.567 28.539,161.235 27.625,161.641 C26.883,161.973 26.566,162.918 25.996,163.481 C25.902,163.575 25.922,163.703 25.992,163.789 C25.996,163.825 26,163.864 26.012,163.899 C26.492,165.582 27.801,166.875 29.449,167.45 C30.934,167.969 32.91,167.258 33.238,165.543 C33.539,163.961 32.074,162.395 30.719,161.895" id="Fill-815" fill="#FEBD64"></path>
            <path d="M24.437,159.028 C24.644,158.86 24.348,158.844 24.141,158.875 C24.047,158.555 23.605,158.508 23.434,158.789 C23.418,158.817 23.398,158.84 23.383,158.867 C23.367,158.727 23.355,158.586 23.324,158.469 C23.25,158.164 22.801,158.102 22.648,158.379 C22.57,158.524 22.488,158.668 22.41,158.813 C22.227,158.481 22.113,158.114 22.004,157.743 C21.914,157.434 21.414,157.399 21.344,157.743 C21.328,157.821 21.203,158.696 21.141,158.731 C21.039,158.782 20.508,157.817 20.48,157.75 C20.383,157.516 19.996,157.614 20.094,157.856 C20.273,158.305 20.586,159.176 21.125,159.309 C21.418,159.379 21.598,159.235 21.719,159.008 C21.844,159.266 21.996,159.512 22.195,159.743 C22.348,159.918 22.656,159.86 22.766,159.668 C22.777,159.645 22.789,159.621 22.805,159.598 C22.852,159.715 22.918,159.832 23.023,159.95 C23.203,160.149 23.484,160.051 23.621,159.871 C23.637,159.848 23.652,159.825 23.668,159.805 C23.836,159.926 24.105,159.879 24.242,159.692 C24.242,159.696 24.656,159.758 24.699,159.75 C24.863,159.711 24.941,159.629 25.035,159.489 C25.289,159.106 24.75,158.774 24.437,159.028" id="Fill-816" fill="#F79764"></path>
            <path d="M30.91,157.289 C30.844,157.063 30.465,157.09 30.484,157.348 C30.508,157.614 30.492,157.852 30.437,158.086 C30.367,158 30.297,157.918 30.234,157.832 C30.066,157.617 29.66,157.516 29.52,157.832 C29.496,157.879 29.484,157.93 29.469,157.985 C29.305,157.852 29.125,157.836 28.934,157.922 C28.738,158.012 28.273,158.551 28.496,158.75 C28.234,158.516 27.852,158.61 27.727,158.934 L27.602,158.848 C27.394,158.7 27.043,158.801 26.934,159.02 C26.922,159.043 26.906,159.071 26.894,159.094 L26.867,159.071 C26.672,158.867 26.387,158.914 26.207,159.071 C26.184,158.805 26.086,158.645 26.035,158.364 C25.984,158.082 26.031,157.817 25.969,157.528 C25.953,157.453 25.91,157.387 25.855,157.336 C25.891,156.989 25.879,156.653 25.812,156.285 C25.785,156.121 25.621,156.004 25.457,155.981 C25.5,155.793 25.543,155.61 25.59,155.422 C25.68,155.035 25.242,154.828 24.957,155.059 C24.82,155.168 24.684,155.27 24.547,155.364 C24.629,155.164 24.715,154.961 24.797,154.758 C24.891,154.532 24.586,154.344 24.394,154.453 C24.137,154.602 23.926,154.758 23.711,154.965 C23.559,155.11 23.727,155.375 23.902,155.332 C23.809,155.532 23.715,155.731 23.621,155.934 C23.504,156.18 23.699,156.5 23.992,156.418 C24.211,156.356 24.402,156.27 24.59,156.172 C24.543,156.34 24.496,156.508 24.449,156.676 C24.359,156.996 24.723,157.317 25.023,157.149 C25.004,157.293 24.973,157.434 24.922,157.575 C24.867,157.778 24.957,157.961 25.109,158.059 C25.102,158.207 25.082,158.36 25.098,158.504 C25.121,158.766 25.273,158.801 25.266,159.176 C25.254,159.629 25.781,159.75 26.059,159.532 C26.07,159.575 26.086,159.614 26.113,159.653 C26.227,159.828 26.309,159.93 26.437,159.996 C26.852,160.336 27.199,160.297 27.5,159.946 C27.566,159.993 27.637,160.035 27.707,160.082 C27.988,160.27 28.293,160.063 28.402,159.797 C28.426,159.75 28.441,159.703 28.461,159.66 C28.539,159.653 28.625,159.633 28.711,159.598 C28.871,159.535 28.969,159.446 29.078,159.309 C29.109,159.27 29.144,159.18 29.184,159.082 C29.211,159.129 29.238,159.168 29.266,159.207 C29.461,159.477 29.836,159.5 30.027,159.207 C30.086,159.114 30.121,159.02 30.144,158.926 C30.195,158.977 30.242,159.028 30.297,159.078 C30.5,159.266 30.867,159.2 30.937,158.907 C31.074,158.348 31.078,157.844 30.91,157.289" id="Fill-817" fill="#F79764"></path>
            <path d="M24.82,163.766 C24.777,163.141 24.559,162.641 24.086,162.215 C23.836,161.993 23.473,162.094 23.367,162.407 C23.332,162.508 23.301,162.61 23.277,162.711 C23.055,162.703 22.848,162.922 22.828,163.145 C22.812,163.379 22.828,163.664 22.793,163.914 C22.363,164.067 22.102,164.352 21.84,164.782 C21.648,165.102 21.91,165.403 22.199,165.434 C21.867,165.727 21.422,165.867 21.18,165.321 C21.055,165.035 20.602,165.239 20.684,165.528 C20.894,166.258 21.648,166.571 22.348,166.266 C22.809,166.059 23.117,165.66 23.332,165.207 C23.336,165.215 23.344,165.223 23.348,165.227 C23.457,165.348 23.629,165.375 23.777,165.34 C24.305,165.223 24.535,164.668 24.641,164.125 C24.754,164.059 24.832,163.942 24.82,163.766" id="Fill-818" fill="#F79764"></path>
            <path d="M31.547,166.149 C31.309,166.024 31.086,165.996 30.824,165.996 C30.996,165.731 30.652,165.418 30.391,165.641 C30.297,165.723 30.184,165.789 30.07,165.848 C29.984,165.758 30.016,165.68 29.902,165.535 C29.648,165.219 29.406,165.153 29.125,165.18 C29.219,164.84 29.363,164.52 28.98,164.203 C28.82,164.071 28.641,164.039 28.453,164.067 C28.613,163.789 28.777,163.516 28.879,163.215 C29,162.86 28.57,162.575 28.27,162.746 C28.109,162.836 27.945,162.926 27.781,163.02 C27.863,162.879 27.945,162.739 28.031,162.606 C28.281,162.211 27.75,161.899 27.434,162.145 C27.074,162.426 25.828,163.867 26.398,164.352 C26.391,164.387 26.383,164.422 26.379,164.461 C26.312,164.84 26.672,165.129 26.996,164.973 C27.012,164.996 27.027,165.016 27.047,165.035 C27.062,165.098 27.07,165.157 27.094,165.215 C27.203,165.508 27.406,165.727 27.656,165.856 C27.625,166.231 27.816,166.617 28.234,166.817 C28.453,166.918 28.699,166.953 28.957,166.938 C29.066,167.016 29.176,167.086 29.293,167.149 C29.934,167.481 31.805,167.688 31.793,166.578 C31.789,166.41 31.699,166.231 31.547,166.149" id="Fill-819" fill="#F79764"></path>
            <path d="M31.113,176.395 C29.105,176.703 27.086,176.735 25.07,176.477 C23.937,176.332 22.594,176.086 21.902,175.078 C21.387,174.325 21.551,172.942 22.062,172.211 C22.473,171.625 23.125,171.25 23.738,170.91 C23.988,170.774 23.871,170.477 23.66,170.418 C23.863,170.344 24.066,170.278 24.27,170.215 C24.461,170.153 24.488,169.953 24.418,169.821 C24.594,169.758 24.766,169.688 24.914,169.586 C25.016,169.516 25.113,169.399 25.102,169.266 C25.078,169.043 25.004,168.922 24.898,168.856 C25.258,168.379 25.59,167.883 25.883,167.356 C26.023,167.106 25.789,166.782 25.504,166.867 C25.332,166.918 25.184,166.993 25.047,167.082 C25.191,166.739 25.336,166.391 25.469,166.039 C25.555,165.805 25.277,165.672 25.098,165.766 C25.148,165.657 25.199,165.551 25.258,165.446 C25.422,165.129 24.961,164.856 24.773,165.164 C24.434,165.719 24.144,166.293 23.855,166.875 C23.691,167.203 23.988,167.465 24.262,167.403 C24.164,167.61 24.066,167.817 23.969,168.028 C23.863,168.25 24.059,168.571 24.301,168.512 C24.18,168.664 24.055,168.817 23.926,168.961 C23.871,169.024 23.848,169.106 23.84,169.192 C23.727,169.235 23.652,169.313 23.617,169.403 C23.57,169.387 23.523,169.371 23.473,169.371 C20.805,169.371 17.996,172.391 17.527,174.871 C17.344,175.856 17.184,176.875 18.133,177.399 C19.406,178.106 21.555,178.45 22.992,178.367 C23.137,178.36 23.25,178.301 23.332,178.223 C23.379,178.231 23.426,178.239 23.473,178.243 C25.922,178.61 28.398,178.442 30.789,177.805 C30.973,177.754 31.074,177.637 31.113,177.496 C31.211,177.481 31.312,177.461 31.402,177.446 C32.102,177.309 31.793,176.293 31.113,176.395" id="Fill-820" fill="#FEBD64"></path>
            <path d="M37.523,150.414 C36.414,149.789 35.281,149.297 34.41,148.344 C34.008,147.903 33.402,148.543 33.766,148.993 C34.227,149.563 34.668,150.149 35.156,150.688 C33.543,149.883 32.004,148.996 30.598,147.801 C30.297,147.543 29.727,147.891 30.004,148.258 C30.801,149.317 31.715,150.325 32.742,151.192 C30.195,150.137 27.82,148.664 26.109,146.473 C25.863,146.16 25.312,146.578 25.551,146.903 C26.894,148.711 28.363,150.348 30.082,151.641 C26.793,150.2 23.711,148.039 21.543,145.278 C21.32,144.993 20.824,145.371 21.039,145.664 C22.492,147.641 24.059,149.352 25.824,150.789 C21.996,149.465 18.387,147.434 16.156,143.891 C15.937,143.543 15.391,143.856 15.602,144.215 C16.91,146.45 18.539,148.504 20.508,150.094 C19.031,149.504 17.617,148.758 16.504,147.606 C15.105,146.157 14.27,144.227 13.473,142.407 C13.332,142.086 12.852,142.321 12.926,142.637 C13.461,144.864 14.043,147.117 15.637,148.852 C17.152,150.496 19.234,151.395 21.293,152.157 C21.906,152.379 22.309,151.864 22.301,151.348 C23.891,152.297 25.668,152.953 27.644,153.188 C28.082,153.239 28.359,152.973 28.461,152.629 C29.828,153.434 31.312,154.102 32.945,154.617 C33.598,154.825 34.039,154.305 34.074,153.77 C34.371,153.867 34.676,153.961 34.988,154.043 C35.672,154.223 36.129,153.719 36.18,153.18 C36.773,153.157 37.227,152.598 37.191,152.09 C37.891,151.973 38.324,150.871 37.523,150.414" id="Fill-821" fill="#6B527C"></path>
            <path d="M22.137,79.414 C20.891,79.602 20.777,82.188 20.656,83.114 C20.465,84.61 20.648,86.059 20.832,87.52 C20.824,87.668 20.816,87.817 20.809,87.965 C20.801,88.121 20.848,88.246 20.93,88.34 C20.984,88.805 21.031,89.266 21.059,89.735 C21.066,89.879 21.293,89.926 21.324,89.77 C21.402,89.36 21.441,88.95 21.461,88.539 C21.687,88.516 21.906,88.383 21.977,88.125 C22.613,85.852 23.961,81.946 22.73,79.657 C22.609,79.434 22.363,79.379 22.137,79.414" id="Fill-822" fill="#A9C1A3"></path>
            <path d="M30.281,86.219 C30.144,84.957 29.902,83.672 29.695,82.418 C29.574,81.692 29.172,79.106 28.016,79.215 C26.82,79.332 26.996,82.055 27.051,82.739 C27.141,83.817 27.621,84.684 28,85.676 C28.422,86.805 28.613,87.942 28.746,89.098 C28.758,89.266 28.773,89.434 28.781,89.602 C28.785,89.672 28.801,89.731 28.82,89.785 C28.852,90.121 28.883,90.461 28.914,90.801 C28.937,91.032 29.305,91.125 29.355,90.86 C29.398,90.621 29.426,90.387 29.441,90.153 C29.691,90.121 29.922,89.938 29.941,89.602 C30.008,88.442 30.402,87.391 30.281,86.219" id="Fill-823" fill="#A9C1A3"></path>
            <path d="M26.004,115.453 C25.988,115.442 25.977,115.442 25.965,115.434 C25.91,115.051 25.992,114.59 25.98,114.246 C25.965,113.778 25.922,113.309 25.863,112.84 C25.797,112.301 25.035,112.274 25,112.84 C24.934,113.895 24.816,114.926 24.668,115.969 C24.613,116.344 25.086,116.477 25.23,116.125 C25.246,116.09 25.258,116.051 25.27,116.016 C25.289,116.067 25.301,116.117 25.324,116.168 C25.484,116.504 25.875,116.391 26.031,116.141 C26.219,116 26.305,115.735 26.086,115.532 C26.059,115.504 26.031,115.477 26.004,115.453" id="Fill-824" fill="#A9C1A3"></path>
            <path d="M21.187,85.075 C21.25,84.071 21.328,83.063 21.516,82.078 C21.609,81.586 21.73,81.106 21.875,80.633 C22.02,80.176 22.203,79.641 22.422,79.629 C22.527,79.602 22.691,79.723 22.805,79.922 C22.918,80.114 23.008,80.367 23.07,80.606 C23.207,81.086 23.254,81.598 23.234,82.102 C23.176,83.121 22.816,84.09 22.469,85.039 C22.129,85.996 21.805,86.985 21.574,88.016 C21.418,88.703 21.328,89.422 21.34,90.133 C21.086,88.446 21.094,86.754 21.187,85.075 Z M21.437,91.18 L21.535,91.18 C21.844,89.121 22.75,87.328 23.27,85.27 C23.492,84.239 23.578,83.164 23.559,82.11 C23.551,81.578 23.504,81.051 23.402,80.528 C23.348,80.262 23.297,80.012 23.191,79.735 C23.09,79.485 22.883,79.125 22.441,79.082 C21.996,79.055 21.703,79.375 21.535,79.602 C21.352,79.86 21.258,80.094 21.125,80.34 C20.898,80.836 20.73,81.352 20.598,81.867 C20.328,82.907 20.16,83.961 20.121,85.024 C20.082,87.125 20.352,89.328 21.418,91.18 L21.434,91.172 C21.434,91.176 21.434,91.18 21.437,91.18 L21.437,91.18 Z" id="Fill-930" fill="#000000"></path>
            <path d="M45.559,41.723 C44.453,42.063 43.234,42.09 41.992,41.828 C41.988,41.793 41.988,41.762 41.98,41.727 C41.824,40.559 41.492,39.418 40.996,38.356 C41.242,38.418 41.48,38.493 41.715,38.575 C41.883,38.641 42.051,38.711 42.199,38.789 C42.336,38.86 42.441,38.957 42.594,39.075 C43.125,39.528 43.734,40.157 44.52,40.43 C45.297,40.731 46.129,40.813 46.922,40.77 C47.148,40.75 47.375,40.723 47.602,40.684 C47.5,40.762 47.402,40.852 47.297,40.926 C46.754,41.278 46.164,41.532 45.559,41.723 Z M40.551,46.121 C40.078,47.477 39.215,48.633 37.93,49.34 C36.844,49.965 35.547,50.325 34.25,50.153 C33.926,49.727 33.566,49.293 33.082,48.934 C32.695,48.668 32.254,48.485 31.789,48.442 C31.5,48.414 31.195,48.461 30.926,48.575 C30.93,47.934 30.863,47.293 30.734,46.676 C30.555,45.75 30.305,44.856 30.102,43.953 C29.894,43.047 29.766,42.129 29.512,41.215 C29.242,40.313 28.77,39.399 27.996,38.727 C27.664,38.438 27.266,38.211 26.844,38.071 C27.066,36.614 27.855,35.356 28.93,34.469 C29.488,34.016 30.113,33.649 30.777,33.407 C31.441,33.176 32.152,33.051 32.875,33.024 C34.309,32.961 35.832,33.309 37.102,34.117 C38.367,34.938 39.324,36.184 39.941,37.539 C41.117,40.258 41.512,43.418 40.551,46.121 Z M36.363,52.715 C36.867,52.887 37.387,52.993 37.918,53.063 C37.394,53.285 36.867,53.485 36.344,53.653 C35.543,53.903 34.723,54.004 33.926,53.981 C33.141,53.969 32.344,53.77 31.621,53.41 C31.039,53.121 30.512,52.703 30.098,52.157 C30.527,51.332 30.766,50.426 30.871,49.528 C30.902,49.301 30.918,49.075 30.926,48.848 C31.57,48.785 32.16,49.133 32.602,49.532 C33.133,50.032 33.516,50.75 34.117,51.391 C34.734,52.043 35.555,52.453 36.363,52.715 Z M29.078,51.809 C28.305,53.305 26.98,54.567 25.203,55.082 L25.215,55.18 C25.973,55.235 26.727,55.063 27.426,54.739 C27.281,55.11 27.18,55.493 27.18,55.883 C27.18,56.383 27.332,56.875 27.387,57.348 C27.449,57.817 27.437,58.289 27.394,58.766 C27.293,59.719 27.305,60.61 27.117,61.422 C26.969,62.25 26.711,63.024 26.125,63.805 L26.129,63.809 L26.086,63.828 C26.316,65.102 26.152,66.231 26.02,67.453 C25.98,68.071 25.965,68.719 25.848,69.344 C25.742,69.942 25.555,70.52 25.394,71.121 C25.234,70.516 25.043,69.938 24.937,69.34 C24.824,68.715 24.809,68.067 24.77,67.453 C24.637,66.231 24.477,65.102 24.703,63.828 L24.66,63.809 L24.664,63.805 C24.105,63.035 23.848,62.293 23.691,61.493 C23.492,60.711 23.488,59.852 23.375,58.93 C23.336,58.473 23.324,58.012 23.391,57.555 C23.453,57.102 23.621,56.629 23.629,56.137 C23.629,55.711 23.523,55.262 23.328,54.856 C23.926,55.09 24.559,55.215 25.191,55.176 L25.203,55.078 C23.437,54.543 22.125,53.282 21.359,51.789 C20.543,50.289 20.277,48.52 20.262,46.723 C20.266,45.821 20.391,44.907 20.66,44.035 C20.934,43.168 21.348,42.328 21.715,41.512 C22.078,40.7 22.426,39.914 22.98,39.297 C23.539,38.692 24.277,38.196 25.195,38.141 L25.211,38.039 C24.742,37.875 24.23,37.891 23.742,38.028 C23.789,37.313 23.672,36.571 23.394,35.887 C23.074,35.153 22.621,34.461 22.039,33.895 C21.211,33.078 20.121,32.52 18.973,32.297 C19.238,32.145 19.484,31.961 19.691,31.743 C20.238,31.153 20.648,30.395 20.715,29.535 C20.844,27.828 19.805,26.235 18.41,25.418 C16.988,24.598 15.379,24.469 13.871,24.465 C13.844,24.465 13.816,24.469 13.793,24.469 C14.105,23.918 13.855,23.157 13.441,22.703 C13.344,22.598 13.238,22.504 13.129,22.414 C13.691,21.918 14.199,21.465 14.703,20.985 C14.98,20.688 15.254,20.325 15.629,20.114 C15.996,19.895 16.43,19.809 16.855,19.801 C17.711,19.817 18.496,19.887 19.277,20.071 C19.93,20.184 20.582,20.364 21.277,20.575 C21.602,21.348 21.902,22.133 22.16,22.934 C22.883,25.008 23.406,27.157 23.906,29.321 C23.805,29.375 23.699,29.418 23.609,29.493 C23.328,29.746 23.18,30.129 23.043,30.434 C22.91,30.743 22.754,31.039 22.633,31.383 C22.355,32.059 22.555,32.953 23.121,33.508 C23.691,34.039 24.566,34.223 25.211,33.864 L25.203,33.762 C24.586,33.461 24.195,33.129 23.883,32.762 C23.547,32.426 23.336,32.008 23.18,31.434 C23.117,31.153 23.148,30.828 23.328,30.594 C23.5,30.352 23.816,30.278 24.062,30.192 C24.496,30.012 24.887,29.805 25.422,29.586 C25.894,29.864 26.219,30.098 26.586,30.328 C26.801,30.438 27.09,30.563 27.23,30.813 C27.371,31.055 27.367,31.36 27.277,31.621 C27.074,32.153 26.84,32.516 26.504,32.825 C26.187,33.16 25.816,33.465 25.223,33.762 L25.219,33.864 C25.824,34.227 26.656,34.078 27.223,33.61 C27.781,33.117 28.043,32.285 27.828,31.621 C27.738,31.285 27.613,30.993 27.527,30.684 C27.437,30.383 27.375,30.004 27.148,29.715 C26.988,29.524 26.773,29.399 26.547,29.305 C27.047,27.149 27.566,25.004 28.289,22.934 C28.547,22.125 28.855,21.34 29.18,20.563 C29.859,20.356 30.504,20.18 31.144,20.067 C31.93,19.887 32.723,19.817 33.578,19.797 C34.004,19.805 34.441,19.887 34.809,20.106 C35.184,20.321 35.461,20.68 35.742,20.977 C36.25,21.461 36.758,21.914 37.32,22.414 C37.211,22.504 37.105,22.598 37.008,22.703 C36.594,23.157 36.344,23.918 36.656,24.469 C36.637,24.469 36.613,24.465 36.59,24.465 C35.082,24.469 33.48,24.594 32.059,25.407 C30.664,26.215 29.617,27.801 29.734,29.504 C29.793,30.356 30.184,31.121 30.719,31.723 C30.93,31.953 31.187,32.141 31.461,32.301 C30.32,32.528 29.234,33.082 28.41,33.895 C27.828,34.461 27.375,35.153 27.055,35.887 C26.777,36.571 26.66,37.309 26.707,38.028 C26.211,37.883 25.687,37.871 25.211,38.043 L25.227,38.145 C26.152,38.188 26.894,38.684 27.457,39.285 C28.016,39.903 28.371,40.692 28.73,41.504 C29.102,42.325 29.516,43.164 29.789,44.035 C30.059,44.91 30.187,45.825 30.187,46.731 C30.172,48.535 29.902,50.309 29.078,51.809 Z M25.383,83.922 C25.297,82.176 25.156,80.43 24.941,78.688 C25.074,78.754 25.203,78.825 25.348,78.875 L25.394,78.821 L25.441,78.875 C25.574,78.828 25.691,78.762 25.816,78.7 C25.605,80.442 25.465,82.18 25.383,83.922 Z M26.184,116.164 C25.922,116.172 25.656,116.172 25.394,116.196 C25.133,116.18 24.863,116.192 24.598,116.192 C24.949,114.864 25.203,113.516 25.394,112.16 C25.586,113.508 25.836,114.848 26.184,116.164 Z M31.367,117.567 C33.25,118.203 35.144,119.141 36.125,120.782 C37.125,122.399 37.258,124.543 36.402,126.215 C35.98,127.051 35.32,127.766 34.52,128.172 C34.496,128.184 34.473,128.188 34.449,128.2 C35.109,127.657 35.613,126.895 35.832,126.039 C36.25,124.34 35.672,122.52 34.539,121.231 C33.394,119.93 31.801,119.192 30.211,118.809 C28.605,118.414 26.988,118.403 25.394,118.465 C23.801,118.582 22.215,118.727 20.656,119.106 C19.113,119.477 17.531,120.09 16.336,121.309 C15.172,122.524 14.547,124.34 14.961,126.039 C15.25,127.2 16.078,128.2 17.109,128.696 C16.781,128.629 16.457,128.539 16.156,128.391 C15.293,127.965 14.586,127.219 14.133,126.344 C13.211,124.578 13.363,122.328 14.41,120.625 C15.473,118.883 17.457,117.989 19.363,117.375 C21.312,116.774 23.344,116.578 25.394,116.743 C27.453,116.645 29.453,116.93 31.367,117.567 Z M32.887,124.91 C32.23,124.578 31.492,124.559 30.84,124.735 C29.484,125.09 28.578,126.289 28.227,127.485 C27.863,128.7 27.926,130.012 28.383,131.18 L28.477,131.414 L28.719,131.461 C30.25,131.758 31.723,132.395 32.984,133.332 C33.613,133.797 34.187,134.344 34.699,134.938 C34.937,135.235 35.234,135.571 35.34,135.832 C35.387,135.973 35.383,136.047 35.336,136.121 C35.289,136.2 35.152,136.285 34.98,136.348 C33.488,136.887 31.887,137.203 30.289,137.434 C28.992,137.617 27.684,137.723 26.371,137.821 C26.102,137.739 25.824,137.684 25.547,137.672 L25.504,137.668 L25.285,137.692 L25.246,137.692 C25.09,137.731 24.945,137.789 24.797,137.848 C23.359,137.731 21.922,137.625 20.5,137.422 C18.902,137.192 17.301,136.879 15.809,136.344 C15.641,136.282 15.504,136.196 15.457,136.117 C15.41,136.047 15.406,135.973 15.453,135.836 C15.559,135.575 15.852,135.235 16.09,134.942 C16.602,134.344 17.172,133.797 17.801,133.328 C19.055,132.383 20.527,131.735 22.062,131.43 L22.289,131.387 L22.375,131.168 C22.824,130.004 22.883,128.7 22.516,127.496 C22.16,126.317 21.254,125.145 19.93,124.813 C19.289,124.645 18.57,124.672 17.945,124.993 C17.332,125.321 16.859,125.887 16.695,126.575 C16.617,126.914 16.617,127.285 16.723,127.633 C16.77,127.782 16.836,127.914 16.906,128.043 C16.277,127.461 15.852,126.684 15.719,125.879 C15.484,124.457 16.035,122.985 16.957,121.864 C17.883,120.715 19.246,119.848 20.738,119.418 C22.242,118.993 23.836,118.957 25.394,119.012 C26.953,119.141 28.516,119.301 29.969,119.715 C31.418,120.133 32.77,120.871 33.742,121.942 C34.699,122.989 35.297,124.457 35.062,125.879 C34.957,126.575 34.629,127.262 34.133,127.813 C34.152,127.762 34.18,127.723 34.195,127.668 C34.305,127.293 34.297,126.907 34.207,126.547 C34.016,125.828 33.531,125.243 32.887,124.91 Z M38.723,132.883 C39.602,133.235 40.496,133.817 40.855,134.758 C41.031,135.219 41.082,135.735 40.957,136.203 C40.84,136.676 40.527,137.071 40.16,137.371 C39.398,137.961 38.422,138.301 37.484,138.645 C36.531,138.961 35.543,139.164 34.547,139.344 C32.684,139.692 30.758,139.852 28.812,140.117 C28.641,139.649 28.379,139.215 28.039,138.856 C27.691,138.473 27.266,138.176 26.801,137.973 C29.605,137.926 32.437,137.785 35.191,136.918 C35.398,136.844 35.648,136.746 35.848,136.496 C36.055,136.239 36.055,135.86 35.961,135.617 C35.766,135.117 35.5,134.84 35.25,134.493 C34.73,133.828 34.129,133.227 33.461,132.711 C33.398,132.66 33.328,132.621 33.262,132.575 C35.137,132.051 37.043,132.16 38.723,132.883 Z M39.52,143.18 C39.535,144.067 39.578,144.969 39.453,145.852 C39.324,146.735 39.043,147.59 38.664,148.391 C38.277,149.192 37.84,149.946 37.371,150.668 C36.883,151.383 36.332,152.047 35.746,152.688 C34.644,153.93 33.367,155.035 32.062,156.192 C31.984,156.016 31.879,155.852 31.754,155.7 C31.266,155.082 30.465,154.684 29.617,154.743 C28.992,154.766 28.398,154.985 27.894,155.317 C27.832,155.176 27.758,155.039 27.719,154.91 C27.644,154.688 27.641,154.453 27.633,154.2 C27.633,153.942 27.582,153.684 27.473,153.461 C27.371,153.231 27.25,153.008 27.039,152.813 C26.824,152.633 26.527,152.477 26.199,152.477 C25.887,152.469 25.551,152.625 25.437,152.899 L25.492,152.985 C26.004,153.094 26.082,153.352 26.293,153.575 C26.523,153.809 26.793,154.117 27.125,154.407 C27.281,154.559 27.402,154.75 27.398,154.965 C27.406,155.18 27.25,155.387 27.172,155.563 C27.121,155.731 27.094,155.883 27.086,156.055 C26.266,157.039 25.965,158.266 25.867,159.422 C25.703,159.407 25.539,159.41 25.375,159.473 L25.355,159.539 L25.336,159.477 C25.199,159.426 25.059,159.41 24.922,159.414 C24.824,158.258 24.523,157.039 23.707,156.055 C23.695,155.883 23.668,155.731 23.617,155.563 C23.539,155.387 23.383,155.18 23.387,154.965 C23.387,154.75 23.508,154.559 23.664,154.407 C23.996,154.117 24.266,153.809 24.496,153.575 C24.707,153.352 24.785,153.094 25.297,152.985 L25.352,152.899 C25.238,152.625 24.898,152.469 24.59,152.477 C24.262,152.477 23.965,152.633 23.75,152.813 C23.539,153.008 23.418,153.231 23.316,153.461 C23.207,153.684 23.152,153.942 23.156,154.2 C23.148,154.453 23.144,154.688 23.066,154.91 C23.027,155.039 22.961,155.176 22.894,155.317 C22.391,154.985 21.797,154.766 21.168,154.743 C20.328,154.684 19.523,155.082 19.035,155.7 C18.902,155.856 18.797,156.035 18.715,156.219 C17.41,155.059 16.137,153.942 15.035,152.688 C14.453,152.047 13.902,151.383 13.414,150.664 C12.949,149.942 12.508,149.188 12.121,148.387 C11.742,147.59 11.461,146.731 11.336,145.852 C11.211,144.965 11.254,144.067 11.27,143.18 C11.234,141.602 11.176,140.016 10.953,138.41 C11.574,138.887 12.273,139.231 12.977,139.524 C13.969,139.934 15.012,140.235 16.066,140.395 C18.113,140.692 20.156,140.602 22.16,140.301 C21.996,140.68 21.883,141.09 21.863,141.52 C21.82,142.465 22.234,143.442 22.93,144.078 C23.59,144.707 24.496,145.043 25.352,144.977 L25.352,144.981 C25.363,144.981 25.375,144.977 25.383,144.977 C25.398,144.977 25.418,144.981 25.434,144.981 L25.434,144.977 C26.293,145.028 27.18,144.692 27.863,144.082 C28.578,143.453 29,142.489 29.039,141.52 C29.059,141.117 28.988,140.719 28.871,140.328 C30.797,140.602 32.758,140.68 34.723,140.395 C35.777,140.235 36.816,139.934 37.812,139.524 C38.516,139.231 39.215,138.887 39.836,138.41 C39.613,140.016 39.555,141.602 39.52,143.18 Z M31.871,157.758 C31.629,158.375 31.062,158.758 30.5,159 C29.934,159.262 29.32,159.473 28.668,159.684 C28.09,159.875 27.473,160.098 26.93,160.446 C26.91,160.313 26.887,160.184 26.832,160.063 C26.676,159.774 26.394,159.563 26.074,159.473 C26.703,158.313 27.273,157.176 28.152,156.465 C28.613,156.078 29.133,155.762 29.703,155.676 C30.246,155.602 30.863,155.731 31.367,156.086 C31.875,156.438 32.125,157.145 31.871,157.758 Z M27.297,161.977 C28.73,161.996 30,162.367 31.129,163.035 C31.719,163.364 32.344,163.785 32.652,164.422 C32.969,165.051 32.867,165.871 32.398,166.317 C31.414,167.188 29.891,167.086 28.734,166.528 C27.605,166.032 26.707,165.032 26.227,163.723 C26.488,163.625 26.723,163.461 26.906,163.254 C27.184,162.899 27.34,162.43 27.297,161.977 Z M26.797,169.778 L26.773,170.176 L27.203,170.141 C28.059,170.067 28.922,170.27 29.672,170.688 C30.422,171.102 31.062,171.711 31.559,172.41 C32.48,173.739 32.883,175.383 33.02,177.051 C30.621,177.946 28.047,178.371 25.461,178.301 L25.348,178.301 L25.328,178.305 C22.691,178.637 19.941,178.285 17.477,177.254 C17.641,175.477 18.168,173.739 19.176,172.371 C20.191,170.977 21.855,169.973 23.586,170.141 L24.012,170.18 L23.992,169.778 C23.922,168.477 24.004,167.16 24.242,165.86 C24.613,165.215 24.801,164.493 24.77,163.785 C24.965,163.821 25.168,163.825 25.363,163.758 C25.582,163.828 25.801,163.821 26.02,163.774 C25.984,164.493 26.18,165.235 26.566,165.887 C26.801,167.176 26.875,168.485 26.797,169.778 Z M39.305,174.344 C40.168,175.18 40.695,176.313 40.758,177.477 C40.832,178.641 40.41,179.758 39.59,180.598 C38.785,181.457 37.711,182.078 36.57,182.567 C35.434,183.067 34.223,183.41 32.988,183.664 C30.516,184.164 27.949,184.313 25.394,184.473 C22.84,184.493 20.25,184.473 17.742,183.969 C16.492,183.711 15.266,183.328 14.121,182.789 C12.977,182.27 11.902,181.582 11.113,180.676 C10.309,179.785 9.902,178.649 9.988,177.473 C10.062,176.297 10.605,175.164 11.48,174.336 C13.121,172.696 15.648,172.203 18.035,172.52 C17.215,174.028 16.984,175.766 16.996,177.395 L16.996,177.571 L17.144,177.617 C18.473,178.047 19.828,178.371 21.199,178.598 C22.574,178.805 23.973,178.899 25.371,178.848 L25.348,178.848 L25.437,178.852 L25.418,178.852 C26.809,179.024 28.227,179.032 29.629,178.86 C31.031,178.7 32.406,178.348 33.742,177.875 L34.074,177.758 L34.066,177.383 C34.043,175.735 33.715,173.996 32.844,172.504 C35.207,172.2 37.695,172.711 39.305,174.344 Z M22.055,166.528 C20.898,167.086 19.371,167.188 18.391,166.317 C17.922,165.871 17.82,165.051 18.137,164.422 C18.445,163.785 19.07,163.364 19.66,163.035 C20.77,162.375 22.02,162.008 23.43,161.981 C23.387,162.434 23.543,162.903 23.82,163.258 C24.016,163.477 24.273,163.653 24.551,163.743 C24.07,165.043 23.176,166.035 22.055,166.528 Z M25.355,159.582 C25.687,160.035 25.867,160.309 26.168,160.567 C26.332,160.676 26.578,160.785 26.684,160.985 C26.793,161.18 26.77,161.422 26.68,161.621 C26.473,162.02 26.289,162.309 26.062,162.602 C25.875,162.907 25.687,163.203 25.363,163.61 C25.039,163.203 24.852,162.907 24.664,162.606 C24.437,162.313 24.254,162.024 24.043,161.625 C23.953,161.426 23.93,161.188 24.039,160.993 C24.141,160.793 24.387,160.684 24.551,160.571 C24.852,160.317 25.027,160.039 25.355,159.582 Z M22.121,159.684 C21.469,159.473 20.855,159.262 20.289,159 C19.727,158.758 19.16,158.375 18.914,157.758 C18.664,157.145 18.914,156.438 19.422,156.086 C19.926,155.731 20.543,155.602 21.086,155.676 C21.656,155.762 22.176,156.078 22.633,156.465 C23.512,157.176 24.086,158.305 24.711,159.461 C24.363,159.543 24.051,159.762 23.883,160.071 C23.836,160.176 23.82,160.293 23.801,160.407 C23.27,160.082 22.68,159.867 22.121,159.684 Z M25.504,138.239 L25.461,138.235 C26.215,138.446 26.859,138.907 27.32,139.473 C27.777,140.055 27.973,140.774 27.973,141.496 C28.016,142.938 27,144.348 25.394,144.86 C24.609,144.594 23.961,144.125 23.496,143.551 C23.012,142.961 22.773,142.25 22.703,141.5 C22.613,140.758 22.734,139.922 23.234,139.274 C23.723,138.633 24.52,138.246 25.297,138.219 L25.504,138.239 Z M9.832,136.203 C9.707,135.735 9.758,135.219 9.934,134.758 C10.293,133.817 11.187,133.235 12.07,132.883 C13.75,132.16 15.66,132.051 17.539,132.575 C17.473,132.625 17.398,132.664 17.336,132.715 C16.664,133.231 16.059,133.828 15.539,134.493 C15.289,134.84 15.02,135.117 14.824,135.617 C14.73,135.86 14.73,136.239 14.937,136.496 C15.137,136.75 15.387,136.848 15.598,136.922 C18.5,137.84 21.496,137.961 24.457,137.985 C23.898,138.25 23.406,138.617 22.984,139.059 C22.68,139.367 22.414,139.743 22.219,140.153 C20.191,139.864 18.184,139.707 16.242,139.344 C15.246,139.164 14.258,138.961 13.305,138.645 C12.367,138.301 11.387,137.961 10.629,137.371 C10.258,137.071 9.949,136.676 9.832,136.203 Z M25.324,92.66 C25.324,91.864 25.352,91.067 25.387,90.27 C25.422,91.075 25.453,91.879 25.457,92.684 C25.457,93.5 25.43,94.321 25.391,95.137 C25.352,94.309 25.324,93.485 25.324,92.66 Z M18.828,53.41 C18.105,53.77 17.309,53.969 16.523,53.981 C15.727,54.004 14.906,53.903 14.105,53.653 C13.582,53.485 13.055,53.285 12.531,53.063 C13.059,52.993 13.582,52.887 14.086,52.715 C14.894,52.453 15.711,52.043 16.332,51.391 C16.934,50.75 17.316,50.032 17.848,49.532 C18.289,49.133 18.879,48.785 19.523,48.848 C19.531,49.071 19.547,49.289 19.574,49.508 C19.68,50.414 19.918,51.325 20.352,52.157 C19.937,52.703 19.41,53.121 18.828,53.41 Z M12.527,49.332 C11.238,48.633 10.371,47.481 9.898,46.125 C8.937,43.422 9.332,40.262 10.508,37.539 C11.121,36.184 12.082,34.938 13.348,34.121 C14.617,33.309 16.141,32.961 17.578,33.024 C18.293,33.051 19.004,33.176 19.672,33.407 C20.336,33.649 20.961,34.016 21.52,34.469 C22.594,35.356 23.383,36.617 23.605,38.075 C23.18,38.215 22.773,38.446 22.441,38.739 C21.672,39.41 21.203,40.325 20.934,41.227 C20.684,42.137 20.551,43.051 20.348,43.953 C20.148,44.856 19.898,45.743 19.715,46.668 C19.586,47.289 19.52,47.93 19.52,48.575 C19.254,48.461 18.953,48.414 18.66,48.442 C18.195,48.485 17.754,48.668 17.371,48.934 C16.894,49.285 16.539,49.707 16.223,50.121 C14.922,50.297 13.621,49.95 12.527,49.332 Z M8.469,41.731 C8.461,41.762 8.461,41.793 8.457,41.828 C7.215,42.09 6,42.063 4.891,41.723 C4.285,41.532 3.695,41.278 3.152,40.926 C3.047,40.852 2.949,40.762 2.848,40.684 C3.074,40.723 3.305,40.754 3.527,40.77 C4.324,40.809 5.16,40.727 5.934,40.426 C6.723,40.153 7.332,39.52 7.863,39.071 L8.07,38.91 C8.129,38.864 8.18,38.828 8.254,38.789 C8.402,38.715 8.57,38.653 8.742,38.59 C8.969,38.52 9.199,38.453 9.434,38.399 C8.949,39.45 8.621,40.575 8.469,41.731 Z M4.824,32.196 C4.875,30.825 5.367,29.442 6.207,28.301 C7.039,27.157 8.207,26.254 9.535,25.629 C10.867,25.012 12.375,24.723 13.863,24.789 C15.344,24.86 16.824,25.297 17.957,26.117 C19.082,26.903 19.937,28.153 19.941,29.5 C19.937,30.153 19.707,30.844 19.289,31.407 C19.055,31.723 18.762,32.004 18.418,32.215 C18.137,32.188 17.852,32.176 17.57,32.192 C15.934,32.282 14.434,32.953 13.164,33.852 C11.887,34.754 10.832,35.938 10.023,37.285 C9.906,37.473 9.816,37.668 9.711,37.864 C6.852,37.489 4.617,34.852 4.824,32.196 Z M9.914,22.696 C9.578,22.215 9.375,21.633 9.375,21.043 C9.566,21.266 9.789,21.45 9.996,21.617 C10.48,21.977 11.023,22.293 11.527,22.563 C12.035,22.836 12.52,22.973 12.891,23.274 C13.254,23.563 13.578,23.922 13.641,24.473 C13.082,24.477 12.527,24.508 11.969,24.571 C11.141,23.996 10.402,23.391 9.914,22.696 Z M17.836,13.391 C17.008,12.539 16.133,11.719 15.094,11.102 C14.078,10.496 12.836,10.055 11.617,10.364 C11.027,10.52 10.465,10.805 10.027,11.25 C9.816,11.457 9.641,11.707 9.512,11.981 C9.289,10.481 9.23,8.942 9.949,7.703 C10.789,6.231 12.547,5.403 14.219,5.407 C15.937,5.403 17.59,6.188 18.957,7.258 C20.332,8.356 21.469,9.766 22.539,11.243 L24.312,13.688 L23.398,10.832 C22.836,9.067 22.766,7.149 23.066,5.289 C23.383,3.45 24.113,1.66 25.223,0.106 C26.336,1.66 27.066,3.45 27.383,5.289 C27.684,7.149 27.613,9.067 27.051,10.832 L26.141,13.688 L27.91,11.243 C28.98,9.766 30.113,8.356 31.492,7.258 C32.859,6.188 34.512,5.403 36.23,5.407 C37.902,5.403 39.66,6.231 40.5,7.703 C41.219,8.942 41.16,10.481 40.934,11.981 C40.809,11.707 40.637,11.457 40.422,11.25 C39.988,10.805 39.426,10.52 38.832,10.364 C37.613,10.055 36.375,10.496 35.355,11.102 C34.316,11.719 33.441,12.539 32.609,13.391 C31.773,14.239 31.035,15.188 30.394,16.196 C29.105,18.207 28.258,20.457 27.578,22.711 C26.988,24.86 26.602,27.051 26.402,29.254 C26.082,29.157 25.746,29.168 25.437,29.293 C25.004,29.071 24.496,29.055 24.047,29.243 C23.848,27.043 23.461,24.856 22.871,22.711 C22.191,20.457 21.344,18.207 20.051,16.196 C19.414,15.188 18.676,14.239 17.836,13.391 Z M38.922,22.563 C39.43,22.293 39.969,21.981 40.453,21.617 C40.66,21.45 40.883,21.262 41.074,21.039 C41.078,21.633 40.867,22.223 40.531,22.7 C40.039,23.391 39.273,23.989 38.434,24.567 C37.894,24.508 37.352,24.477 36.809,24.473 C36.871,23.922 37.195,23.563 37.559,23.27 C37.93,22.973 38.414,22.836 38.922,22.563 Z M44.238,28.293 C45.078,29.43 45.566,30.809 45.625,32.18 C45.832,34.84 43.629,37.528 40.746,37.875 C40.641,37.676 40.543,37.477 40.426,37.285 C39.617,35.938 38.562,34.75 37.285,33.852 C36.016,32.953 34.512,32.282 32.879,32.192 C32.59,32.172 32.297,32.192 32.008,32.219 C31.66,32.004 31.359,31.715 31.129,31.391 C30.719,30.825 30.508,30.129 30.508,29.477 C30.52,28.129 31.383,26.887 32.508,26.106 C33.641,25.293 35.117,24.86 36.598,24.789 C38.082,24.723 39.586,25.016 40.914,25.629 C42.242,26.254 43.406,27.153 44.238,28.293 Z M40.828,38.032 C40.949,38.039 41.074,38.051 41.199,38.051 C41.09,38.059 40.984,38.098 40.875,38.121 C40.859,38.09 40.844,38.063 40.828,38.032 Z M27.234,73.192 C27.242,71.883 27.305,70.617 27.652,69.426 C27.98,68.227 28.602,67.043 29.336,65.953 C29.641,65.493 29.965,65.039 30.285,64.578 C30.176,65.133 30.094,65.692 30.051,66.246 C29.926,67.555 29.887,68.848 29.777,70.102 C29.676,71.36 29.477,72.571 29.004,73.735 C28.758,74.356 28.469,74.977 28.109,75.551 C28.172,75.274 28.223,74.993 28.238,74.707 C28.277,74.278 28.316,73.856 28.437,73.45 C28.551,73.047 28.781,72.657 28.898,72.246 C29.098,71.418 29.074,70.567 28.809,69.707 L28.711,69.7 C28.289,70.5 28.113,71.309 28.078,72.129 C28.078,72.543 28.172,72.977 28.117,73.387 C28.074,73.797 27.914,74.188 27.715,74.555 C27.512,74.899 27.324,75.243 27.144,75.578 C27.215,74.778 27.227,73.973 27.234,73.192 Z M21.785,73.735 C21.312,72.571 21.113,71.36 21.008,70.102 C20.902,68.848 20.863,67.555 20.742,66.246 C20.691,65.692 20.613,65.133 20.504,64.578 C20.824,65.039 21.144,65.493 21.453,65.953 C22.187,67.043 22.805,68.227 23.137,69.426 C23.484,70.617 23.547,71.883 23.555,73.192 C23.562,73.973 23.574,74.778 23.644,75.578 C23.461,75.243 23.277,74.899 23.074,74.555 C22.875,74.188 22.715,73.797 22.672,73.387 C22.617,72.977 22.711,72.543 22.711,72.129 C22.676,71.309 22.5,70.5 22.082,69.7 L21.98,69.707 C21.715,70.567 21.691,71.418 21.887,72.246 C22.008,72.657 22.238,73.047 22.352,73.45 C22.473,73.856 22.512,74.278 22.551,74.707 C22.566,74.993 22.613,75.274 22.68,75.551 C22.32,74.977 22.031,74.356 21.785,73.735 Z M48.793,39.551 C48.367,40.086 47.652,40.457 46.91,40.461 C46.164,40.489 45.469,40.125 44.883,39.727 C44.277,39.328 43.75,38.895 43.051,38.434 C42.887,38.332 42.676,38.207 42.449,38.149 C42.238,38.086 42.035,38.055 41.828,38.039 C41.652,38.032 41.473,38.032 41.297,38.043 C44.144,37.973 46.848,35.243 46.691,32.153 C46.598,28.844 44.09,25.993 41.117,25.121 C40.453,24.903 39.781,24.754 39.105,24.653 C39.398,24.59 39.687,24.5 39.965,24.375 C40.477,24.141 40.969,23.817 41.363,23.34 C41.766,22.864 41.984,22.25 42.016,21.637 C42.059,21.028 41.902,20.364 41.484,19.899 L40.578,18.887 L40.891,20.075 C41.004,20.508 40.73,21.075 40.27,21.367 C39.82,21.692 39.234,21.703 38.664,21.813 C38.316,21.875 37.953,22.008 37.617,22.215 C37.418,21.438 36.922,20.75 36.254,20.321 C35.844,20.082 35.367,19.977 34.949,19.813 C34.527,19.657 34.129,19.45 33.699,19.266 C32.84,18.867 31.836,18.821 30.91,19.028 C30.426,19.16 29.965,19.379 29.559,19.668 C30.031,18.633 30.562,17.629 31.152,16.66 C31.738,15.68 32.387,14.727 33.125,13.848 C33.863,12.973 34.652,12.11 35.586,11.457 C36.504,10.817 37.664,10.387 38.758,10.657 C39.824,10.922 40.816,11.844 40.777,12.938 L40.715,14.782 L41.152,12.981 C41.367,12.082 41.574,11.168 41.637,10.219 C41.695,9.274 41.598,8.266 41.148,7.36 C40.227,5.547 38.227,4.493 36.242,4.453 C34.242,4.414 32.336,5.223 30.828,6.422 C29.855,7.184 29.043,8.094 28.309,9.047 C28.418,7.739 28.34,6.418 28.023,5.157 C27.555,3.231 26.613,1.418 25.277,1.42108547e-14 L25.223,0.043 L25.172,1.42108547e-14 C23.836,1.418 22.894,3.231 22.426,5.157 C22.109,6.418 22.031,7.739 22.141,9.047 C21.406,8.094 20.594,7.184 19.621,6.422 C18.113,5.223 16.207,4.414 14.207,4.453 C12.223,4.493 10.223,5.547 9.301,7.36 C8.855,8.266 8.75,9.274 8.816,10.219 C8.875,11.168 9.082,12.082 9.297,12.981 L9.734,14.782 L9.672,12.938 C9.633,11.844 10.625,10.922 11.691,10.657 C12.785,10.387 13.945,10.817 14.863,11.457 C15.797,12.11 16.586,12.973 17.324,13.848 C18.062,14.727 18.711,15.68 19.301,16.66 C19.894,17.645 20.434,18.664 20.914,19.715 C20.496,19.403 20.02,19.168 19.516,19.028 C18.594,18.817 17.59,18.867 16.734,19.27 C16.305,19.453 15.91,19.66 15.488,19.821 C15.074,19.985 14.598,20.086 14.187,20.328 C13.523,20.754 13.031,21.442 12.836,22.215 C12.496,22.008 12.133,21.875 11.785,21.813 C11.215,21.703 10.629,21.692 10.18,21.367 C9.715,21.075 9.445,20.508 9.559,20.075 L9.879,18.879 L8.965,19.895 C8.547,20.364 8.391,21.024 8.43,21.629 C8.465,22.243 8.68,22.856 9.078,23.332 C9.465,23.801 9.949,24.137 10.457,24.375 C10.727,24.5 11.012,24.594 11.301,24.66 C10.637,24.766 9.98,24.907 9.336,25.121 C6.359,25.993 3.84,28.856 3.758,32.168 C3.602,35.434 6.637,38.227 9.625,38.028 C9.605,38.067 9.578,38.11 9.559,38.149 C9.262,38.078 8.953,38.043 8.648,38.055 C8.441,38.063 8.234,38.086 8.02,38.145 C7.914,38.168 7.789,38.215 7.68,38.27 L7.406,38.426 C6.703,38.887 6.18,39.325 5.574,39.727 C4.984,40.125 4.289,40.485 3.543,40.461 C2.801,40.457 2.082,40.086 1.656,39.551 L0,37.465 L1.16,39.961 C1.48,40.641 1.984,41.231 2.578,41.703 C3.168,42.184 3.863,42.563 4.613,42.739 C5.922,43.055 7.34,42.844 8.43,42.164 C8.281,43.606 8.371,45.098 8.898,46.5 C9.852,49.407 13.238,51.16 16.008,50.403 C15.898,50.551 15.789,50.7 15.684,50.84 C15.246,51.457 14.68,52.032 13.953,52.387 C13.234,52.735 12.391,52.84 11.617,52.664 L10.594,52.438 L11.461,53.114 C12.168,53.664 12.93,54.192 13.797,54.524 C14.656,54.86 15.598,55.098 16.566,55.051 C17.539,54.993 18.488,54.664 19.254,54.086 C19.812,53.668 20.277,53.106 20.535,52.481 C20.992,53.231 21.621,53.887 22.355,54.364 C22.559,54.996 22.668,55.582 22.801,56.227 C22.906,56.637 23.066,57.078 23.066,57.535 C23.074,57.989 22.961,58.43 22.832,58.875 C22.543,59.758 22.414,60.75 22.652,61.743 C22.906,62.684 23.605,63.606 24.551,63.867 C23.711,64.899 23.637,66.395 23.949,67.602 C24.137,68.235 24.437,68.813 24.621,69.418 C24.809,70.02 24.887,70.653 24.875,71.274 C24.824,72.516 24.68,73.731 24.613,75.008 C24.598,76.043 24.691,77.149 25.066,78.16 L24.25,76.653 C24.18,76.535 24.113,76.407 24.043,76.285 C24.113,75.266 24.258,74.254 24.336,73.215 C24.434,71.903 24.445,70.473 23.918,69.16 C23.387,67.856 22.492,66.832 21.715,65.77 C20.93,64.715 20.211,63.59 19.816,62.371 L19.289,62.575 C19.641,63.782 19.738,65.035 19.797,66.309 C19.844,67.578 19.805,68.883 19.949,70.203 C20.082,71.52 20.453,72.871 21.074,74.059 C21.562,74.953 22.172,75.84 22.977,76.481 C23.082,76.723 23.195,76.965 23.332,77.196 C23.703,77.762 24.195,78.274 24.793,78.617 C24.539,81.719 24.496,84.817 24.644,87.91 C24.75,89.493 24.926,91.078 25,92.664 C25.062,94.25 25.039,95.836 24.988,97.426 C24.859,100.606 24.859,103.774 24.781,106.93 C24.758,110.016 24.656,113.086 24.457,116.192 C22.703,116.203 20.918,116.477 19.25,117.028 C17.312,117.672 15.285,118.629 14.144,120.457 C13.008,122.239 12.824,124.598 13.75,126.532 C14.203,127.493 14.937,128.352 15.906,128.879 C16.848,129.391 17.996,129.555 19.066,129.239 C19.082,129.235 19.098,129.235 19.113,129.231 L19.113,129.227 C19.121,129.227 19.125,129.227 19.129,129.227 L18.93,128.586 C18.566,128.68 18.094,128.41 17.793,128.035 C17.477,127.645 17.348,127.203 17.477,126.77 C17.602,126.34 17.922,125.942 18.328,125.743 C18.734,125.535 19.242,125.512 19.707,125.645 C20.668,125.891 21.359,126.774 21.66,127.766 C21.961,128.7 21.941,129.735 21.641,130.672 C20.23,131.008 18.898,131.614 17.719,132.45 C16.031,131.274 13.59,131.11 11.699,132.137 C10.73,132.696 9.941,133.598 9.625,134.653 C9.273,135.672 9.449,136.93 10.242,137.766 C10.391,137.926 10.547,138.063 10.707,138.2 C10.375,139.86 10.254,141.547 10.437,143.235 C10.57,144.141 10.816,145.028 11.02,145.91 C11.223,146.789 11.379,147.68 11.605,148.571 C12.016,150.371 12.992,152.055 14.25,153.414 C15.508,154.715 17.031,155.7 18.668,156.371 C18.492,156.856 18.469,157.383 18.605,157.856 C18.789,158.571 19.234,159.27 19.871,159.715 C20.508,160.157 21.25,160.332 21.941,160.438 C22.555,160.535 23.152,160.575 23.766,160.633 C23.754,160.723 23.75,160.809 23.73,160.887 C23.687,161.133 23.582,161.364 23.496,161.633 C23.48,161.68 23.48,161.727 23.469,161.774 C22.117,161.184 20.391,161.414 19.187,162.352 C18.566,162.875 18.105,163.559 17.836,164.301 C17.574,165.028 17.5,165.895 17.953,166.649 C18.406,167.399 19.254,167.809 20.082,167.899 C20.922,167.996 21.77,167.864 22.52,167.489 C22.984,167.258 23.387,166.93 23.73,166.551 C23.488,167.481 23.348,168.434 23.301,169.399 C22.414,169.328 21.508,169.512 20.719,169.907 C19.816,170.36 19.035,171.032 18.457,171.848 C18.332,172.024 18.223,172.203 18.117,172.383 C16.984,172.075 15.777,171.946 14.582,172.121 C13.273,172.321 11.965,172.848 10.953,173.778 C9.934,174.692 9.238,176.008 9.113,177.403 C8.949,178.801 9.523,180.278 10.5,181.243 C11.473,182.223 12.684,182.852 13.91,183.301 C15.137,183.766 16.41,184.059 17.68,184.285 C20.234,184.743 22.812,184.867 25.394,185.02 C27.977,185.051 30.574,185.051 33.164,184.59 C34.457,184.36 35.742,184.028 36.973,183.528 C38.207,183.039 39.414,182.348 40.375,181.321 C41.336,180.305 41.894,178.809 41.719,177.399 C41.578,175.993 40.871,174.68 39.84,173.774 C38.82,172.852 37.516,172.325 36.203,172.129 C35.039,171.965 33.871,172.078 32.762,172.364 C32.644,172.176 32.523,171.989 32.391,171.809 C31.793,170.993 30.992,170.328 30.078,169.891 C29.281,169.508 28.375,169.325 27.488,169.399 C27.434,168.43 27.293,167.473 27.051,166.543 C27.394,166.926 27.797,167.258 28.27,167.489 C29.02,167.864 29.867,167.996 30.707,167.899 C31.531,167.809 32.383,167.399 32.836,166.649 C33.289,165.895 33.215,165.028 32.953,164.301 C32.684,163.559 32.219,162.875 31.602,162.352 C30.379,161.399 28.621,161.176 27.262,161.801 C27.25,161.743 27.246,161.684 27.227,161.625 C27.141,161.356 27.035,161.125 26.988,160.875 C26.973,160.805 26.965,160.723 26.957,160.641 C27.594,160.575 28.211,160.539 28.848,160.438 C29.539,160.332 30.281,160.157 30.922,159.715 C31.555,159.27 31.996,158.571 32.18,157.856 C32.324,157.375 32.297,156.84 32.113,156.352 C33.746,155.676 35.27,154.707 36.527,153.414 C37.797,152.059 38.77,150.371 39.18,148.575 C39.406,147.684 39.566,146.793 39.77,145.91 C39.973,145.028 40.219,144.141 40.352,143.235 C40.535,141.547 40.414,139.86 40.082,138.2 C40.242,138.063 40.398,137.926 40.543,137.766 C41.344,136.93 41.516,135.672 41.164,134.653 C40.848,133.598 40.059,132.696 39.09,132.137 C37.203,131.114 34.766,131.274 33.078,132.446 C31.91,131.606 30.582,130.993 29.176,130.649 C28.887,129.719 28.875,128.696 29.176,127.782 C29.484,126.801 30.176,125.95 31.102,125.719 C31.555,125.598 32.039,125.629 32.418,125.825 C32.797,126.016 33.102,126.399 33.199,126.797 C33.305,127.2 33.18,127.575 32.879,127.934 C32.594,128.282 32.148,128.485 31.914,128.403 L31.598,129.407 C31.605,129.41 31.613,129.41 31.621,129.41 L31.621,129.414 C31.633,129.418 31.648,129.418 31.66,129.418 C32.781,129.782 33.996,129.625 34.996,129.098 C36.023,128.551 36.805,127.66 37.293,126.66 C38.285,124.633 38.082,122.168 36.898,120.301 C36.312,119.352 35.441,118.617 34.52,118.075 C33.59,117.532 32.602,117.149 31.598,116.836 C29.894,116.317 28.09,116.11 26.332,116.16 C26.133,113.071 26.031,110.012 26.008,106.942 C25.93,103.785 25.93,100.621 25.797,97.45 C25.746,95.864 25.719,94.278 25.781,92.692 C25.848,91.106 26.023,89.524 26.129,87.942 C26.27,84.844 26.219,81.739 25.961,78.633 C26.574,78.293 27.078,77.774 27.461,77.196 C27.594,76.965 27.707,76.723 27.809,76.481 C28.617,75.84 29.223,74.953 29.715,74.059 C30.336,72.871 30.707,71.52 30.84,70.203 C30.984,68.883 30.945,67.578 30.992,66.309 C31.051,65.035 31.148,63.782 31.5,62.575 L30.973,62.371 C30.578,63.59 29.859,64.715 29.074,65.77 C28.297,66.832 27.402,67.856 26.871,69.16 C26.344,70.473 26.355,71.903 26.453,73.215 C26.531,74.254 26.676,75.266 26.746,76.285 C26.676,76.407 26.609,76.535 26.539,76.653 L25.734,78.137 C26.102,77.137 26.191,76.039 26.176,75.016 C26.109,73.739 25.965,72.52 25.914,71.278 C25.902,70.657 25.98,70.024 26.164,69.422 C26.352,68.817 26.652,68.235 26.84,67.606 C27.152,66.395 27.078,64.899 26.238,63.867 C27.211,63.586 27.918,62.625 28.156,61.657 C28.383,60.625 28.23,59.617 27.941,58.711 C27.809,58.254 27.695,57.793 27.711,57.328 C27.719,56.864 27.891,56.414 28.004,55.985 C28.152,55.356 28.238,54.758 28.41,54.145 C29.008,53.692 29.527,53.125 29.914,52.481 C30.176,53.11 30.637,53.668 31.195,54.086 C31.961,54.664 32.91,54.993 33.887,55.051 C34.852,55.098 35.793,54.86 36.652,54.524 C37.52,54.192 38.281,53.664 38.988,53.114 L39.855,52.438 L38.832,52.664 C38.059,52.84 37.215,52.735 36.496,52.387 C35.773,52.032 35.203,51.457 34.766,50.84 C34.668,50.711 34.562,50.571 34.461,50.43 C37.234,51.176 40.598,49.391 41.551,46.496 C42.078,45.098 42.168,43.602 42.02,42.164 C43.109,42.844 44.527,43.055 45.836,42.739 C46.59,42.563 47.281,42.184 47.871,41.703 C48.465,41.231 48.969,40.641 49.289,39.957 L50.445,37.473 L48.793,39.551 L48.793,39.551 Z" id="Fill-931" fill="#000000"></path>
            <path d="M29.449,90.133 C29.461,89.422 29.371,88.703 29.215,88.016 C28.984,86.985 28.66,85.996 28.32,85.039 C27.973,84.09 27.609,83.121 27.555,82.102 C27.535,81.598 27.582,81.086 27.719,80.606 C27.781,80.367 27.871,80.114 27.98,79.922 C28.098,79.723 28.262,79.602 28.367,79.629 C28.586,79.641 28.77,80.176 28.914,80.633 C29.055,81.106 29.18,81.586 29.273,82.078 C29.461,83.063 29.539,84.071 29.602,85.075 C29.695,86.754 29.703,88.446 29.449,90.133 Z M29.254,79.602 C29.086,79.375 28.793,79.055 28.348,79.082 C27.906,79.125 27.699,79.485 27.594,79.735 C27.492,80.012 27.441,80.262 27.387,80.528 C27.285,81.051 27.238,81.578 27.23,82.11 C27.211,83.164 27.297,84.239 27.52,85.27 C28.039,87.328 28.945,89.121 29.254,91.18 L29.352,91.18 C29.355,91.18 29.355,91.176 29.355,91.172 L29.371,91.18 C30.434,89.328 30.707,87.125 30.668,85.024 C30.629,83.961 30.461,82.907 30.191,81.867 C30.059,81.352 29.887,80.836 29.664,80.34 C29.531,80.094 29.441,79.86 29.254,79.602 L29.254,79.602 Z" id="Fill-932" fill="#000000"></path>
        </g>
    </g>
</svg>