<?xml version="1.0" encoding="UTF-8"?>
<svg width="67px" height="40px" viewBox="0 0 67 40" version="1.1" xmlns="http://www.w3.org/2000/svg" xmlns:xlink="http://www.w3.org/1999/xlink">
    <!-- Generator: Sketch 63.1 (92452) - https://sketch.com -->
    <title>Combined Shape</title>
    <desc>Created with Sketch.</desc>
    <g id="Page-1" stroke="none" stroke-width="1" fill="none" fill-rule="evenodd">
        <g id="Combined-Shape" fill="#000000">
            <path d="M18.1113281,16 C19.3177083,16 19.9208984,16.6936849 19.9208984,18.0810547 C19.9208984,20.1621094 14.8505859,18.0810547 14.8505859,21.2753906 C14.8505859,24.4697266 24.8459388,32.0992943 33.4016077,34.4248047 C41.9572766,36.750315 58.3476563,38.203125 58.3476563,25.3623047 C58.3476563,21.0940755 55.4156901,18.6669922 49.5517578,18.0810547 C47.9078776,16.6936849 47.0859375,16 47.0859375,16 L47.0859375,16 L50.9755859,16 C57.3173828,16 61.6438802,17.2408854 63.9550781,19.7226563 C67.421875,23.4453125 66.7509766,26.9914822 66.7509766,29.6416016 C66.7509766,32.2917209 63.8583984,39.6425781 47.0859375,39.8945312 C30.3134766,40.1464844 22.015625,32.9609661 16.2539063,29.6416016 C10.4921875,26.3222371 2.05957031,19.6542969 0.686523438,18.0810547 C-0.228841146,17.0322266 -0.228841146,16.3385417 0.686523438,16 L0.686523438,16 Z M33.0654297,-5.59552404e-14 C33.7705078,2.55003892 34.7135417,5.41036766 35.8945312,8.58098622 C37.0755208,11.7516048 38.5800781,14.2158203 40.4082031,15.9736328 L31.2001953,15.9736328 C29.5908203,15.9736328 28.7861328,15.0947266 28.7861328,13.3369141 C28.7861328,10.7001953 27.6875,7.66210937 25.6503906,4.20898437 C24.2923177,1.90690104 23.0755208,0.50390625 22,-5.59552404e-14 L33.0654297,-5.59552404e-14 Z"></path>
        </g>
    </g>
</svg>